{"glyphs":{"0":{"ha":686,"x_min":56,"x_max":665,"o":"m 290 -17 q 119 66 182 -17 q 56 292 56 149 q 88 540 56 428 q 172 732 119 651 q 293 856 225 813 q 433 900 361 900 q 529 878 486 900 q 602 817 572 857 q 649 719 632 776 q 665 589 665 661 q 634 342 665 453 q 551 151 603 231 q 431 27 499 71 q 290 -17 363 -17 m 299 100 q 385 142 344 100 q 458 254 426 185 q 509 414 490 324 q 528 600 528 504 q 502 736 528 688 q 424 785 476 785 q 337 742 378 785 q 264 628 296 699 q 213 467 232 558 q 194 281 194 376 q 220 147 194 193 q 299 100 246 100 z "},"1":{"ha":686,"x_min":31,"x_max":563,"o":"m 31 0 l 56 121 l 243 121 l 364 718 l 204 718 l 224 813 q 340 840 290 824 q 433 883 389 857 l 546 883 l 392 121 l 563 121 l 539 0 l 31 0 z "},"2":{"ha":686,"x_min":-17,"x_max":647,"o":"m -17 0 l 0 86 q 213 265 119 186 q 371 410 307 344 q 468 535 435 476 q 501 656 501 594 q 470 745 501 710 q 376 781 439 781 q 296 760 336 781 q 214 701 256 739 l 140 790 q 265 872 203 843 q 394 900 328 900 q 581 837 514 900 q 647 672 647 774 q 620 541 647 603 q 541 416 593 479 q 413 283 489 353 q 239 126 336 213 l 578 126 l 554 0 l -17 0 z "},"3":{"ha":686,"x_min":-17,"x_max":654,"o":"m 269 -17 q 108 25 183 -17 q -17 139 33 67 l 78 217 q 162 136 113 168 q 269 104 211 104 q 403 147 353 104 q 454 258 454 189 q 442 316 454 290 q 403 360 431 342 q 330 390 375 379 q 217 400 285 400 l 239 508 q 366 522 315 508 q 447 558 417 536 q 490 610 478 581 q 503 668 503 639 q 472 749 503 718 q 379 781 442 781 q 222 718 304 781 l 149 815 q 275 880 211 860 q 406 900 339 900 q 588 844 521 900 q 654 693 654 788 q 608 547 654 608 q 457 454 561 486 l 457 449 q 566 373 529 422 q 603 260 603 324 q 578 143 603 194 q 508 56 553 92 q 403 2 464 21 q 269 -17 342 -17 z "},"4":{"ha":686,"x_min":11,"x_max":650,"o":"m 474 0 l 336 0 l 382 229 l 11 229 l 31 332 l 476 883 l 650 883 l 542 346 l 650 346 l 628 229 l 519 229 l 474 0 m 183 346 l 404 346 l 447 556 q 467 647 456 600 q 490 742 479 694 l 485 742 q 433 663 458 701 q 381 589 407 624 l 183 346 z "},"5":{"ha":686,"x_min":-8,"x_max":681,"o":"m 268 -17 q 111 24 181 -17 q -8 138 42 64 l 88 215 q 163 136 119 168 q 272 104 206 104 q 344 118 310 104 q 405 158 379 132 q 447 222 431 185 q 463 306 463 260 q 425 415 463 379 q 322 451 388 451 q 287 449 303 451 q 256 442 271 447 q 223 428 240 436 q 183 408 206 421 l 125 456 l 235 883 l 681 883 l 656 758 l 339 758 l 279 542 q 326 558 301 553 q 379 564 350 564 q 472 549 429 564 q 545 506 514 535 q 594 433 576 476 q 613 331 613 389 q 583 186 613 250 q 506 77 554 122 q 397 8 458 32 q 268 -17 335 -17 z "},"6":{"ha":686,"x_min":71,"x_max":704,"o":"m 331 -17 q 223 6 271 -17 q 141 69 175 28 q 89 166 107 110 q 71 290 71 222 q 103 538 71 425 q 192 731 135 650 q 327 856 249 811 q 499 900 406 900 q 569 890 538 900 q 626 863 601 879 q 671 825 651 846 q 704 783 690 804 l 608 704 q 558 759 586 739 q 489 779 529 779 q 401 757 443 779 q 325 693 360 735 q 264 590 290 651 q 224 451 238 529 q 319 520 267 497 q 413 543 372 543 q 569 485 508 543 q 629 313 629 426 q 607 188 629 247 q 544 83 585 129 q 449 10 504 38 q 331 -17 394 -17 m 339 96 q 401 114 374 96 q 449 160 429 132 q 481 224 469 189 q 492 296 492 260 q 463 400 492 363 q 375 438 433 438 q 301 417 344 438 q 211 340 257 397 q 210 310 210 325 q 210 279 210 294 q 245 145 210 194 q 339 96 281 96 z "},"7":{"ha":686,"x_min":143,"x_max":735,"o":"m 153 0 q 219 224 183 119 q 300 422 254 329 q 405 598 346 515 q 542 758 464 681 l 143 758 l 168 883 l 735 883 l 717 789 q 547 599 615 694 q 433 406 479 504 q 358 207 388 308 q 307 0 329 106 l 153 0 z "},"8":{"ha":686,"x_min":50,"x_max":674,"o":"m 317 -17 q 222 -3 269 -17 q 135 39 174 11 q 74 110 97 67 q 50 214 50 154 q 66 301 50 261 q 109 374 82 342 q 172 430 136 406 q 249 471 208 454 l 249 476 q 190 558 210 515 q 171 653 171 600 q 193 757 171 711 q 253 835 215 803 q 340 883 290 867 q 444 900 389 900 q 528 888 488 900 q 601 850 569 875 q 653 786 633 825 q 674 694 674 747 q 628 549 674 608 q 510 450 583 490 l 510 444 q 588 365 553 415 q 624 244 624 314 q 599 135 624 183 q 531 53 574 88 q 433 1 489 19 q 317 -17 378 -17 m 438 493 q 512 567 479 524 q 544 674 544 611 q 515 760 544 728 q 433 793 485 793 q 342 758 381 793 q 303 660 303 724 q 338 563 303 599 q 438 493 374 526 m 326 89 q 386 99 357 89 q 438 128 415 108 q 473 175 460 147 q 486 240 486 203 q 473 298 486 272 q 436 345 460 324 q 381 385 413 367 q 313 425 349 404 q 221 344 257 390 q 185 231 185 297 q 224 128 185 167 q 326 89 264 89 z "},"9":{"ha":686,"x_min":19,"x_max":654,"o":"m 350 446 q 424 467 381 446 q 514 546 468 488 q 515 575 515 561 q 515 604 515 589 q 480 738 515 689 q 386 788 444 788 q 323 769 351 788 q 274 723 294 751 q 243 658 254 694 q 232 588 232 622 q 262 483 232 521 q 350 446 292 446 m 225 -17 q 155 -6 186 -17 q 99 21 124 4 q 53 58 74 38 q 19 100 33 79 l 117 179 q 166 124 138 144 q 235 104 194 104 q 322 126 281 104 q 399 191 364 149 q 460 294 433 233 q 501 433 486 356 q 406 364 460 388 q 313 340 353 340 q 156 399 217 340 q 94 571 94 458 q 117 694 94 635 q 179 800 139 754 q 274 873 219 846 q 393 900 328 900 q 501 877 453 900 q 584 814 550 854 q 636 717 618 774 q 654 593 654 661 q 622 345 654 457 q 532 153 589 233 q 397 28 475 72 q 225 -17 318 -17 z "}," ":{"ha":271,"x_min":0,"x_max":0,"o":""},"A":{"ha":735,"x_min":-81,"x_max":681,"o":"m 335 507 l 267 369 l 499 369 l 489 507 q 480 646 485 578 q 472 789 475 714 l 467 789 q 402 646 433 714 q 335 507 371 578 m -81 0 l 406 908 l 583 908 l 681 0 l 525 0 l 507 256 l 211 256 l 85 0 l -81 0 z "},"B":{"ha":825,"x_min":44,"x_max":779,"o":"m 44 0 l 225 908 l 486 908 q 699 858 619 908 q 779 704 779 807 q 763 624 779 661 q 720 558 747 588 q 657 508 693 529 q 579 478 621 488 l 578 472 q 695 411 651 454 q 739 294 739 368 q 709 160 739 217 q 627 69 679 104 q 505 17 575 33 q 354 0 435 0 l 44 0 m 299 528 l 410 528 q 574 569 522 528 q 626 681 626 611 q 585 763 626 733 q 456 792 543 792 l 353 792 l 299 528 m 217 117 l 354 117 q 531 158 467 117 q 594 288 594 200 q 550 386 594 350 q 418 422 506 422 l 278 422 l 217 117 z "},"C":{"ha":776,"x_min":79,"x_max":788,"o":"m 413 -17 q 273 10 335 -17 q 168 85 211 36 q 102 202 125 133 q 79 357 79 271 q 115 572 79 469 q 213 753 150 675 q 364 878 276 832 q 556 925 451 925 q 693 887 635 925 q 788 786 751 849 l 685 707 q 625 772 658 749 q 547 796 592 796 q 420 758 478 796 q 321 660 363 721 q 256 524 279 600 q 232 368 232 447 q 244 264 232 311 q 281 183 256 217 q 347 131 307 150 q 442 113 386 113 q 533 133 490 113 q 615 188 575 154 l 681 92 q 567 17 635 51 q 413 -17 500 -17 z "},"D":{"ha":839,"x_min":44,"x_max":803,"o":"m 44 0 l 225 908 l 410 908 q 701 817 600 908 q 803 553 803 726 q 767 321 803 424 q 667 147 732 218 q 512 38 603 76 q 308 0 421 0 l 44 0 m 218 121 l 306 121 q 445 149 382 121 q 554 232 508 178 q 625 365 600 286 q 650 543 650 443 q 586 726 650 665 q 406 788 522 788 l 350 788 l 218 121 z "},"E":{"ha":715,"x_min":44,"x_max":746,"o":"m 44 0 l 225 908 l 746 908 l 721 782 l 349 782 l 300 538 l 615 538 l 590 411 l 276 411 l 218 126 l 601 126 l 576 0 l 44 0 z "},"F":{"ha":679,"x_min":44,"x_max":746,"o":"m 44 0 l 225 908 l 746 908 l 721 782 l 349 782 l 296 514 l 611 514 l 586 388 l 272 388 l 194 0 l 44 0 z "},"G":{"ha":833,"x_min":79,"x_max":810,"o":"m 426 -17 q 169 83 260 -17 q 79 357 79 183 q 115 573 79 469 q 215 754 150 676 q 369 878 279 832 q 569 925 460 925 q 714 887 654 925 q 810 786 774 849 l 707 707 q 646 772 681 749 q 561 796 611 796 q 426 758 488 796 q 322 660 365 721 q 256 524 279 600 q 232 368 232 447 q 244 265 232 311 q 282 183 256 218 q 350 130 308 149 q 451 111 392 111 q 522 123 490 111 q 578 154 554 135 l 622 368 l 454 368 l 478 490 l 779 490 l 697 76 q 578 10 647 36 q 426 -17 510 -17 z "},"H":{"ha":886,"x_min":44,"x_max":883,"o":"m 44 0 l 225 908 l 375 908 l 300 540 l 660 540 l 733 908 l 883 908 l 701 0 l 551 0 l 635 410 l 275 410 l 194 0 l 44 0 z "},"I":{"ha":379,"x_min":44,"x_max":375,"o":"m 44 0 l 225 908 l 375 908 l 194 0 l 44 0 z "},"J":{"ha":658,"x_min":-7,"x_max":663,"o":"m 233 -17 q 90 20 153 -17 q -7 122 28 57 l 88 210 q 144 140 107 167 q 233 113 181 113 q 334 159 296 113 q 390 293 372 206 l 513 908 l 663 908 l 535 269 q 499 156 524 208 q 438 66 475 104 q 350 6 401 28 q 233 -17 299 -17 z "},"K":{"ha":808,"x_min":44,"x_max":861,"o":"m 44 0 l 225 908 l 375 908 l 293 497 l 299 497 l 696 908 l 861 908 l 526 547 l 731 0 l 575 0 l 415 453 l 251 286 l 194 0 l 44 0 z "},"L":{"ha":668,"x_min":44,"x_max":582,"o":"m 44 0 l 225 908 l 375 908 l 219 126 l 582 126 l 557 0 l 44 0 z "},"M":{"ha":1004,"x_min":44,"x_max":1001,"o":"m 44 0 l 225 908 l 392 908 l 464 454 l 490 279 l 496 279 l 586 454 l 836 908 l 1001 908 l 819 0 l 678 0 l 768 436 q 784 505 775 468 q 803 579 793 542 q 822 653 813 617 q 842 721 832 689 l 838 721 l 726 515 l 486 89 l 417 89 l 342 515 l 313 721 l 307 721 q 291 578 300 657 q 269 436 282 500 l 182 0 l 44 0 z "},"N":{"ha":876,"x_min":44,"x_max":875,"o":"m 44 0 l 225 908 l 372 908 l 550 382 l 603 186 l 608 186 q 625 339 617 257 q 649 496 633 421 l 731 908 l 875 908 l 693 0 l 547 0 l 371 525 l 318 724 l 313 724 q 294 571 304 650 q 269 417 285 492 l 188 0 l 44 0 z "},"O":{"ha":899,"x_min":81,"x_max":861,"o":"m 408 -17 q 271 10 332 -17 q 167 86 210 36 q 103 207 125 136 q 81 365 81 278 q 116 579 81 478 q 213 758 151 681 q 356 880 274 835 q 533 925 439 925 q 671 899 610 925 q 774 822 732 872 q 839 701 817 772 q 861 543 861 631 q 826 329 861 431 q 731 151 792 228 q 587 28 669 74 q 408 -17 504 -17 m 417 113 q 530 149 476 113 q 623 243 583 185 q 685 377 663 301 q 708 532 708 453 q 663 725 708 654 q 525 796 617 796 q 411 760 464 796 q 319 665 358 724 q 258 531 281 607 q 235 376 235 456 q 280 183 235 254 q 417 113 325 113 z "},"P":{"ha":788,"x_min":44,"x_max":796,"o":"m 44 0 l 225 908 l 497 908 q 617 896 563 908 q 712 855 672 883 q 774 783 751 826 q 796 676 796 739 q 765 524 796 588 q 678 419 733 460 q 549 360 624 379 q 388 340 474 340 l 261 340 l 194 0 l 44 0 m 286 460 l 400 460 q 584 509 521 460 q 647 656 647 558 q 601 758 647 726 q 469 789 556 789 l 350 789 l 286 460 z "},"Q":{"ha":899,"x_min":81,"x_max":861,"o":"m 417 113 q 530 149 476 113 q 623 243 583 185 q 685 377 663 301 q 708 532 708 453 q 663 725 708 654 q 525 796 617 796 q 411 760 464 796 q 319 665 358 724 q 258 531 281 607 q 235 376 235 456 q 280 183 235 254 q 417 113 325 113 m 654 -235 q 437 -178 526 -235 q 306 -3 347 -122 q 140 124 199 29 q 81 365 81 219 q 116 579 81 478 q 213 758 151 681 q 356 880 274 835 q 533 925 439 925 q 671 899 610 925 q 774 822 732 872 q 839 701 817 772 q 861 543 861 631 q 831 344 861 439 q 747 174 800 249 q 620 49 693 99 q 461 -12 547 0 q 543 -89 489 -65 q 664 -112 597 -112 q 708 -110 688 -112 q 747 -101 728 -107 l 756 -217 q 705 -230 732 -225 q 654 -235 678 -235 z "},"R":{"ha":800,"x_min":44,"x_max":790,"o":"m 44 0 l 225 908 l 493 908 q 613 897 558 908 q 706 858 667 885 q 768 788 746 831 q 790 686 790 746 q 772 572 790 622 q 719 482 753 521 q 641 417 686 443 q 542 376 596 390 l 692 0 l 532 0 l 400 358 l 265 358 l 194 0 l 44 0 m 290 478 l 406 478 q 582 528 522 478 q 642 665 642 579 q 597 760 642 732 q 464 789 551 789 l 350 789 l 290 478 z "},"S":{"ha":719,"x_min":11,"x_max":725,"o":"m 325 -17 q 153 22 233 -17 q 11 149 74 61 l 119 232 q 215 144 160 176 q 338 111 271 111 q 454 148 408 111 q 500 249 500 185 q 470 320 500 292 q 390 379 440 349 l 294 438 q 196 526 235 474 q 157 658 157 578 q 180 761 157 713 q 244 847 203 810 q 340 904 285 883 q 458 925 394 925 q 608 888 540 925 q 725 792 676 851 l 629 704 q 551 769 594 743 q 450 796 507 796 q 347 758 383 796 q 311 674 311 721 q 342 602 311 629 q 426 543 374 575 l 524 485 q 623 397 590 446 q 656 269 656 349 q 632 156 656 208 q 565 65 608 104 q 460 5 521 26 q 325 -17 399 -17 z "},"T":{"ha":724,"x_min":122,"x_max":800,"o":"m 218 0 l 374 781 l 122 781 l 147 908 l 800 908 l 775 781 l 524 781 l 368 0 l 218 0 z "},"U":{"ha":875,"x_min":107,"x_max":878,"o":"m 124 422 l 221 908 l 371 908 l 269 400 q 257 293 257 342 q 294 159 257 206 q 418 113 332 113 q 542 171 490 113 q 622 367 594 229 l 731 908 l 878 908 l 768 367 q 638 74 728 164 q 413 -17 547 -17 q 184 58 261 -17 q 107 285 107 133 q 112 351 107 315 q 124 422 117 388 z "},"V":{"ha":731,"x_min":111,"x_max":843,"o":"m 192 0 l 111 908 l 267 908 l 297 433 q 306 286 301 360 q 313 138 310 213 l 318 138 q 385 285 351 211 q 453 433 419 360 l 681 908 l 843 908 l 372 0 l 192 0 z "},"W":{"ha":1076,"x_min":119,"x_max":1156,"o":"m 119 0 l 142 908 l 294 908 l 274 442 q 264 295 268 368 q 253 147 260 222 l 258 147 q 321 296 289 222 q 382 442 353 369 l 589 908 l 718 908 l 726 442 q 722 147 726 294 l 728 147 q 782 296 754 222 q 836 442 810 369 l 1011 908 l 1156 908 l 792 0 l 603 0 l 600 494 q 603 598 600 542 q 608 707 606 654 l 603 707 q 562 601 583 654 q 518 494 540 547 l 306 0 l 119 0 z "},"X":{"ha":728,"x_min":-50,"x_max":800,"o":"m -50 0 l 293 469 l 147 908 l 313 908 l 374 697 q 390 633 382 665 q 408 561 397 600 l 414 561 q 460 633 438 599 q 503 700 483 668 l 640 908 l 800 908 l 475 461 l 633 0 l 468 0 l 401 226 q 381 296 390 261 q 361 369 372 331 l 357 369 q 307 294 331 331 q 261 222 283 258 l 110 0 l -50 0 z "},"Y":{"ha":675,"x_min":114,"x_max":792,"o":"m 192 0 l 260 342 l 114 908 l 268 908 l 319 669 q 339 569 331 617 q 358 469 347 522 l 364 469 q 422 571 394 522 q 482 671 450 619 l 631 908 l 792 908 l 410 342 l 342 0 l 192 0 z "},"Z":{"ha":721,"x_min":-4,"x_max":761,"o":"m -4 0 l 15 90 l 557 782 l 171 782 l 196 908 l 761 908 l 743 818 l 206 126 l 631 126 l 604 0 l -4 0 z "},"a":{"ha":756,"x_min":49,"x_max":724,"o":"m 243 -17 q 101 47 153 -17 q 49 232 49 111 q 79 415 49 329 q 161 563 110 500 q 278 663 213 626 q 415 699 344 699 q 507 673 465 699 q 572 603 549 647 l 575 603 l 604 682 l 724 682 l 588 0 l 465 0 l 472 94 l 468 94 q 360 14 419 44 q 243 -17 301 -17 m 304 106 q 395 132 349 106 q 483 221 442 158 l 539 493 q 485 557 515 538 q 424 576 456 576 q 340 551 381 576 q 269 481 300 525 q 221 377 239 436 q 203 253 203 318 q 230 142 203 178 q 304 106 257 106 z "},"b":{"ha":757,"x_min":31,"x_max":706,"o":"m 154 0 l 31 0 l 228 981 l 376 981 l 328 739 l 294 608 l 297 608 q 400 673 346 647 q 511 699 454 699 q 654 635 603 699 q 706 450 706 572 q 675 267 706 351 q 593 119 644 182 q 476 19 542 56 q 340 -17 411 -17 q 249 9 289 -17 q 186 79 210 35 l 183 79 l 154 0 m 450 576 q 363 552 410 576 q 276 478 315 528 l 218 189 q 269 125 240 144 q 331 106 299 106 q 414 131 374 106 q 485 201 454 157 q 534 305 515 246 q 553 431 553 364 q 525 541 553 506 q 450 576 497 576 z "},"c":{"ha":610,"x_min":46,"x_max":617,"o":"m 306 -17 q 201 2 249 -17 q 119 56 154 21 q 65 143 85 92 q 46 261 46 194 q 77 433 46 353 q 162 572 108 513 q 287 665 215 631 q 438 699 358 699 q 544 674 500 699 q 617 615 589 649 l 533 525 q 486 565 510 553 q 428 578 463 578 q 340 553 382 578 q 267 485 299 528 q 217 387 236 443 q 199 267 199 331 q 233 147 199 189 q 336 104 267 104 q 408 120 376 104 q 465 157 439 136 l 529 63 q 437 9 490 35 q 306 -17 383 -17 z "},"d":{"ha":750,"x_min":49,"x_max":785,"o":"m 569 608 l 589 739 l 636 981 l 785 981 l 588 0 l 465 0 l 472 94 l 468 94 q 360 14 419 44 q 243 -17 301 -17 q 101 47 153 -17 q 49 232 49 111 q 79 415 49 329 q 161 563 110 500 q 278 663 213 626 q 415 699 344 699 q 504 674 465 699 q 565 608 543 649 l 569 608 m 304 106 q 394 132 349 106 q 483 221 440 158 l 539 493 q 485 557 515 538 q 424 576 456 576 q 340 551 381 576 q 269 481 300 525 q 221 377 239 436 q 203 253 203 318 q 230 142 203 178 q 304 106 257 106 z "},"e":{"ha":678,"x_min":46,"x_max":635,"o":"m 46 272 q 78 447 46 368 q 165 581 111 525 q 285 668 218 638 q 418 699 351 699 q 519 679 478 699 q 585 626 560 660 q 623 546 611 592 q 635 447 635 500 q 624 361 635 403 q 606 303 613 319 l 190 303 q 196 210 185 249 q 230 146 207 171 q 286 109 253 121 q 358 97 319 97 q 432 114 394 97 q 497 151 469 131 l 553 56 q 452 5 511 26 q 319 -17 393 -17 q 208 3 258 -17 q 122 59 158 22 q 66 149 86 96 q 46 272 46 203 m 203 397 l 504 397 q 509 426 507 411 q 511 457 511 440 q 487 545 511 507 q 400 583 463 583 q 283 534 338 583 q 203 397 228 485 z "},"f":{"ha":424,"x_min":56,"x_max":583,"o":"m 81 564 l 103 675 l 193 682 l 208 761 q 288 931 229 865 q 449 997 346 997 q 521 988 488 997 q 583 963 554 978 l 533 857 q 502 871 521 864 q 463 878 483 878 q 394 851 421 878 q 357 765 368 824 l 340 682 l 469 682 l 446 564 l 315 564 l 204 0 l 56 0 l 168 564 l 81 564 z "},"g":{"ha":747,"x_min":-10,"x_max":715,"o":"m 236 -303 q 108 -278 171 -303 q -10 -208 44 -253 l 57 -108 q 142 -162 96 -140 q 240 -183 188 -183 q 366 -138 318 -183 q 435 -11 414 -93 l 469 121 q 365 42 421 71 q 247 14 308 14 q 105 74 161 14 q 49 254 49 135 q 78 428 49 347 q 158 569 108 508 q 273 664 208 629 q 407 699 338 699 q 498 673 457 699 q 561 603 539 647 l 565 603 l 594 682 l 715 682 l 576 -10 q 460 -228 547 -154 q 236 -303 372 -303 m 301 138 q 390 162 342 138 q 478 240 438 186 l 529 493 q 476 557 506 538 q 415 576 447 576 q 335 552 374 576 q 267 486 297 528 q 220 390 238 444 q 203 274 203 335 q 230 171 203 204 q 301 138 257 138 z "},"h":{"ha":740,"x_min":31,"x_max":682,"o":"m 31 0 l 228 981 l 376 981 l 317 692 l 290 593 l 296 593 q 403 668 349 638 q 521 699 458 699 q 644 654 607 699 q 682 526 682 610 q 680 481 682 503 q 671 431 678 458 l 585 0 l 436 0 l 519 411 q 527 451 524 435 q 531 483 531 468 q 444 571 531 571 q 367 546 408 571 q 272 465 326 521 l 181 0 l 31 0 z "},"i":{"ha":349,"x_min":31,"x_max":378,"o":"m 31 0 l 168 682 l 317 682 l 181 0 l 31 0 m 278 803 q 219 823 246 803 q 193 881 193 843 q 222 949 193 921 q 293 978 251 978 q 351 958 325 978 q 378 900 378 938 q 349 831 378 858 q 278 803 319 803 z "},"j":{"ha":350,"x_min":-178,"x_max":381,"o":"m -58 -286 q -121 -280 -93 -286 q -178 -258 -149 -274 l -131 -150 q -69 -167 -104 -167 q -12 -137 -32 -167 q 22 -50 8 -108 l 169 682 l 318 682 l 171 -53 q 142 -146 160 -103 q 97 -220 124 -189 q 31 -269 69 -251 q -58 -286 -7 -286 m 281 803 q 221 823 247 803 q 194 881 194 843 q 224 949 194 921 q 294 978 253 978 q 354 958 328 978 q 381 900 381 938 q 351 831 381 858 q 281 803 321 803 z "},"k":{"ha":696,"x_min":31,"x_max":726,"o":"m 31 0 l 228 981 l 376 981 l 253 364 l 258 364 l 560 682 l 726 682 l 451 390 l 614 0 l 464 0 l 347 303 l 214 168 l 181 0 l 31 0 z "},"l":{"ha":364,"x_min":56,"x_max":376,"o":"m 171 -17 q 83 13 111 -17 q 56 94 56 42 q 65 167 56 126 l 228 981 l 376 981 l 213 160 q 210 143 210 149 q 210 133 210 138 q 233 104 210 104 q 244 105 240 104 q 258 108 249 106 l 256 -3 q 219 -13 240 -10 q 171 -17 199 -17 z "},"m":{"ha":1129,"x_min":31,"x_max":1064,"o":"m 31 0 l 167 682 l 288 682 l 281 586 l 286 586 q 396 665 339 632 q 508 699 453 699 q 575 689 547 699 q 622 663 603 679 q 651 623 640 646 q 667 572 661 600 q 788 665 728 631 q 903 699 847 699 q 1026 654 988 699 q 1064 526 1064 610 q 1061 481 1064 503 q 1053 431 1058 458 l 967 0 l 817 0 l 900 411 q 908 451 906 435 q 911 483 911 468 q 828 571 911 571 q 760 546 801 571 q 665 465 718 521 l 572 0 l 424 0 l 506 411 q 514 451 511 435 q 517 483 517 468 q 435 571 517 571 q 365 546 407 571 q 272 465 324 521 l 181 0 l 31 0 z "},"n":{"ha":749,"x_min":31,"x_max":682,"o":"m 31 0 l 167 682 l 288 682 l 281 586 l 286 586 q 398 665 340 632 q 521 699 456 699 q 644 654 607 699 q 682 526 682 610 q 680 481 682 503 q 671 431 678 458 l 585 0 l 436 0 l 519 411 q 527 451 524 435 q 531 483 531 468 q 444 571 531 571 q 367 546 408 571 q 272 465 326 521 l 181 0 l 31 0 z "},"o":{"ha":728,"x_min":47,"x_max":678,"o":"m 301 -17 q 197 3 244 -17 q 117 58 150 22 q 65 146 83 94 q 47 261 47 197 q 80 440 47 358 q 165 578 113 521 q 285 667 218 635 q 422 699 353 699 q 608 624 539 699 q 678 421 678 550 q 645 243 678 324 q 560 105 613 163 q 440 15 507 47 q 301 -17 372 -17 m 318 104 q 396 128 358 104 q 463 195 433 153 q 509 294 492 238 q 526 417 526 351 q 496 536 526 494 q 407 578 465 578 q 328 553 367 578 q 261 488 290 529 q 215 389 232 446 q 197 267 197 332 q 228 147 197 189 q 318 104 258 104 z "},"p":{"ha":756,"x_min":-24,"x_max":706,"o":"m 186 72 l 164 -67 l 125 -269 l -24 -269 l 168 682 l 289 682 l 286 599 l 290 599 q 396 670 339 642 q 511 699 453 699 q 654 635 603 699 q 706 450 706 571 q 675 267 706 351 q 593 119 644 182 q 476 19 542 56 q 340 -17 411 -17 q 253 8 292 -17 q 189 72 214 32 l 186 72 m 450 576 q 363 552 410 576 q 276 478 315 528 l 218 186 q 269 124 240 143 q 331 106 299 106 q 414 131 374 106 q 485 201 454 157 q 534 305 515 246 q 553 431 553 364 q 525 541 553 506 q 450 576 497 576 z "},"q":{"ha":756,"x_min":49,"x_max":724,"o":"m 425 -67 l 472 96 l 469 96 q 361 15 421 46 q 243 -17 301 -17 q 101 47 153 -17 q 49 232 49 111 q 79 415 49 329 q 161 563 110 500 q 278 663 213 626 q 415 699 344 699 q 507 673 465 699 q 572 603 549 647 l 575 603 l 604 682 l 724 682 l 533 -269 l 383 -269 l 425 -67 m 304 106 q 392 132 344 106 q 483 221 440 158 l 539 493 q 485 557 515 538 q 424 576 456 576 q 340 551 381 576 q 269 481 300 525 q 221 377 239 436 q 203 253 203 318 q 230 142 203 178 q 304 106 257 106 z "},"r":{"ha":504,"x_min":31,"x_max":560,"o":"m 31 0 l 167 682 l 288 682 l 275 550 l 281 550 q 375 656 321 614 q 492 699 429 699 q 560 686 532 699 l 510 556 q 481 565 497 563 q 446 567 464 567 q 350 529 397 567 q 261 413 303 492 l 181 0 l 31 0 z "},"s":{"ha":574,"x_min":-8,"x_max":556,"o":"m 231 -17 q 165 -7 199 -17 q 99 19 131 3 q 39 60 67 36 q -8 114 11 85 l 81 186 q 155 118 114 142 q 242 94 196 94 q 326 120 290 94 q 361 183 361 146 q 332 238 361 215 q 239 297 303 261 q 132 379 171 335 q 93 486 93 424 q 113 572 93 532 q 166 639 132 611 q 245 683 200 667 q 342 699 290 699 q 462 671 408 699 q 556 601 515 643 l 472 522 q 414 567 446 549 q 342 586 382 586 q 264 561 294 586 q 233 500 233 536 q 243 467 233 481 q 269 440 253 453 q 307 417 286 428 q 350 393 328 406 q 464 308 426 353 q 501 201 501 264 q 481 111 501 151 q 425 42 461 71 q 339 -1 389 14 q 231 -17 289 -17 z "},"t":{"ha":481,"x_min":74,"x_max":507,"o":"m 269 -17 q 133 31 174 -17 q 92 150 92 79 q 94 190 92 171 q 100 231 97 210 l 169 564 l 74 564 l 96 675 l 200 682 l 254 865 l 379 865 l 343 682 l 507 682 l 483 564 l 317 564 l 247 225 q 243 176 243 200 q 261 120 243 139 q 322 101 279 101 q 356 107 340 101 q 386 119 371 113 l 414 14 q 353 -7 389 3 q 269 -17 317 -17 z "},"u":{"ha":746,"x_min":65,"x_max":711,"o":"m 711 682 l 576 0 l 456 0 l 461 97 l 456 97 q 347 17 404 51 q 228 -17 290 -17 q 103 28 142 -17 q 65 156 65 74 q 68 202 65 179 q 76 251 71 225 l 163 682 l 311 682 l 229 271 q 221 231 224 247 q 218 199 218 214 q 303 111 218 111 q 471 217 371 111 l 563 682 l 711 682 z "},"v":{"ha":658,"x_min":82,"x_max":706,"o":"m 175 0 l 82 682 l 231 682 l 267 319 q 275 217 272 268 q 281 113 278 165 l 286 113 q 334 216 310 165 q 382 319 358 267 l 558 682 l 706 682 l 350 0 l 175 0 z "},"w":{"ha":1011,"x_min":99,"x_max":1026,"o":"m 139 0 l 99 682 l 246 682 l 257 317 q 257 219 258 268 q 256 121 256 171 l 261 121 q 299 219 281 171 q 340 317 318 268 l 499 682 l 635 682 l 653 317 q 654 219 654 268 q 656 121 654 171 l 661 121 q 698 219 681 171 q 736 317 715 268 l 888 682 l 1026 682 l 726 0 l 549 0 l 536 328 q 535 426 536 376 q 535 529 535 476 l 529 529 q 491 426 510 476 q 453 328 472 376 l 313 0 l 139 0 z "},"x":{"ha":639,"x_min":-58,"x_max":692,"o":"m -58 0 l 239 364 l 115 682 l 267 682 l 317 549 q 335 490 326 518 q 353 433 343 463 l 358 433 q 398 490 378 461 q 438 549 418 519 l 532 682 l 692 682 l 418 331 l 550 0 l 397 0 l 346 139 q 324 201 335 169 q 301 261 313 232 l 296 261 q 255 202 276 232 q 210 140 233 172 l 103 0 l -58 0 z "},"y":{"ha":658,"x_min":-67,"x_max":710,"o":"m 21 -281 q -22 -274 4 -281 q -67 -256 -47 -267 l -19 -147 q 31 -161 4 -161 q 115 -127 75 -161 q 183 -35 156 -93 l 204 7 l 86 682 l 235 682 l 278 338 q 288 237 283 292 q 294 133 292 182 l 300 133 q 348 235 324 182 q 396 338 372 289 l 565 682 l 710 682 l 326 -36 q 262 -137 294 -92 q 193 -214 229 -182 q 115 -263 157 -246 q 21 -281 72 -281 z "},"z":{"ha":593,"x_min":-14,"x_max":619,"o":"m -14 0 l 3 85 l 408 564 l 131 564 l 154 682 l 619 682 l 603 596 l 196 118 l 517 118 l 493 0 l -14 0 z "},"À":{"ha":735,"x_min":-81,"x_max":681,"o":"m 335 507 l 267 369 l 499 369 l 489 507 q 480 646 485 578 q 472 789 475 714 l 467 789 q 402 646 433 714 q 335 507 371 578 m -81 0 l 406 908 l 583 908 l 681 0 l 525 0 l 507 256 l 211 256 l 85 0 l -81 0 m 531 950 l 324 1132 l 428 1226 l 615 1024 l 531 950 z "},"Á":{"ha":735,"x_min":-81,"x_max":721,"o":"m 335 507 l 267 369 l 499 369 l 489 507 q 480 646 485 578 q 472 789 475 714 l 467 789 q 402 646 433 714 q 335 507 371 578 m -81 0 l 406 908 l 583 908 l 681 0 l 525 0 l 507 256 l 211 256 l 85 0 l -81 0 m 460 964 l 401 1050 l 651 1217 l 721 1106 l 460 964 z "},"Â":{"ha":735,"x_min":-81,"x_max":718,"o":"m 335 507 l 267 369 l 499 369 l 489 507 q 480 646 485 578 q 472 789 475 714 l 467 789 q 402 646 433 714 q 335 507 371 578 m -81 0 l 406 908 l 583 908 l 681 0 l 525 0 l 507 256 l 211 256 l 85 0 l -81 0 m 339 961 l 276 1011 l 439 1161 l 611 1161 l 718 1007 l 643 963 l 521 1085 l 515 1085 l 339 961 z "},"Ã":{"ha":735,"x_min":-81,"x_max":779,"o":"m 335 507 l 267 369 l 499 369 l 489 507 q 480 646 485 578 q 472 789 475 714 l 467 789 q 402 646 433 714 q 335 507 371 578 m -81 0 l 406 908 l 583 908 l 681 0 l 525 0 l 507 256 l 211 256 l 85 0 l -81 0 m 589 972 q 528 986 553 972 q 483 1017 503 1000 q 447 1049 464 1035 q 410 1063 429 1063 q 367 1043 386 1063 q 336 982 349 1024 l 235 990 q 306 1130 254 1085 q 425 1175 357 1175 q 486 1161 461 1175 q 531 1131 511 1147 q 567 1100 550 1114 q 604 1086 583 1086 q 678 1167 651 1086 l 779 1158 q 708 1018 760 1064 q 589 972 657 972 z "},"Ä":{"ha":735,"x_min":-81,"x_max":719,"o":"m 335 507 l 267 369 l 499 369 l 489 507 q 480 646 485 578 q 472 789 475 714 l 467 789 q 402 646 433 714 q 335 507 371 578 m -81 0 l 406 908 l 583 908 l 681 0 l 525 0 l 507 256 l 211 256 l 85 0 l -81 0 m 358 983 q 310 1001 329 983 q 290 1051 290 1019 q 315 1114 290 1086 q 376 1142 340 1142 q 424 1124 404 1142 q 444 1074 444 1106 q 419 1012 444 1040 q 358 983 394 983 m 633 983 q 585 1001 604 983 q 565 1051 565 1019 q 590 1114 565 1086 q 651 1142 615 1142 q 699 1124 679 1142 q 719 1074 719 1106 q 694 1012 719 1040 q 633 983 669 983 z "},"Ā":{"ha":735,"x_min":-81,"x_max":701,"o":"m 335 507 l 267 369 l 499 369 l 489 507 q 480 646 485 578 q 472 789 475 714 l 467 789 q 402 646 433 714 q 335 507 371 578 m -81 0 l 406 908 l 583 908 l 681 0 l 525 0 l 507 256 l 211 256 l 85 0 l -81 0 m 304 1006 l 324 1106 l 701 1106 l 682 1006 l 304 1006 z "},"Ă":{"ha":735,"x_min":-81,"x_max":738,"o":"m 335 507 l 267 369 l 499 369 l 489 507 q 480 646 485 578 q 472 789 475 714 l 467 789 q 402 646 433 714 q 335 507 371 578 m -81 0 l 406 908 l 583 908 l 681 0 l 525 0 l 507 256 l 211 256 l 85 0 l -81 0 m 489 974 q 346 1024 389 974 q 307 1158 303 1075 l 401 1174 q 428 1099 401 1128 q 507 1069 454 1069 q 595 1099 560 1069 q 650 1174 631 1128 l 738 1158 q 652 1024 714 1075 q 489 974 590 974 z "},"Å":{"ha":735,"x_min":-81,"x_max":681,"o":"m 335 507 l 267 369 l 499 369 l 489 507 q 480 646 485 578 q 472 789 475 714 l 467 789 q 402 646 433 714 q 335 507 371 578 m -81 0 l 406 908 l 583 908 l 681 0 l 525 0 l 507 256 l 211 256 l 85 0 l -81 0 m 500 969 q 406 997 446 969 q 365 1085 365 1025 q 378 1140 365 1114 q 412 1187 390 1167 q 463 1218 433 1207 q 525 1229 492 1229 q 576 1222 551 1229 q 619 1201 600 1215 q 649 1166 638 1188 q 660 1115 660 1144 q 647 1058 660 1085 q 613 1012 635 1032 q 563 981 592 992 q 500 969 533 969 m 503 1032 q 554 1054 532 1032 q 576 1108 576 1076 q 563 1151 576 1135 q 522 1167 549 1167 q 470 1144 492 1167 q 449 1090 449 1122 q 463 1049 449 1065 q 503 1032 476 1032 z "},"Ǎ":{"ha":735,"x_min":-81,"x_max":733,"o":"m 335 507 l 267 369 l 499 369 l 489 507 q 480 646 485 578 q 472 789 475 714 l 467 789 q 402 646 433 714 q 335 507 371 578 m -81 0 l 406 908 l 583 908 l 681 0 l 525 0 l 507 256 l 211 256 l 85 0 l -81 0 m 399 978 l 293 1133 l 367 1178 l 489 1056 l 494 1056 l 671 1178 l 733 1128 l 571 978 l 399 978 z "},"Ạ":{"ha":735,"x_min":-81,"x_max":681,"o":"m 335 507 l 267 369 l 499 369 l 489 507 q 480 646 485 578 q 472 789 475 714 l 467 789 q 402 646 433 714 q 335 507 371 578 m -81 0 l 406 908 l 583 908 l 681 0 l 525 0 l 507 256 l 211 256 l 85 0 l -81 0 m 271 -296 q 211 -276 238 -296 q 185 -218 185 -256 q 215 -149 185 -178 q 285 -121 244 -121 q 344 -141 318 -121 q 371 -199 371 -161 q 342 -268 371 -240 q 271 -296 313 -296 z "},"Ả":{"ha":735,"x_min":-81,"x_max":681,"o":"m 335 507 l 267 369 l 499 369 l 489 507 q 480 646 485 578 q 472 789 475 714 l 467 789 q 402 646 433 714 q 335 507 371 578 m -81 0 l 406 908 l 583 908 l 681 0 l 525 0 l 507 256 l 211 256 l 85 0 l -81 0 m 425 964 l 424 1032 q 478 1050 456 1039 q 503 1083 500 1061 q 483 1120 507 1107 q 400 1136 458 1133 l 435 1221 q 590 1187 544 1218 q 625 1101 636 1156 q 599 1044 618 1068 q 553 1004 581 1021 q 493 978 526 988 q 425 964 460 968 z "},"Ấ":{"ha":735,"x_min":-81,"x_max":851,"o":"m 335 507 l 267 369 l 499 369 l 489 507 q 480 646 485 578 q 472 789 475 714 l 467 789 q 402 646 433 714 q 335 507 371 578 m -81 0 l 406 908 l 583 908 l 681 0 l 525 0 l 507 256 l 211 256 l 85 0 l -81 0 m 361 961 l 303 1007 l 454 1139 l 593 1139 l 696 1006 l 625 961 l 515 1058 l 510 1058 l 361 961 m 689 1063 l 647 1124 l 807 1233 l 851 1160 l 689 1063 z "},"Ầ":{"ha":735,"x_min":-81,"x_max":696,"o":"m 335 507 l 267 369 l 499 369 l 489 507 q 480 646 485 578 q 472 789 475 714 l 467 789 q 402 646 433 714 q 335 507 371 578 m -81 0 l 406 908 l 583 908 l 681 0 l 525 0 l 507 256 l 211 256 l 85 0 l -81 0 m 361 961 l 303 1007 l 454 1139 l 593 1139 l 696 1006 l 625 961 l 515 1058 l 510 1058 l 361 961 m 321 1065 l 196 1179 l 264 1240 l 381 1115 l 321 1065 z "},"Ẩ":{"ha":735,"x_min":-81,"x_max":854,"o":"m 335 507 l 267 369 l 499 369 l 489 507 q 480 646 485 578 q 472 789 475 714 l 467 789 q 402 646 433 714 q 335 507 371 578 m -81 0 l 406 908 l 583 908 l 681 0 l 525 0 l 507 256 l 211 256 l 85 0 l -81 0 m 361 961 l 303 1007 l 454 1139 l 593 1139 l 696 1006 l 625 961 l 515 1058 l 510 1058 l 361 961 m 681 1046 l 675 1101 q 716 1117 699 1107 q 736 1146 733 1126 q 723 1181 742 1169 q 651 1196 704 1193 l 678 1267 q 815 1235 776 1263 q 844 1160 854 1207 q 786 1077 833 1103 q 681 1046 739 1051 z "},"Ẫ":{"ha":735,"x_min":-81,"x_max":758,"o":"m 335 507 l 267 369 l 499 369 l 489 507 q 480 646 485 578 q 472 789 475 714 l 467 789 q 402 646 433 714 q 335 507 371 578 m -81 0 l 406 908 l 583 908 l 681 0 l 525 0 l 507 256 l 211 256 l 85 0 l -81 0 m 360 961 l 303 1007 l 453 1131 l 592 1131 l 696 1006 l 624 961 l 514 1050 l 508 1050 l 360 961 m 614 1165 q 563 1176 583 1165 q 525 1198 542 1186 q 494 1220 508 1210 q 461 1231 479 1231 q 403 1171 419 1231 l 324 1181 q 374 1284 339 1247 q 468 1321 410 1321 q 519 1310 499 1321 q 557 1288 540 1300 q 588 1266 574 1276 q 621 1256 603 1256 q 681 1315 661 1256 l 758 1306 q 708 1202 743 1239 q 614 1165 672 1165 z "},"Ậ":{"ha":735,"x_min":-81,"x_max":718,"o":"m 335 507 l 267 369 l 499 369 l 489 507 q 480 646 485 578 q 472 789 475 714 l 467 789 q 402 646 433 714 q 335 507 371 578 m -81 0 l 406 908 l 583 908 l 681 0 l 525 0 l 507 256 l 211 256 l 85 0 l -81 0 m 339 961 l 276 1011 l 439 1161 l 611 1161 l 718 1007 l 643 963 l 521 1085 l 515 1085 l 339 961 m 271 -296 q 211 -276 238 -296 q 185 -218 185 -256 q 215 -149 185 -178 q 285 -121 244 -121 q 344 -141 318 -121 q 371 -199 371 -161 q 342 -268 371 -240 q 271 -296 313 -296 z "},"Ắ":{"ha":735,"x_min":-81,"x_max":739,"o":"m 335 507 l 267 369 l 499 369 l 489 507 q 480 646 485 578 q 472 789 475 714 l 467 789 q 402 646 433 714 q 335 507 371 578 m -81 0 l 406 908 l 583 908 l 681 0 l 525 0 l 507 256 l 211 256 l 85 0 l -81 0 m 490 974 q 347 1024 390 974 q 308 1158 304 1075 l 394 1174 q 423 1092 396 1124 q 507 1061 450 1061 q 602 1092 564 1061 q 660 1174 640 1124 l 739 1158 q 653 1024 715 1075 q 490 974 592 974 m 522 1133 l 453 1192 l 617 1354 l 704 1282 l 522 1133 z "},"Ằ":{"ha":735,"x_min":-81,"x_max":739,"o":"m 335 507 l 267 369 l 499 369 l 489 507 q 480 646 485 578 q 472 789 475 714 l 467 789 q 402 646 433 714 q 335 507 371 578 m -81 0 l 406 908 l 583 908 l 681 0 l 525 0 l 507 256 l 211 256 l 85 0 l -81 0 m 490 974 q 347 1024 390 974 q 308 1158 304 1075 l 394 1174 q 423 1092 396 1124 q 507 1061 450 1061 q 602 1092 564 1061 q 660 1174 640 1124 l 739 1158 q 653 1024 715 1075 q 490 974 592 974 m 515 1126 l 390 1301 l 500 1356 l 601 1172 l 515 1126 z "},"Ẳ":{"ha":735,"x_min":-81,"x_max":740,"o":"m 335 507 l 267 369 l 499 369 l 489 507 q 480 646 485 578 q 472 789 475 714 l 467 789 q 402 646 433 714 q 335 507 371 578 m -81 0 l 406 908 l 583 908 l 681 0 l 525 0 l 507 256 l 211 256 l 85 0 l -81 0 m 489 974 q 346 1024 389 974 q 310 1158 303 1075 l 394 1174 q 422 1092 394 1124 q 507 1061 450 1061 q 601 1092 563 1061 q 660 1174 640 1124 l 740 1158 q 653 1024 715 1075 q 489 974 590 974 m 478 1115 l 474 1172 q 515 1188 497 1178 q 536 1217 532 1197 q 522 1251 540 1240 q 451 1267 503 1263 l 481 1338 q 616 1307 578 1335 q 646 1231 654 1279 q 624 1181 640 1201 q 586 1148 608 1161 q 536 1127 564 1135 q 478 1115 508 1119 z "},"Ẵ":{"ha":735,"x_min":-81,"x_max":761,"o":"m 335 507 l 267 369 l 499 369 l 489 507 q 480 646 485 578 q 472 789 475 714 l 467 789 q 402 646 433 714 q 335 507 371 578 m -81 0 l 406 908 l 583 908 l 681 0 l 525 0 l 507 256 l 211 256 l 85 0 l -81 0 m 494 979 q 352 1022 394 979 q 314 1131 310 1065 l 397 1144 q 424 1085 400 1111 q 510 1060 449 1060 q 603 1085 569 1060 q 651 1144 636 1111 l 731 1131 q 653 1022 711 1065 q 494 979 594 979 m 618 1174 q 566 1184 588 1174 q 527 1206 544 1194 q 495 1228 510 1218 q 463 1239 481 1239 q 427 1224 440 1239 q 404 1179 414 1208 l 325 1189 q 376 1292 340 1256 q 469 1329 411 1329 q 522 1319 500 1329 q 561 1297 544 1308 q 592 1274 578 1285 q 625 1264 607 1264 q 683 1324 667 1264 l 761 1314 q 711 1210 746 1247 q 618 1174 676 1174 z "},"Ặ":{"ha":735,"x_min":-81,"x_max":738,"o":"m 335 507 l 267 369 l 499 369 l 489 507 q 480 646 485 578 q 472 789 475 714 l 467 789 q 402 646 433 714 q 335 507 371 578 m -81 0 l 406 908 l 583 908 l 681 0 l 525 0 l 507 256 l 211 256 l 85 0 l -81 0 m 489 974 q 346 1024 389 974 q 307 1158 303 1075 l 401 1174 q 428 1099 401 1128 q 507 1069 454 1069 q 595 1099 560 1069 q 650 1174 631 1128 l 738 1158 q 652 1024 714 1075 q 489 974 590 974 m 271 -296 q 211 -276 238 -296 q 185 -218 185 -256 q 215 -149 185 -178 q 285 -121 244 -121 q 344 -141 318 -121 q 371 -199 371 -161 q 342 -268 371 -240 q 271 -296 313 -296 z "},"Ą":{"ha":735,"x_min":-81,"x_max":681,"o":"m 539 -300 q 453 -274 486 -300 q 419 -200 419 -249 q 433 -138 419 -168 q 465 -83 446 -108 q 508 -36 485 -57 q 553 0 532 -15 l 525 0 l 507 256 l 211 256 l 85 0 l -81 0 l 406 908 l 583 908 l 681 0 q 573 -76 606 -35 q 540 -153 540 -117 q 555 -189 540 -176 q 589 -201 569 -201 q 633 -187 610 -201 l 664 -264 q 602 -290 636 -281 q 539 -300 568 -300 m 335 507 l 267 369 l 499 369 l 489 507 q 480 646 485 578 q 472 789 475 714 l 467 789 q 402 646 433 714 q 335 507 371 578 z "},"Æ":{"ha":1140,"x_min":-47,"x_max":1169,"o":"m 454 518 l 353 360 l 554 360 l 642 797 l 638 797 q 545 657 590 725 q 454 518 500 589 m -47 0 l 564 908 l 1169 908 l 1144 782 l 788 782 l 739 538 l 1040 538 l 1015 411 l 715 411 l 657 126 l 1026 126 l 1001 0 l 483 0 l 532 242 l 276 242 l 122 0 l -47 0 z "},"Ç":{"ha":776,"x_min":79,"x_max":788,"o":"m 413 -17 q 273 10 335 -17 q 168 85 211 36 q 102 202 125 133 q 79 357 79 271 q 115 572 79 469 q 213 753 150 675 q 364 878 276 832 q 556 925 451 925 q 693 887 635 925 q 788 786 751 849 l 685 707 q 625 772 658 749 q 547 796 592 796 q 420 758 478 796 q 321 660 363 721 q 256 524 279 600 q 232 368 232 447 q 244 264 232 311 q 281 183 256 217 q 347 131 307 150 q 442 113 386 113 q 533 133 490 113 q 615 188 575 154 l 681 92 q 567 17 635 51 q 413 -17 500 -17 m 204 -324 l 203 -256 q 322 -235 286 -251 q 363 -186 358 -218 q 344 -149 364 -162 q 267 -128 324 -135 l 354 4 l 451 4 l 394 -87 q 465 -122 444 -100 q 481 -182 485 -144 q 399 -286 472 -251 q 204 -324 326 -321 z "},"Ć":{"ha":776,"x_min":79,"x_max":814,"o":"m 413 -17 q 273 10 335 -17 q 168 85 211 36 q 102 202 125 133 q 79 357 79 271 q 115 572 79 469 q 213 753 150 675 q 364 878 276 832 q 556 925 451 925 q 693 887 635 925 q 788 786 751 849 l 685 707 q 625 772 658 749 q 547 796 592 796 q 420 758 478 796 q 321 660 363 721 q 256 524 279 600 q 232 368 232 447 q 244 264 232 311 q 281 183 256 217 q 347 131 307 150 q 442 113 386 113 q 533 133 490 113 q 615 188 575 154 l 681 92 q 567 17 635 51 q 413 -17 500 -17 m 553 964 l 494 1050 l 744 1217 l 814 1106 l 553 964 z "},"Ĉ":{"ha":776,"x_min":79,"x_max":811,"o":"m 413 -17 q 273 10 335 -17 q 168 85 211 36 q 102 202 125 133 q 79 357 79 271 q 115 572 79 469 q 213 753 150 675 q 364 878 276 832 q 556 925 451 925 q 693 887 635 925 q 788 786 751 849 l 685 707 q 625 772 658 749 q 547 796 592 796 q 420 758 478 796 q 321 660 363 721 q 256 524 279 600 q 232 368 232 447 q 244 264 232 311 q 281 183 256 217 q 347 131 307 150 q 442 113 386 113 q 533 133 490 113 q 615 188 575 154 l 681 92 q 567 17 635 51 q 413 -17 500 -17 m 432 961 l 369 1011 l 532 1161 l 704 1161 l 811 1007 l 736 963 l 614 1085 l 608 1085 l 432 961 z "},"Č":{"ha":776,"x_min":79,"x_max":826,"o":"m 413 -17 q 273 10 335 -17 q 168 85 211 36 q 102 202 125 133 q 79 357 79 271 q 115 572 79 469 q 213 753 150 675 q 364 878 276 832 q 556 925 451 925 q 693 887 635 925 q 788 786 751 849 l 685 707 q 625 772 658 749 q 547 796 592 796 q 420 758 478 796 q 321 660 363 721 q 256 524 279 600 q 232 368 232 447 q 244 264 232 311 q 281 183 256 217 q 347 131 307 150 q 442 113 386 113 q 533 133 490 113 q 615 188 575 154 l 681 92 q 567 17 635 51 q 413 -17 500 -17 m 492 978 l 386 1133 l 460 1178 l 582 1056 l 588 1056 l 764 1178 l 826 1128 l 664 978 l 492 978 z "},"Ċ":{"ha":776,"x_min":79,"x_max":788,"o":"m 413 -17 q 273 10 335 -17 q 168 85 211 36 q 102 202 125 133 q 79 357 79 271 q 115 572 79 469 q 213 753 150 675 q 364 878 276 832 q 556 925 451 925 q 693 887 635 925 q 788 786 751 849 l 685 707 q 625 772 658 749 q 547 796 592 796 q 420 758 478 796 q 321 660 363 721 q 256 524 279 600 q 232 368 232 447 q 244 264 232 311 q 281 183 256 217 q 347 131 307 150 q 442 113 386 113 q 533 133 490 113 q 615 188 575 154 l 681 92 q 567 17 635 51 q 413 -17 500 -17 m 592 985 q 532 1004 558 985 q 506 1063 506 1024 q 535 1131 506 1103 q 606 1160 565 1160 q 665 1139 639 1160 q 692 1081 692 1118 q 663 1012 692 1039 q 592 985 633 985 z "},"Ď":{"ha":839,"x_min":44,"x_max":803,"o":"m 44 0 l 225 908 l 410 908 q 701 817 600 908 q 803 553 803 726 q 767 321 803 424 q 667 147 732 218 q 512 38 603 76 q 308 0 421 0 l 44 0 m 218 121 l 306 121 q 445 149 382 121 q 554 232 508 178 q 625 365 600 286 q 650 543 650 443 q 586 726 650 665 q 406 788 522 788 l 350 788 l 218 121 m 439 978 l 333 1133 l 407 1178 l 529 1056 l 535 1056 l 711 1178 l 774 1128 l 611 978 l 439 978 z "},"Ḍ":{"ha":839,"x_min":44,"x_max":803,"o":"m 44 0 l 225 908 l 410 908 q 701 817 600 908 q 803 553 803 726 q 767 321 803 424 q 667 147 732 218 q 512 38 603 76 q 308 0 421 0 l 44 0 m 218 121 l 306 121 q 445 149 382 121 q 554 232 508 178 q 625 365 600 286 q 650 543 650 443 q 586 726 650 665 q 406 788 522 788 l 350 788 l 218 121 m 333 -296 q 274 -276 300 -296 q 247 -218 247 -256 q 277 -149 247 -178 q 347 -121 307 -121 q 407 -141 381 -121 q 433 -199 433 -161 q 404 -268 433 -240 q 333 -296 375 -296 z "},"Ḏ":{"ha":839,"x_min":44,"x_max":803,"o":"m 44 0 l 225 908 l 410 908 q 701 817 600 908 q 803 553 803 726 q 767 321 803 424 q 667 147 732 218 q 512 38 603 76 q 308 0 421 0 l 44 0 m 218 121 l 306 121 q 445 149 382 121 q 554 232 508 178 q 625 365 600 286 q 650 543 650 443 q 586 726 650 665 q 406 788 522 788 l 350 788 l 218 121 m 147 -236 l 167 -137 l 540 -137 l 522 -236 l 147 -236 z "},"Đ":{"ha":864,"x_min":58,"x_max":828,"o":"m 58 438 l 74 510 l 172 515 l 250 908 l 435 908 q 726 817 625 908 q 828 553 828 726 q 792 321 828 424 q 692 147 757 218 q 537 38 628 76 q 333 0 446 0 l 69 0 l 157 438 l 58 438 m 243 121 l 331 121 q 470 149 407 121 q 579 232 533 178 q 650 365 625 286 q 675 543 675 443 q 611 726 675 665 q 431 788 547 788 l 375 788 l 321 515 l 511 515 l 494 438 l 306 438 l 243 121 z "},"È":{"ha":715,"x_min":44,"x_max":746,"o":"m 44 0 l 225 908 l 746 908 l 721 782 l 349 782 l 300 538 l 615 538 l 590 411 l 276 411 l 218 126 l 601 126 l 576 0 l 44 0 m 540 950 l 333 1132 l 438 1226 l 625 1024 l 540 950 z "},"É":{"ha":715,"x_min":44,"x_max":746,"o":"m 44 0 l 225 908 l 746 908 l 721 782 l 349 782 l 300 538 l 615 538 l 590 411 l 276 411 l 218 126 l 601 126 l 576 0 l 44 0 m 469 964 l 411 1050 l 661 1217 l 731 1106 l 469 964 z "},"Ê":{"ha":715,"x_min":44,"x_max":746,"o":"m 44 0 l 225 908 l 746 908 l 721 782 l 349 782 l 300 538 l 615 538 l 590 411 l 276 411 l 218 126 l 601 126 l 576 0 l 44 0 m 349 961 l 286 1011 l 449 1161 l 621 1161 l 728 1007 l 653 963 l 531 1085 l 525 1085 l 349 961 z "},"Ě":{"ha":715,"x_min":44,"x_max":746,"o":"m 44 0 l 225 908 l 746 908 l 721 782 l 349 782 l 300 538 l 615 538 l 590 411 l 276 411 l 218 126 l 601 126 l 576 0 l 44 0 m 408 978 l 303 1133 l 376 1178 l 499 1056 l 504 1056 l 681 1178 l 743 1128 l 581 978 l 408 978 z "},"Ë":{"ha":715,"x_min":44,"x_max":746,"o":"m 44 0 l 225 908 l 746 908 l 721 782 l 349 782 l 300 538 l 615 538 l 590 411 l 276 411 l 218 126 l 601 126 l 576 0 l 44 0 m 368 983 q 319 1001 339 983 q 300 1051 300 1019 q 325 1114 300 1086 q 386 1142 350 1142 q 434 1124 414 1142 q 454 1074 454 1106 q 429 1012 454 1040 q 368 983 404 983 m 643 983 q 594 1001 614 983 q 575 1051 575 1019 q 600 1114 575 1086 q 661 1142 625 1142 q 709 1124 689 1142 q 729 1074 729 1106 q 704 1012 729 1040 q 643 983 679 983 z "},"Ē":{"ha":715,"x_min":44,"x_max":746,"o":"m 44 0 l 225 908 l 746 908 l 721 782 l 349 782 l 300 538 l 615 538 l 590 411 l 276 411 l 218 126 l 601 126 l 576 0 l 44 0 m 314 1006 l 333 1106 l 711 1106 l 692 1006 l 314 1006 z "},"Ĕ":{"ha":715,"x_min":44,"x_max":747,"o":"m 44 0 l 225 908 l 746 908 l 721 782 l 349 782 l 300 538 l 615 538 l 590 411 l 276 411 l 218 126 l 601 126 l 576 0 l 44 0 m 499 974 q 356 1024 399 974 q 317 1158 313 1075 l 411 1174 q 438 1099 411 1128 q 517 1069 464 1069 q 605 1099 569 1069 q 660 1174 640 1128 l 747 1158 q 662 1024 724 1075 q 499 974 600 974 z "},"Ė":{"ha":715,"x_min":44,"x_max":746,"o":"m 44 0 l 225 908 l 746 908 l 721 782 l 349 782 l 300 538 l 615 538 l 590 411 l 276 411 l 218 126 l 601 126 l 576 0 l 44 0 m 508 985 q 449 1004 475 985 q 422 1063 422 1024 q 452 1131 422 1103 q 522 1160 482 1160 q 582 1139 556 1160 q 608 1081 608 1118 q 579 1012 608 1039 q 508 985 550 985 z "},"Ẹ":{"ha":715,"x_min":44,"x_max":746,"o":"m 44 0 l 225 908 l 746 908 l 721 782 l 349 782 l 300 538 l 615 538 l 590 411 l 276 411 l 218 126 l 601 126 l 576 0 l 44 0 m 290 -296 q 231 -276 257 -296 q 204 -218 204 -256 q 234 -149 204 -178 q 304 -121 264 -121 q 364 -141 338 -121 q 390 -199 390 -161 q 361 -268 390 -240 q 290 -296 332 -296 z "},"Ẻ":{"ha":715,"x_min":44,"x_max":746,"o":"m 44 0 l 225 908 l 746 908 l 721 782 l 349 782 l 300 538 l 615 538 l 590 411 l 276 411 l 218 126 l 601 126 l 576 0 l 44 0 m 435 964 l 433 1032 q 488 1050 465 1039 q 513 1083 510 1061 q 492 1120 517 1107 q 410 1136 468 1133 l 444 1221 q 600 1187 554 1218 q 635 1101 646 1156 q 609 1044 628 1068 q 563 1004 590 1021 q 503 978 536 988 q 435 964 469 968 z "},"Ẽ":{"ha":715,"x_min":44,"x_max":789,"o":"m 44 0 l 225 908 l 746 908 l 721 782 l 349 782 l 300 538 l 615 538 l 590 411 l 276 411 l 218 126 l 601 126 l 576 0 l 44 0 m 599 972 q 538 986 563 972 q 493 1017 513 1000 q 456 1049 474 1035 q 419 1063 439 1063 q 377 1043 396 1063 q 346 982 358 1024 l 244 990 q 315 1130 264 1085 q 435 1175 367 1175 q 496 1161 471 1175 q 540 1131 521 1147 q 576 1100 560 1114 q 614 1086 593 1086 q 688 1167 661 1086 l 789 1158 q 718 1018 769 1064 q 599 972 667 972 z "},"Ế":{"ha":715,"x_min":44,"x_max":861,"o":"m 44 0 l 225 908 l 746 908 l 721 782 l 349 782 l 300 538 l 615 538 l 590 411 l 276 411 l 218 126 l 601 126 l 576 0 l 44 0 m 371 961 l 313 1007 l 464 1139 l 603 1139 l 706 1006 l 635 961 l 525 1058 l 519 1058 l 371 961 m 699 1063 l 657 1124 l 817 1233 l 861 1160 l 699 1063 z "},"Ề":{"ha":715,"x_min":44,"x_max":746,"o":"m 44 0 l 225 908 l 746 908 l 721 782 l 349 782 l 300 538 l 615 538 l 590 411 l 276 411 l 218 126 l 601 126 l 576 0 l 44 0 m 371 961 l 313 1007 l 464 1139 l 603 1139 l 706 1006 l 635 961 l 525 1058 l 519 1058 l 371 961 m 331 1065 l 206 1179 l 274 1240 l 390 1115 l 331 1065 z "},"Ể":{"ha":715,"x_min":44,"x_max":864,"o":"m 44 0 l 225 908 l 746 908 l 721 782 l 349 782 l 300 538 l 615 538 l 590 411 l 276 411 l 218 126 l 601 126 l 576 0 l 44 0 m 371 961 l 313 1007 l 464 1139 l 603 1139 l 706 1006 l 635 961 l 525 1058 l 519 1058 l 371 961 m 690 1046 l 685 1101 q 726 1117 708 1107 q 746 1146 743 1126 q 733 1181 751 1169 q 661 1196 714 1193 l 688 1267 q 825 1235 786 1263 q 854 1160 864 1207 q 796 1077 843 1103 q 690 1046 749 1051 z "},"Ễ":{"ha":715,"x_min":44,"x_max":768,"o":"m 44 0 l 225 908 l 746 908 l 721 782 l 349 782 l 300 538 l 615 538 l 590 411 l 276 411 l 218 126 l 601 126 l 576 0 l 44 0 m 369 961 l 313 1007 l 463 1131 l 601 1131 l 706 1006 l 633 961 l 524 1050 l 518 1050 l 369 961 m 624 1165 q 572 1176 593 1165 q 535 1198 551 1186 q 503 1220 518 1210 q 471 1231 489 1231 q 413 1171 429 1231 l 333 1181 q 384 1284 349 1247 q 478 1321 419 1321 q 529 1310 508 1321 q 567 1288 550 1300 q 598 1266 583 1276 q 631 1256 613 1256 q 690 1315 671 1256 l 768 1306 q 717 1202 753 1239 q 624 1165 682 1165 z "},"Ệ":{"ha":715,"x_min":44,"x_max":746,"o":"m 44 0 l 225 908 l 746 908 l 721 782 l 349 782 l 300 538 l 615 538 l 590 411 l 276 411 l 218 126 l 601 126 l 576 0 l 44 0 m 349 961 l 286 1011 l 449 1161 l 621 1161 l 728 1007 l 653 963 l 531 1085 l 525 1085 l 349 961 m 290 -296 q 231 -276 257 -296 q 204 -218 204 -256 q 234 -149 204 -178 q 304 -121 264 -121 q 364 -141 338 -121 q 390 -199 390 -161 q 361 -268 390 -240 q 290 -296 332 -296 z "},"Ę":{"ha":715,"x_min":44,"x_max":746,"o":"m 44 0 l 225 908 l 746 908 l 721 782 l 349 782 l 300 538 l 615 538 l 590 411 l 276 411 l 218 126 l 601 126 l 576 0 q 517 -22 544 -4 q 471 -62 490 -39 q 440 -109 451 -85 q 429 -153 429 -133 q 444 -189 429 -176 q 478 -201 458 -201 q 522 -187 499 -201 l 553 -264 q 491 -290 525 -281 q 428 -300 457 -300 q 342 -274 375 -300 q 308 -200 308 -249 q 322 -136 308 -167 q 356 -79 336 -106 q 399 -33 376 -53 q 440 0 422 -12 l 44 0 z "},"Ĝ":{"ha":833,"x_min":79,"x_max":810,"o":"m 426 -17 q 169 83 260 -17 q 79 357 79 183 q 115 573 79 469 q 215 754 150 676 q 369 878 279 832 q 569 925 460 925 q 714 887 654 925 q 810 786 774 849 l 707 707 q 646 772 681 749 q 561 796 611 796 q 426 758 488 796 q 322 660 365 721 q 256 524 279 600 q 232 368 232 447 q 244 265 232 311 q 282 183 256 218 q 350 130 308 149 q 451 111 392 111 q 522 123 490 111 q 578 154 554 135 l 622 368 l 454 368 l 478 490 l 779 490 l 697 76 q 578 10 647 36 q 426 -17 510 -17 m 428 961 l 365 1011 l 528 1161 l 700 1161 l 807 1007 l 732 963 l 610 1085 l 604 1085 l 428 961 z "},"Ğ":{"ha":833,"x_min":79,"x_max":826,"o":"m 426 -17 q 169 83 260 -17 q 79 357 79 183 q 115 573 79 469 q 215 754 150 676 q 369 878 279 832 q 569 925 460 925 q 714 887 654 925 q 810 786 774 849 l 707 707 q 646 772 681 749 q 561 796 611 796 q 426 758 488 796 q 322 660 365 721 q 256 524 279 600 q 232 368 232 447 q 244 265 232 311 q 282 183 256 218 q 350 130 308 149 q 451 111 392 111 q 522 123 490 111 q 578 154 554 135 l 622 368 l 454 368 l 478 490 l 779 490 l 697 76 q 578 10 647 36 q 426 -17 510 -17 m 578 974 q 435 1024 478 974 q 396 1158 392 1075 l 490 1174 q 517 1099 490 1128 q 596 1069 543 1069 q 684 1099 649 1069 q 739 1174 719 1128 l 826 1158 q 741 1024 803 1075 q 578 974 679 974 z "},"Ġ":{"ha":833,"x_min":79,"x_max":810,"o":"m 426 -17 q 169 83 260 -17 q 79 357 79 183 q 115 573 79 469 q 215 754 150 676 q 369 878 279 832 q 569 925 460 925 q 714 887 654 925 q 810 786 774 849 l 707 707 q 646 772 681 749 q 561 796 611 796 q 426 758 488 796 q 322 660 365 721 q 256 524 279 600 q 232 368 232 447 q 244 265 232 311 q 282 183 256 218 q 350 130 308 149 q 451 111 392 111 q 522 123 490 111 q 578 154 554 135 l 622 368 l 454 368 l 478 490 l 779 490 l 697 76 q 578 10 647 36 q 426 -17 510 -17 m 588 985 q 528 1004 554 985 q 501 1063 501 1024 q 531 1131 501 1103 q 601 1160 561 1160 q 661 1139 635 1160 q 688 1081 688 1118 q 658 1012 688 1039 q 588 985 629 985 z "},"Ģ":{"ha":833,"x_min":79,"x_max":810,"o":"m 426 -17 q 169 83 260 -17 q 79 357 79 183 q 115 573 79 469 q 215 754 150 676 q 369 878 279 832 q 569 925 460 925 q 714 887 654 925 q 810 786 774 849 l 707 707 q 646 772 681 749 q 561 796 611 796 q 426 758 488 796 q 322 660 365 721 q 256 524 279 600 q 232 368 232 447 q 244 265 232 311 q 282 183 256 218 q 350 130 308 149 q 451 111 392 111 q 522 123 490 111 q 578 154 554 135 l 622 368 l 454 368 l 478 490 l 779 490 l 697 76 q 578 10 647 36 q 426 -17 510 -17 m 243 -312 l 244 -244 q 364 -223 328 -240 q 400 -178 400 -206 q 381 -144 400 -157 q 318 -128 363 -131 l 360 -65 q 441 -76 410 -68 q 490 -97 472 -85 q 514 -126 507 -110 q 521 -161 521 -142 q 500 -226 521 -199 q 442 -273 479 -254 q 353 -301 404 -292 q 243 -312 303 -311 z "},"Ǧ":{"ha":833,"x_min":79,"x_max":822,"o":"m 426 -17 q 169 83 260 -17 q 79 357 79 183 q 115 573 79 469 q 215 754 150 676 q 369 878 279 832 q 569 925 460 925 q 714 887 654 925 q 810 786 774 849 l 707 707 q 646 772 681 749 q 561 796 611 796 q 426 758 488 796 q 322 660 365 721 q 256 524 279 600 q 232 368 232 447 q 244 265 232 311 q 282 183 256 218 q 350 130 308 149 q 451 111 392 111 q 522 123 490 111 q 578 154 554 135 l 622 368 l 454 368 l 478 490 l 779 490 l 697 76 q 578 10 647 36 q 426 -17 510 -17 m 488 978 l 382 1133 l 456 1178 l 578 1056 l 583 1056 l 760 1178 l 822 1128 l 660 978 l 488 978 z "},"Ḡ":{"ha":833,"x_min":79,"x_max":810,"o":"m 426 -17 q 169 83 260 -17 q 79 357 79 183 q 115 573 79 469 q 215 754 150 676 q 369 878 279 832 q 569 925 460 925 q 714 887 654 925 q 810 786 774 849 l 707 707 q 646 772 681 749 q 561 796 611 796 q 426 758 488 796 q 322 660 365 721 q 256 524 279 600 q 232 368 232 447 q 244 265 232 311 q 282 183 256 218 q 350 130 308 149 q 451 111 392 111 q 522 123 490 111 q 578 154 554 135 l 622 368 l 454 368 l 478 490 l 779 490 l 697 76 q 578 10 647 36 q 426 -17 510 -17 m 393 1006 l 413 1106 l 790 1106 l 771 1006 l 393 1006 z "},"Ĥ":{"ha":886,"x_min":44,"x_max":883,"o":"m 44 0 l 225 908 l 375 908 l 300 540 l 660 540 l 733 908 l 883 908 l 701 0 l 551 0 l 635 410 l 275 410 l 194 0 l 44 0 m 397 961 l 335 1011 l 497 1161 l 669 1161 l 776 1007 l 701 963 l 579 1085 l 574 1085 l 397 961 z "},"Ḥ":{"ha":886,"x_min":44,"x_max":883,"o":"m 44 0 l 225 908 l 375 908 l 300 540 l 660 540 l 733 908 l 883 908 l 701 0 l 551 0 l 635 410 l 275 410 l 194 0 l 44 0 m 343 -296 q 283 -276 310 -296 q 257 -218 257 -256 q 287 -149 257 -178 q 357 -121 317 -121 q 417 -141 390 -121 q 443 -199 443 -161 q 414 -268 443 -240 q 343 -296 385 -296 z "},"Ḫ":{"ha":886,"x_min":44,"x_max":883,"o":"m 44 0 l 225 908 l 375 908 l 300 540 l 660 540 l 733 908 l 883 908 l 701 0 l 551 0 l 635 410 l 275 410 l 194 0 l 44 0 m 338 -292 q 242 -274 281 -292 q 182 -227 204 -257 q 153 -158 160 -197 q 150 -76 146 -119 l 249 -61 q 253 -109 247 -86 q 272 -149 258 -132 q 306 -178 285 -167 q 357 -189 326 -189 q 413 -178 388 -189 q 456 -149 438 -167 q 489 -109 475 -132 q 511 -61 503 -86 l 603 -76 q 572 -158 593 -119 q 519 -227 551 -197 q 441 -274 486 -257 q 338 -292 396 -292 z "},"Ħ":{"ha":903,"x_min":53,"x_max":985,"o":"m 101 682 l 117 754 l 204 758 l 233 908 l 383 908 l 353 760 l 713 760 l 742 908 l 892 908 l 863 760 l 985 760 l 969 682 l 846 682 l 710 0 l 560 0 l 643 410 l 283 410 l 203 0 l 53 0 l 189 682 l 101 682 m 308 540 l 668 540 l 696 682 l 338 682 l 308 540 z "},"Ì":{"ha":379,"x_min":44,"x_max":426,"o":"m 44 0 l 225 908 l 375 908 l 194 0 l 44 0 m 342 950 l 135 1132 l 239 1226 l 426 1024 l 342 950 z "},"Í":{"ha":379,"x_min":44,"x_max":532,"o":"m 44 0 l 225 908 l 375 908 l 194 0 l 44 0 m 271 964 l 213 1050 l 463 1217 l 532 1106 l 271 964 z "},"Î":{"ha":379,"x_min":44,"x_max":529,"o":"m 44 0 l 225 908 l 375 908 l 194 0 l 44 0 m 150 961 l 88 1011 l 250 1161 l 422 1161 l 529 1007 l 454 963 l 332 1085 l 326 1085 l 150 961 z "},"Ĩ":{"ha":379,"x_min":44,"x_max":590,"o":"m 44 0 l 225 908 l 375 908 l 194 0 l 44 0 m 400 972 q 339 986 364 972 q 294 1017 314 1000 q 258 1049 275 1035 q 221 1063 240 1063 q 178 1043 197 1063 q 147 982 160 1024 l 46 990 q 117 1130 65 1085 q 236 1175 168 1175 q 297 1161 272 1175 q 342 1131 322 1147 q 378 1100 361 1114 q 415 1086 394 1086 q 489 1167 463 1086 l 590 1158 q 519 1018 571 1064 q 400 972 468 972 z "},"Ï":{"ha":379,"x_min":44,"x_max":531,"o":"m 44 0 l 225 908 l 375 908 l 194 0 l 44 0 m 169 983 q 121 1001 140 983 q 101 1051 101 1019 q 126 1114 101 1086 q 188 1142 151 1142 q 235 1124 215 1142 q 256 1074 256 1106 q 231 1012 256 1040 q 169 983 206 983 m 444 983 q 396 1001 415 983 q 376 1051 376 1019 q 401 1114 376 1086 q 463 1142 426 1142 q 510 1124 490 1142 q 531 1074 531 1106 q 506 1012 531 1040 q 444 983 481 983 z "},"Ī":{"ha":379,"x_min":44,"x_max":513,"o":"m 44 0 l 225 908 l 375 908 l 194 0 l 44 0 m 115 1006 l 135 1106 l 513 1106 l 493 1006 l 115 1006 z "},"İ":{"ha":379,"x_min":44,"x_max":410,"o":"m 44 0 l 225 908 l 375 908 l 194 0 l 44 0 m 310 985 q 250 1004 276 985 q 224 1063 224 1024 q 253 1131 224 1103 q 324 1160 283 1160 q 383 1139 357 1160 q 410 1081 410 1118 q 381 1012 410 1039 q 310 985 351 985 z "},"Ǐ":{"ha":379,"x_min":44,"x_max":544,"o":"m 44 0 l 225 908 l 375 908 l 194 0 l 44 0 m 210 978 l 104 1133 l 178 1178 l 300 1056 l 306 1056 l 482 1178 l 544 1128 l 382 978 l 210 978 z "},"Ỉ":{"ha":379,"x_min":44,"x_max":447,"o":"m 44 0 l 225 908 l 375 908 l 194 0 l 44 0 m 236 964 l 235 1032 q 289 1050 267 1039 q 314 1083 311 1061 q 294 1120 318 1107 q 211 1136 269 1133 l 246 1221 q 401 1187 356 1218 q 436 1101 447 1156 q 410 1044 429 1068 q 365 1004 392 1021 q 304 978 338 988 q 236 964 271 968 z "},"Ị":{"ha":379,"x_min":-7,"x_max":375,"o":"m 44 0 l 225 908 l 375 908 l 194 0 l 44 0 m 79 -300 q 19 -280 46 -300 q -7 -222 -7 -260 q 23 -153 -7 -182 q 93 -125 53 -125 q 153 -145 126 -125 q 179 -203 179 -165 q 150 -272 179 -244 q 79 -300 121 -300 z "},"Į":{"ha":379,"x_min":-51,"x_max":375,"o":"m 65 -300 q -19 -274 14 -300 q -51 -200 -51 -249 q -37 -136 -51 -167 q -4 -79 -24 -106 q 38 -33 15 -53 q 76 0 60 -12 l 44 0 l 225 908 l 375 908 l 194 0 q 101 -73 135 -29 q 68 -153 68 -117 q 83 -189 68 -176 q 118 -201 97 -201 q 161 -187 138 -201 l 192 -261 q 130 -290 167 -279 q 65 -300 93 -300 z "},"Ĵ":{"ha":658,"x_min":-7,"x_max":815,"o":"m 233 -17 q 90 20 153 -17 q -7 122 28 57 l 88 210 q 144 140 107 167 q 233 113 181 113 q 334 159 296 113 q 390 293 372 206 l 513 908 l 663 908 l 535 269 q 499 156 524 208 q 438 66 475 104 q 350 6 401 28 q 233 -17 299 -17 m 436 961 l 374 1011 l 536 1161 l 708 1161 l 815 1007 l 740 963 l 618 1085 l 613 1085 l 436 961 z "},"Ķ":{"ha":808,"x_min":44,"x_max":861,"o":"m 44 0 l 225 908 l 375 908 l 293 497 l 299 497 l 696 908 l 861 908 l 526 547 l 731 0 l 575 0 l 415 453 l 251 286 l 194 0 l 44 0 m 210 -312 l 211 -244 q 331 -223 294 -240 q 367 -178 367 -206 q 348 -144 367 -157 q 285 -128 329 -131 l 326 -65 q 408 -76 376 -68 q 456 -97 439 -85 q 481 -126 474 -110 q 488 -161 488 -142 q 467 -226 488 -199 q 408 -273 446 -254 q 320 -301 371 -292 q 210 -312 269 -311 z "},"Ĺ":{"ha":668,"x_min":44,"x_max":582,"o":"m 44 0 l 225 908 l 375 908 l 219 126 l 582 126 l 557 0 l 44 0 m 286 964 l 228 1050 l 478 1217 l 547 1106 l 286 964 z "},"Ľ":{"ha":668,"x_min":44,"x_max":682,"o":"m 44 0 l 225 908 l 375 908 l 219 126 l 582 126 l 557 0 l 44 0 m 528 710 l 583 1011 l 682 1011 l 664 924 l 596 710 l 528 710 z "},"Ļ":{"ha":668,"x_min":44,"x_max":582,"o":"m 44 0 l 225 908 l 375 908 l 219 126 l 582 126 l 557 0 l 44 0 m 136 -312 l 138 -244 q 257 -223 221 -240 q 293 -178 293 -206 q 274 -144 293 -157 q 211 -128 256 -131 l 253 -65 q 334 -76 303 -68 q 383 -97 365 -85 q 407 -126 400 -110 q 414 -161 414 -142 q 393 -226 414 -199 q 335 -273 372 -254 q 247 -301 297 -292 q 136 -312 196 -311 z "},"Ŀ":{"ha":668,"x_min":44,"x_max":646,"o":"m 44 0 l 225 908 l 375 908 l 219 126 l 582 126 l 557 0 l 44 0 m 532 353 q 472 377 494 353 q 450 439 450 401 q 458 483 450 461 q 483 521 467 504 q 519 548 499 538 q 565 558 540 558 q 624 533 603 558 q 646 471 646 508 q 638 427 646 449 q 615 389 629 406 q 578 363 600 372 q 532 353 557 353 z "},"Ḷ":{"ha":668,"x_min":44,"x_max":582,"o":"m 44 0 l 225 908 l 375 908 l 219 126 l 582 126 l 557 0 l 44 0 m 274 -296 q 214 -276 240 -296 q 188 -218 188 -256 q 217 -149 188 -178 q 288 -121 247 -121 q 347 -141 321 -121 q 374 -199 374 -161 q 344 -268 374 -240 q 274 -296 315 -296 z "},"Ḹ":{"ha":668,"x_min":44,"x_max":582,"o":"m 44 0 l 225 908 l 375 908 l 219 126 l 582 126 l 557 0 l 44 0 m 131 1006 l 150 1106 l 528 1106 l 508 1006 l 131 1006 m 274 -296 q 214 -276 240 -296 q 188 -218 188 -256 q 217 -149 188 -178 q 288 -121 247 -121 q 347 -141 321 -121 q 374 -199 374 -161 q 344 -268 374 -240 q 274 -296 315 -296 z "},"Ḻ":{"ha":668,"x_min":44,"x_max":582,"o":"m 44 0 l 225 908 l 375 908 l 219 126 l 582 126 l 557 0 l 44 0 m 88 -236 l 107 -137 l 481 -137 l 463 -236 l 88 -236 z "},"Ł":{"ha":668,"x_min":-18,"x_max":582,"o":"m 18 264 l -18 361 l 131 433 l 225 908 l 375 908 l 296 511 l 528 626 l 565 528 l 271 383 l 219 126 l 582 126 l 557 0 l 44 0 l 106 307 l 18 264 z "},"Ṃ":{"ha":1004,"x_min":44,"x_max":1001,"o":"m 44 0 l 225 908 l 392 908 l 464 454 l 490 279 l 496 279 l 586 454 l 836 908 l 1001 908 l 819 0 l 678 0 l 768 436 q 784 505 775 468 q 803 579 793 542 q 822 653 813 617 q 842 721 832 689 l 838 721 l 726 515 l 486 89 l 417 89 l 342 515 l 313 721 l 307 721 q 291 578 300 657 q 269 436 282 500 l 182 0 l 44 0 m 396 -307 q 336 -287 363 -307 q 310 -229 310 -267 q 340 -160 310 -189 q 410 -132 369 -132 q 469 -152 443 -132 q 496 -210 496 -172 q 467 -279 496 -251 q 396 -307 438 -307 z "},"Ń":{"ha":876,"x_min":44,"x_max":875,"o":"m 44 0 l 225 908 l 372 908 l 550 382 l 603 186 l 608 186 q 625 339 617 257 q 649 496 633 421 l 731 908 l 875 908 l 693 0 l 547 0 l 371 525 l 318 724 l 313 724 q 294 571 304 650 q 269 417 285 492 l 188 0 l 44 0 m 532 964 l 474 1050 l 724 1217 l 793 1106 l 532 964 z "},"Ň":{"ha":876,"x_min":44,"x_max":875,"o":"m 44 0 l 225 908 l 372 908 l 550 382 l 603 186 l 608 186 q 625 339 617 257 q 649 496 633 421 l 731 908 l 875 908 l 693 0 l 547 0 l 371 525 l 318 724 l 313 724 q 294 571 304 650 q 269 417 285 492 l 188 0 l 44 0 m 471 978 l 365 1133 l 439 1178 l 561 1056 l 567 1056 l 743 1178 l 806 1128 l 643 978 l 471 978 z "},"Ñ":{"ha":876,"x_min":44,"x_max":875,"o":"m 44 0 l 225 908 l 372 908 l 550 382 l 603 186 l 608 186 q 625 339 617 257 q 649 496 633 421 l 731 908 l 875 908 l 693 0 l 547 0 l 371 525 l 318 724 l 313 724 q 294 571 304 650 q 269 417 285 492 l 188 0 l 44 0 m 661 972 q 600 986 625 972 q 556 1017 575 1000 q 519 1049 536 1035 q 482 1063 501 1063 q 440 1043 458 1063 q 408 982 421 1024 l 307 990 q 378 1130 326 1085 q 497 1175 429 1175 q 558 1161 533 1175 q 603 1131 583 1147 q 639 1100 622 1114 q 676 1086 656 1086 q 750 1167 724 1086 l 851 1158 q 781 1018 832 1064 q 661 972 729 972 z "},"Ņ":{"ha":876,"x_min":44,"x_max":875,"o":"m 44 0 l 225 908 l 372 908 l 550 382 l 603 186 l 608 186 q 625 339 617 257 q 649 496 633 421 l 731 908 l 875 908 l 693 0 l 547 0 l 371 525 l 318 724 l 313 724 q 294 571 304 650 q 269 417 285 492 l 188 0 l 44 0 m 214 -324 l 215 -256 q 335 -234 299 -251 q 371 -189 371 -217 q 352 -155 371 -168 q 289 -139 333 -142 l 331 -76 q 412 -87 381 -79 q 460 -108 443 -96 q 485 -137 478 -121 q 492 -172 492 -153 q 471 -237 492 -210 q 413 -284 450 -265 q 324 -312 375 -303 q 214 -324 274 -322 z "},"Ṅ":{"ha":876,"x_min":44,"x_max":875,"o":"m 44 0 l 225 908 l 372 908 l 550 382 l 603 186 l 608 186 q 625 339 617 257 q 649 496 633 421 l 731 908 l 875 908 l 693 0 l 547 0 l 371 525 l 318 724 l 313 724 q 294 571 304 650 q 269 417 285 492 l 188 0 l 44 0 m 571 985 q 511 1004 538 985 q 485 1063 485 1024 q 515 1131 485 1103 q 585 1160 544 1160 q 644 1139 618 1160 q 671 1081 671 1118 q 642 1012 671 1039 q 571 985 613 985 z "},"Ṇ":{"ha":876,"x_min":44,"x_max":875,"o":"m 44 0 l 225 908 l 372 908 l 550 382 l 603 186 l 608 186 q 625 339 617 257 q 649 496 633 421 l 731 908 l 875 908 l 693 0 l 547 0 l 371 525 l 318 724 l 313 724 q 294 571 304 650 q 269 417 285 492 l 188 0 l 44 0 m 351 -307 q 292 -287 318 -307 q 265 -229 265 -267 q 295 -160 265 -189 q 365 -132 325 -132 q 425 -152 399 -132 q 451 -210 451 -172 q 422 -279 451 -251 q 351 -307 393 -307 z "},"Ṉ":{"ha":876,"x_min":44,"x_max":875,"o":"m 44 0 l 225 908 l 372 908 l 550 382 l 603 186 l 608 186 q 625 339 617 257 q 649 496 633 421 l 731 908 l 875 908 l 693 0 l 547 0 l 371 525 l 318 724 l 313 724 q 294 571 304 650 q 269 417 285 492 l 188 0 l 44 0 m 165 -247 l 185 -149 l 558 -149 l 540 -247 l 165 -247 z "},"Ò":{"ha":899,"x_min":81,"x_max":861,"o":"m 408 -17 q 271 10 332 -17 q 167 86 210 36 q 103 207 125 136 q 81 365 81 278 q 116 579 81 478 q 213 758 151 681 q 356 880 274 835 q 533 925 439 925 q 671 899 610 925 q 774 822 732 872 q 839 701 817 772 q 861 543 861 631 q 826 329 861 431 q 731 151 792 228 q 587 28 669 74 q 408 -17 504 -17 m 417 113 q 530 149 476 113 q 623 243 583 185 q 685 377 663 301 q 708 532 708 453 q 663 725 708 654 q 525 796 617 796 q 411 760 464 796 q 319 665 358 724 q 258 531 281 607 q 235 376 235 456 q 280 183 235 254 q 417 113 325 113 m 610 950 l 403 1132 l 507 1226 l 694 1024 l 610 950 z "},"Ó":{"ha":899,"x_min":81,"x_max":861,"o":"m 408 -17 q 271 10 332 -17 q 167 86 210 36 q 103 207 125 136 q 81 365 81 278 q 116 579 81 478 q 213 758 151 681 q 356 880 274 835 q 533 925 439 925 q 671 899 610 925 q 774 822 732 872 q 839 701 817 772 q 861 543 861 631 q 826 329 861 431 q 731 151 792 228 q 587 28 669 74 q 408 -17 504 -17 m 417 113 q 530 149 476 113 q 623 243 583 185 q 685 377 663 301 q 708 532 708 453 q 663 725 708 654 q 525 796 617 796 q 411 760 464 796 q 319 665 358 724 q 258 531 281 607 q 235 376 235 456 q 280 183 235 254 q 417 113 325 113 m 539 964 l 481 1050 l 731 1217 l 800 1106 l 539 964 z "},"Ô":{"ha":899,"x_min":81,"x_max":861,"o":"m 408 -17 q 271 10 332 -17 q 167 86 210 36 q 103 207 125 136 q 81 365 81 278 q 116 579 81 478 q 213 758 151 681 q 356 880 274 835 q 533 925 439 925 q 671 899 610 925 q 774 822 732 872 q 839 701 817 772 q 861 543 861 631 q 826 329 861 431 q 731 151 792 228 q 587 28 669 74 q 408 -17 504 -17 m 417 113 q 530 149 476 113 q 623 243 583 185 q 685 377 663 301 q 708 532 708 453 q 663 725 708 654 q 525 796 617 796 q 411 760 464 796 q 319 665 358 724 q 258 531 281 607 q 235 376 235 456 q 280 183 235 254 q 417 113 325 113 m 418 961 l 356 1011 l 518 1161 l 690 1161 l 797 1007 l 722 963 l 600 1085 l 594 1085 l 418 961 z "},"Õ":{"ha":899,"x_min":81,"x_max":861,"o":"m 408 -17 q 271 10 332 -17 q 167 86 210 36 q 103 207 125 136 q 81 365 81 278 q 116 579 81 478 q 213 758 151 681 q 356 880 274 835 q 533 925 439 925 q 671 899 610 925 q 774 822 732 872 q 839 701 817 772 q 861 543 861 631 q 826 329 861 431 q 731 151 792 228 q 587 28 669 74 q 408 -17 504 -17 m 417 113 q 530 149 476 113 q 623 243 583 185 q 685 377 663 301 q 708 532 708 453 q 663 725 708 654 q 525 796 617 796 q 411 760 464 796 q 319 665 358 724 q 258 531 281 607 q 235 376 235 456 q 280 183 235 254 q 417 113 325 113 m 668 972 q 607 986 632 972 q 563 1017 582 1000 q 526 1049 543 1035 q 489 1063 508 1063 q 447 1043 465 1063 q 415 982 428 1024 l 314 990 q 385 1130 333 1085 q 504 1175 436 1175 q 565 1161 540 1175 q 610 1131 590 1147 q 646 1100 629 1114 q 683 1086 663 1086 q 757 1167 731 1086 l 858 1158 q 788 1018 839 1064 q 668 972 736 972 z "},"Ö":{"ha":899,"x_min":81,"x_max":861,"o":"m 408 -17 q 271 10 332 -17 q 167 86 210 36 q 103 207 125 136 q 81 365 81 278 q 116 579 81 478 q 213 758 151 681 q 356 880 274 835 q 533 925 439 925 q 671 899 610 925 q 774 822 732 872 q 839 701 817 772 q 861 543 861 631 q 826 329 861 431 q 731 151 792 228 q 587 28 669 74 q 408 -17 504 -17 m 417 113 q 530 149 476 113 q 623 243 583 185 q 685 377 663 301 q 708 532 708 453 q 663 725 708 654 q 525 796 617 796 q 411 760 464 796 q 319 665 358 724 q 258 531 281 607 q 235 376 235 456 q 280 183 235 254 q 417 113 325 113 m 438 983 q 389 1001 408 983 q 369 1051 369 1019 q 394 1114 369 1086 q 456 1142 419 1142 q 503 1124 483 1142 q 524 1074 524 1106 q 499 1012 524 1040 q 438 983 474 983 m 713 983 q 664 1001 683 983 q 644 1051 644 1019 q 669 1114 644 1086 q 731 1142 694 1142 q 778 1124 758 1142 q 799 1074 799 1106 q 774 1012 799 1040 q 713 983 749 983 z "},"Ō":{"ha":899,"x_min":81,"x_max":861,"o":"m 408 -17 q 271 10 332 -17 q 167 86 210 36 q 103 207 125 136 q 81 365 81 278 q 116 579 81 478 q 213 758 151 681 q 356 880 274 835 q 533 925 439 925 q 671 899 610 925 q 774 822 732 872 q 839 701 817 772 q 861 543 861 631 q 826 329 861 431 q 731 151 792 228 q 587 28 669 74 q 408 -17 504 -17 m 417 113 q 530 149 476 113 q 623 243 583 185 q 685 377 663 301 q 708 532 708 453 q 663 725 708 654 q 525 796 617 796 q 411 760 464 796 q 319 665 358 724 q 258 531 281 607 q 235 376 235 456 q 280 183 235 254 q 417 113 325 113 m 383 1006 l 403 1106 l 781 1106 l 761 1006 l 383 1006 z "},"Ő":{"ha":899,"x_min":81,"x_max":926,"o":"m 408 -17 q 271 10 332 -17 q 167 86 210 36 q 103 207 125 136 q 81 365 81 278 q 116 579 81 478 q 213 758 151 681 q 356 880 274 835 q 533 925 439 925 q 671 899 610 925 q 774 822 732 872 q 839 701 817 772 q 861 543 861 631 q 826 329 861 431 q 731 151 792 228 q 587 28 669 74 q 408 -17 504 -17 m 417 113 q 530 149 476 113 q 623 243 583 185 q 685 377 663 301 q 708 532 708 453 q 663 725 708 654 q 525 796 617 796 q 411 760 464 796 q 319 665 358 724 q 258 531 281 607 q 235 376 235 456 q 280 183 235 254 q 417 113 325 113 m 493 974 l 419 1019 l 592 1224 l 685 1156 l 493 974 m 735 974 l 661 1019 l 833 1224 l 926 1156 l 735 974 z "},"Ǒ":{"ha":899,"x_min":81,"x_max":861,"o":"m 408 -17 q 271 10 332 -17 q 167 86 210 36 q 103 207 125 136 q 81 365 81 278 q 116 579 81 478 q 213 758 151 681 q 356 880 274 835 q 533 925 439 925 q 671 899 610 925 q 774 822 732 872 q 839 701 817 772 q 861 543 861 631 q 826 329 861 431 q 731 151 792 228 q 587 28 669 74 q 408 -17 504 -17 m 417 113 q 530 149 476 113 q 623 243 583 185 q 685 377 663 301 q 708 532 708 453 q 663 725 708 654 q 525 796 617 796 q 411 760 464 796 q 319 665 358 724 q 258 531 281 607 q 235 376 235 456 q 280 183 235 254 q 417 113 325 113 m 478 978 l 372 1133 l 446 1178 l 568 1056 l 574 1056 l 750 1178 l 813 1128 l 650 978 l 478 978 z "},"Ọ":{"ha":899,"x_min":81,"x_max":861,"o":"m 408 -17 q 271 10 332 -17 q 167 86 210 36 q 103 207 125 136 q 81 365 81 278 q 116 579 81 478 q 213 758 151 681 q 356 880 274 835 q 533 925 439 925 q 671 899 610 925 q 774 822 732 872 q 839 701 817 772 q 861 543 861 631 q 826 329 861 431 q 731 151 792 228 q 587 28 669 74 q 408 -17 504 -17 m 417 113 q 530 149 476 113 q 623 243 583 185 q 685 377 663 301 q 708 532 708 453 q 663 725 708 654 q 525 796 617 796 q 411 760 464 796 q 319 665 358 724 q 258 531 281 607 q 235 376 235 456 q 280 183 235 254 q 417 113 325 113 m 350 -296 q 290 -276 317 -296 q 264 -218 264 -256 q 294 -149 264 -178 q 364 -121 324 -121 q 424 -141 397 -121 q 450 -199 450 -161 q 421 -268 450 -240 q 350 -296 392 -296 z "},"Ỏ":{"ha":899,"x_min":81,"x_max":861,"o":"m 408 -17 q 271 10 332 -17 q 167 86 210 36 q 103 207 125 136 q 81 365 81 278 q 116 579 81 478 q 213 758 151 681 q 356 880 274 835 q 533 925 439 925 q 671 899 610 925 q 774 822 732 872 q 839 701 817 772 q 861 543 861 631 q 826 329 861 431 q 731 151 792 228 q 587 28 669 74 q 408 -17 504 -17 m 417 113 q 530 149 476 113 q 623 243 583 185 q 685 377 663 301 q 708 532 708 453 q 663 725 708 654 q 525 796 617 796 q 411 760 464 796 q 319 665 358 724 q 258 531 281 607 q 235 376 235 456 q 280 183 235 254 q 417 113 325 113 m 504 964 l 503 1032 q 557 1050 535 1039 q 582 1083 579 1061 q 562 1120 586 1107 q 479 1136 538 1133 l 514 1221 q 669 1187 624 1218 q 704 1101 715 1156 q 678 1044 697 1068 q 633 1004 660 1021 q 572 978 606 988 q 504 964 539 968 z "},"Ố":{"ha":899,"x_min":81,"x_max":931,"o":"m 408 -17 q 271 10 332 -17 q 167 86 210 36 q 103 207 125 136 q 81 365 81 278 q 116 579 81 478 q 213 758 151 681 q 356 880 274 835 q 533 925 439 925 q 671 899 610 925 q 774 822 732 872 q 839 701 817 772 q 861 543 861 631 q 826 329 861 431 q 731 151 792 228 q 587 28 669 74 q 408 -17 504 -17 m 417 113 q 530 149 476 113 q 623 243 583 185 q 685 377 663 301 q 708 532 708 453 q 663 725 708 654 q 525 796 617 796 q 411 760 464 796 q 319 665 358 724 q 258 531 281 607 q 235 376 235 456 q 280 183 235 254 q 417 113 325 113 m 440 961 l 382 1007 l 533 1139 l 672 1139 l 775 1006 l 704 961 l 594 1058 l 589 1058 l 440 961 m 768 1063 l 726 1124 l 886 1233 l 931 1160 l 768 1063 z "},"Ồ":{"ha":899,"x_min":81,"x_max":861,"o":"m 408 -17 q 271 10 332 -17 q 167 86 210 36 q 103 207 125 136 q 81 365 81 278 q 116 579 81 478 q 213 758 151 681 q 356 880 274 835 q 533 925 439 925 q 671 899 610 925 q 774 822 732 872 q 839 701 817 772 q 861 543 861 631 q 826 329 861 431 q 731 151 792 228 q 587 28 669 74 q 408 -17 504 -17 m 417 113 q 530 149 476 113 q 623 243 583 185 q 685 377 663 301 q 708 532 708 453 q 663 725 708 654 q 525 796 617 796 q 411 760 464 796 q 319 665 358 724 q 258 531 281 607 q 235 376 235 456 q 280 183 235 254 q 417 113 325 113 m 440 961 l 382 1007 l 533 1139 l 672 1139 l 775 1006 l 704 961 l 594 1058 l 589 1058 l 440 961 m 400 1065 l 275 1179 l 343 1240 l 460 1115 l 400 1065 z "},"Ổ":{"ha":899,"x_min":81,"x_max":933,"o":"m 408 -17 q 271 10 332 -17 q 167 86 210 36 q 103 207 125 136 q 81 365 81 278 q 116 579 81 478 q 213 758 151 681 q 356 880 274 835 q 533 925 439 925 q 671 899 610 925 q 774 822 732 872 q 839 701 817 772 q 861 543 861 631 q 826 329 861 431 q 731 151 792 228 q 587 28 669 74 q 408 -17 504 -17 m 417 113 q 530 149 476 113 q 623 243 583 185 q 685 377 663 301 q 708 532 708 453 q 663 725 708 654 q 525 796 617 796 q 411 760 464 796 q 319 665 358 724 q 258 531 281 607 q 235 376 235 456 q 280 183 235 254 q 417 113 325 113 m 440 961 l 382 1007 l 533 1139 l 672 1139 l 775 1006 l 704 961 l 594 1058 l 589 1058 l 440 961 m 760 1046 l 754 1101 q 795 1117 778 1107 q 815 1146 813 1126 q 802 1181 821 1169 q 731 1196 783 1193 l 757 1267 q 894 1235 856 1263 q 924 1160 933 1207 q 865 1077 913 1103 q 760 1046 818 1051 z "},"Ỗ":{"ha":899,"x_min":81,"x_max":861,"o":"m 408 -17 q 271 10 332 -17 q 167 86 210 36 q 103 207 125 136 q 81 365 81 278 q 116 579 81 478 q 213 758 151 681 q 356 880 274 835 q 533 925 439 925 q 671 899 610 925 q 774 822 732 872 q 839 701 817 772 q 861 543 861 631 q 826 329 861 431 q 731 151 792 228 q 587 28 669 74 q 408 -17 504 -17 m 417 113 q 530 149 476 113 q 623 243 583 185 q 685 377 663 301 q 708 532 708 453 q 663 725 708 654 q 525 796 617 796 q 411 760 464 796 q 319 665 358 724 q 258 531 281 607 q 235 376 235 456 q 280 183 235 254 q 417 113 325 113 m 439 961 l 382 1007 l 532 1131 l 671 1131 l 775 1006 l 703 961 l 593 1050 l 588 1050 l 439 961 m 693 1165 q 642 1176 663 1165 q 604 1198 621 1186 q 573 1220 588 1210 q 540 1231 558 1231 q 482 1171 499 1231 l 403 1181 q 453 1284 418 1247 q 547 1321 489 1321 q 599 1310 578 1321 q 636 1288 619 1300 q 667 1266 653 1276 q 700 1256 682 1256 q 760 1315 740 1256 l 838 1306 q 787 1202 822 1239 q 693 1165 751 1165 z "},"Ộ":{"ha":899,"x_min":81,"x_max":861,"o":"m 408 -17 q 271 10 332 -17 q 167 86 210 36 q 103 207 125 136 q 81 365 81 278 q 116 579 81 478 q 213 758 151 681 q 356 880 274 835 q 533 925 439 925 q 671 899 610 925 q 774 822 732 872 q 839 701 817 772 q 861 543 861 631 q 826 329 861 431 q 731 151 792 228 q 587 28 669 74 q 408 -17 504 -17 m 417 113 q 530 149 476 113 q 623 243 583 185 q 685 377 663 301 q 708 532 708 453 q 663 725 708 654 q 525 796 617 796 q 411 760 464 796 q 319 665 358 724 q 258 531 281 607 q 235 376 235 456 q 280 183 235 254 q 417 113 325 113 m 418 961 l 356 1011 l 518 1161 l 690 1161 l 797 1007 l 722 963 l 600 1085 l 594 1085 l 418 961 m 350 -296 q 290 -276 317 -296 q 264 -218 264 -256 q 294 -149 264 -178 q 364 -121 324 -121 q 424 -141 397 -121 q 450 -199 450 -161 q 421 -268 450 -240 q 350 -296 392 -296 z "},"Ø":{"ha":899,"x_min":-8,"x_max":961,"o":"m 408 -17 q 178 75 265 -17 l 61 -49 l -8 14 l 125 153 q 81 365 81 242 q 116 579 81 478 q 213 758 151 681 q 356 880 274 835 q 533 925 439 925 q 667 900 608 925 q 768 829 726 875 l 894 961 l 961 899 l 819 750 q 861 543 861 664 q 826 329 861 431 q 731 151 792 228 q 587 28 669 74 q 408 -17 504 -17 m 235 376 q 243 278 235 324 l 665 721 q 607 776 642 757 q 525 796 572 796 q 411 760 464 796 q 319 665 358 724 q 258 531 281 607 q 235 376 235 456 m 417 113 q 530 149 476 113 q 623 243 583 185 q 685 377 663 301 q 708 532 708 453 q 700 624 708 582 l 281 182 q 417 113 328 113 z "},"Œ":{"ha":1146,"x_min":81,"x_max":1175,"o":"m 475 0 q 183 91 285 0 q 81 356 81 182 q 116 588 81 485 q 217 761 151 690 q 373 870 282 832 q 576 908 464 908 l 1175 908 l 1150 782 l 800 782 l 753 538 l 1046 538 l 1021 411 l 728 411 l 669 126 l 1032 126 l 1007 0 l 475 0 m 479 121 l 521 121 l 653 788 l 579 788 q 440 759 503 788 q 331 676 376 731 q 260 544 285 622 q 235 365 235 465 q 299 182 235 243 q 479 121 363 121 z "},"Ơ":{"ha":899,"x_min":81,"x_max":943,"o":"m 408 -17 q 271 10 332 -17 q 167 86 210 36 q 103 207 125 136 q 81 365 81 278 q 116 579 81 478 q 213 758 151 681 q 356 880 274 835 q 533 925 439 925 q 697 886 626 925 q 791 929 760 893 q 822 1014 822 965 q 808 1076 822 1044 l 924 1114 q 943 1024 943 1064 q 894 894 943 944 q 769 828 846 843 q 861 543 861 725 q 826 329 861 431 q 731 151 792 228 q 587 28 669 74 q 408 -17 504 -17 m 417 113 q 530 149 476 113 q 623 243 583 185 q 685 377 663 301 q 708 532 708 453 q 663 725 708 654 q 525 796 617 796 q 411 760 464 796 q 319 665 358 724 q 258 531 281 607 q 235 376 235 456 q 280 183 235 254 q 417 113 325 113 z "},"Ớ":{"ha":899,"x_min":81,"x_max":943,"o":"m 408 -17 q 271 10 332 -17 q 167 86 210 36 q 103 207 125 136 q 81 365 81 278 q 116 579 81 478 q 213 758 151 681 q 356 880 274 835 q 533 925 439 925 q 697 886 626 925 q 791 929 760 893 q 822 1014 822 965 q 808 1076 822 1044 l 924 1114 q 943 1024 943 1064 q 894 894 943 944 q 769 828 846 843 q 861 543 861 725 q 826 329 861 431 q 731 151 792 228 q 587 28 669 74 q 408 -17 504 -17 m 417 113 q 530 149 476 113 q 623 243 583 185 q 685 377 663 301 q 708 532 708 453 q 663 725 708 654 q 525 796 617 796 q 411 760 464 796 q 319 665 358 724 q 258 531 281 607 q 235 376 235 456 q 280 183 235 254 q 417 113 325 113 m 519 964 l 461 1050 l 711 1217 l 781 1106 l 519 964 z "},"Ờ":{"ha":899,"x_min":81,"x_max":943,"o":"m 408 -17 q 271 10 332 -17 q 167 86 210 36 q 103 207 125 136 q 81 365 81 278 q 116 579 81 478 q 213 758 151 681 q 356 880 274 835 q 533 925 439 925 q 697 886 626 925 q 791 929 760 893 q 822 1014 822 965 q 808 1076 822 1044 l 924 1114 q 943 1024 943 1064 q 894 894 943 944 q 769 828 846 843 q 861 543 861 725 q 826 329 861 431 q 731 151 792 228 q 587 28 669 74 q 408 -17 504 -17 m 417 113 q 530 149 476 113 q 623 243 583 185 q 685 377 663 301 q 708 532 708 453 q 663 725 708 654 q 525 796 617 796 q 411 760 464 796 q 319 665 358 724 q 258 531 281 607 q 235 376 235 456 q 280 183 235 254 q 417 113 325 113 m 590 950 l 383 1132 l 488 1226 l 675 1024 l 590 950 z "},"Ở":{"ha":899,"x_min":81,"x_max":943,"o":"m 408 -17 q 271 10 332 -17 q 167 86 210 36 q 103 207 125 136 q 81 365 81 278 q 116 579 81 478 q 213 758 151 681 q 356 880 274 835 q 533 925 439 925 q 697 886 626 925 q 791 929 760 893 q 822 1014 822 965 q 808 1076 822 1044 l 924 1114 q 943 1024 943 1064 q 894 894 943 944 q 769 828 846 843 q 861 543 861 725 q 826 329 861 431 q 731 151 792 228 q 587 28 669 74 q 408 -17 504 -17 m 417 113 q 530 149 476 113 q 623 243 583 185 q 685 377 663 301 q 708 532 708 453 q 663 725 708 654 q 525 796 617 796 q 411 760 464 796 q 319 665 358 724 q 258 531 281 607 q 235 376 235 456 q 280 183 235 254 q 417 113 325 113 m 485 964 l 483 1032 q 538 1050 515 1039 q 563 1083 560 1061 q 542 1120 567 1107 q 460 1136 518 1133 l 494 1221 q 650 1187 604 1218 q 685 1101 696 1156 q 659 1044 678 1068 q 613 1004 640 1021 q 553 978 586 988 q 485 964 519 968 z "},"Ỡ":{"ha":899,"x_min":81,"x_max":943,"o":"m 408 -17 q 271 10 332 -17 q 167 86 210 36 q 103 207 125 136 q 81 365 81 278 q 116 579 81 478 q 213 758 151 681 q 356 880 274 835 q 533 925 439 925 q 697 886 626 925 q 791 929 760 893 q 822 1014 822 965 q 808 1076 822 1044 l 924 1114 q 943 1024 943 1064 q 894 894 943 944 q 769 828 846 843 q 861 543 861 725 q 826 329 861 431 q 731 151 792 228 q 587 28 669 74 q 408 -17 504 -17 m 417 113 q 530 149 476 113 q 623 243 583 185 q 685 377 663 301 q 708 532 708 453 q 663 725 708 654 q 525 796 617 796 q 411 760 464 796 q 319 665 358 724 q 258 531 281 607 q 235 376 235 456 q 280 183 235 254 q 417 113 325 113 m 613 972 q 551 986 576 972 q 507 1017 526 1000 q 470 1049 488 1035 q 433 1063 453 1063 q 391 1043 410 1063 q 360 982 372 1024 l 258 990 q 329 1130 278 1085 q 449 1175 381 1175 q 510 1161 485 1175 q 554 1131 535 1147 q 590 1100 574 1114 q 628 1086 607 1086 q 701 1167 675 1086 l 803 1158 q 732 1018 783 1064 q 613 972 681 972 z "},"Ợ":{"ha":899,"x_min":81,"x_max":943,"o":"m 408 -17 q 271 10 332 -17 q 167 86 210 36 q 103 207 125 136 q 81 365 81 278 q 116 579 81 478 q 213 758 151 681 q 356 880 274 835 q 533 925 439 925 q 697 886 626 925 q 791 929 760 893 q 822 1014 822 965 q 808 1076 822 1044 l 924 1114 q 943 1024 943 1064 q 894 894 943 944 q 769 828 846 843 q 861 543 861 725 q 826 329 861 431 q 731 151 792 228 q 587 28 669 74 q 408 -17 504 -17 m 417 113 q 530 149 476 113 q 623 243 583 185 q 685 377 663 301 q 708 532 708 453 q 663 725 708 654 q 525 796 617 796 q 411 760 464 796 q 319 665 358 724 q 258 531 281 607 q 235 376 235 456 q 280 183 235 254 q 417 113 325 113 m 347 -296 q 288 -276 314 -296 q 261 -218 261 -256 q 291 -149 261 -178 q 361 -121 321 -121 q 421 -141 394 -121 q 447 -199 447 -161 q 418 -268 447 -240 q 347 -296 389 -296 z "},"Ǫ":{"ha":899,"x_min":81,"x_max":861,"o":"m 364 -300 q 278 -274 311 -300 q 246 -200 246 -249 q 258 -141 246 -169 q 287 -88 269 -112 q 325 -45 304 -64 q 364 -14 346 -26 q 155 102 229 3 q 81 365 81 201 q 116 579 81 478 q 213 758 151 681 q 356 880 274 835 q 533 925 439 925 q 671 899 610 925 q 774 822 732 872 q 839 701 817 772 q 861 543 861 631 q 838 367 861 451 q 771 210 815 282 q 660 84 726 139 q 510 -4 594 29 q 400 -76 433 -35 q 367 -153 367 -117 q 381 -189 367 -176 q 415 -201 396 -201 q 458 -187 436 -201 l 489 -264 q 428 -290 463 -281 q 364 -300 393 -300 m 417 113 q 530 149 476 113 q 623 243 583 185 q 685 377 663 301 q 708 532 708 453 q 663 725 708 654 q 525 796 617 796 q 411 760 464 796 q 319 665 358 724 q 258 531 281 607 q 235 376 235 456 q 280 183 235 254 q 417 113 325 113 z "},"Ŕ":{"ha":800,"x_min":44,"x_max":790,"o":"m 44 0 l 225 908 l 493 908 q 613 897 558 908 q 706 858 667 885 q 768 788 746 831 q 790 686 790 746 q 772 572 790 622 q 719 482 753 521 q 641 417 686 443 q 542 376 596 390 l 692 0 l 532 0 l 400 358 l 265 358 l 194 0 l 44 0 m 290 478 l 406 478 q 582 528 522 478 q 642 665 642 579 q 597 760 642 732 q 464 789 551 789 l 350 789 l 290 478 m 488 964 l 429 1050 l 679 1217 l 749 1106 l 488 964 z "},"Ř":{"ha":800,"x_min":44,"x_max":790,"o":"m 44 0 l 225 908 l 493 908 q 613 897 558 908 q 706 858 667 885 q 768 788 746 831 q 790 686 790 746 q 772 572 790 622 q 719 482 753 521 q 641 417 686 443 q 542 376 596 390 l 692 0 l 532 0 l 400 358 l 265 358 l 194 0 l 44 0 m 290 478 l 406 478 q 582 528 522 478 q 642 665 642 579 q 597 760 642 732 q 464 789 551 789 l 350 789 l 290 478 m 426 978 l 321 1133 l 394 1178 l 517 1056 l 522 1056 l 699 1178 l 761 1128 l 599 978 l 426 978 z "},"Ŗ":{"ha":800,"x_min":44,"x_max":790,"o":"m 44 0 l 225 908 l 493 908 q 613 897 558 908 q 706 858 667 885 q 768 788 746 831 q 790 686 790 746 q 772 572 790 622 q 719 482 753 521 q 641 417 686 443 q 542 376 596 390 l 692 0 l 532 0 l 400 358 l 265 358 l 194 0 l 44 0 m 290 478 l 406 478 q 582 528 522 478 q 642 665 642 579 q 597 760 642 732 q 464 789 551 789 l 350 789 l 290 478 m 192 -324 l 193 -256 q 313 -234 276 -251 q 349 -189 349 -217 q 330 -155 349 -168 q 267 -139 311 -142 l 308 -76 q 390 -87 358 -79 q 438 -108 421 -96 q 463 -137 456 -121 q 469 -172 469 -153 q 449 -237 469 -210 q 390 -284 428 -265 q 302 -312 353 -303 q 192 -324 251 -322 z "},"Ṛ":{"ha":800,"x_min":44,"x_max":790,"o":"m 44 0 l 225 908 l 493 908 q 613 897 558 908 q 706 858 667 885 q 768 788 746 831 q 790 686 790 746 q 772 572 790 622 q 719 482 753 521 q 641 417 686 443 q 542 376 596 390 l 692 0 l 532 0 l 400 358 l 265 358 l 194 0 l 44 0 m 290 478 l 406 478 q 582 528 522 478 q 642 665 642 579 q 597 760 642 732 q 464 789 551 789 l 350 789 l 290 478 m 329 -307 q 269 -287 296 -307 q 243 -229 243 -267 q 273 -160 243 -189 q 343 -132 303 -132 q 403 -152 376 -132 q 429 -210 429 -172 q 400 -279 429 -251 q 329 -307 371 -307 z "},"Ṝ":{"ha":800,"x_min":44,"x_max":790,"o":"m 44 0 l 225 908 l 493 908 q 613 897 558 908 q 706 858 667 885 q 768 788 746 831 q 790 686 790 746 q 772 572 790 622 q 719 482 753 521 q 641 417 686 443 q 542 376 596 390 l 692 0 l 532 0 l 400 358 l 265 358 l 194 0 l 44 0 m 290 478 l 406 478 q 582 528 522 478 q 642 665 642 579 q 597 760 642 732 q 464 789 551 789 l 350 789 l 290 478 m 332 1006 l 351 1106 l 729 1106 l 710 1006 l 332 1006 m 329 -307 q 269 -287 296 -307 q 243 -229 243 -267 q 273 -160 243 -189 q 343 -132 303 -132 q 403 -152 376 -132 q 429 -210 429 -172 q 400 -279 429 -251 q 329 -307 371 -307 z "},"Ṟ":{"ha":800,"x_min":44,"x_max":790,"o":"m 44 0 l 225 908 l 493 908 q 613 897 558 908 q 706 858 667 885 q 768 788 746 831 q 790 686 790 746 q 772 572 790 622 q 719 482 753 521 q 641 417 686 443 q 542 376 596 390 l 692 0 l 532 0 l 400 358 l 265 358 l 194 0 l 44 0 m 290 478 l 406 478 q 582 528 522 478 q 642 665 642 579 q 597 760 642 732 q 464 789 551 789 l 350 789 l 290 478 m 143 -247 l 163 -149 l 536 -149 l 518 -247 l 143 -247 z "},"Ś":{"ha":719,"x_min":11,"x_max":725,"o":"m 325 -17 q 153 22 233 -17 q 11 149 74 61 l 119 232 q 215 144 160 176 q 338 111 271 111 q 454 148 408 111 q 500 249 500 185 q 470 320 500 292 q 390 379 440 349 l 294 438 q 196 526 235 474 q 157 658 157 578 q 180 761 157 713 q 244 847 203 810 q 340 904 285 883 q 458 925 394 925 q 608 888 540 925 q 725 792 676 851 l 629 704 q 551 769 594 743 q 450 796 507 796 q 347 758 383 796 q 311 674 311 721 q 342 602 311 629 q 426 543 374 575 l 524 485 q 623 397 590 446 q 656 269 656 349 q 632 156 656 208 q 565 65 608 104 q 460 5 521 26 q 325 -17 399 -17 m 461 969 l 403 1056 l 653 1222 l 722 1111 l 461 969 z "},"Ŝ":{"ha":719,"x_min":11,"x_max":725,"o":"m 325 -17 q 153 22 233 -17 q 11 149 74 61 l 119 232 q 215 144 160 176 q 338 111 271 111 q 454 148 408 111 q 500 249 500 185 q 470 320 500 292 q 390 379 440 349 l 294 438 q 196 526 235 474 q 157 658 157 578 q 180 761 157 713 q 244 847 203 810 q 340 904 285 883 q 458 925 394 925 q 608 888 540 925 q 725 792 676 851 l 629 704 q 551 769 594 743 q 450 796 507 796 q 347 758 383 796 q 311 674 311 721 q 342 602 311 629 q 426 543 374 575 l 524 485 q 623 397 590 446 q 656 269 656 349 q 632 156 656 208 q 565 65 608 104 q 460 5 521 26 q 325 -17 399 -17 m 340 967 l 278 1017 l 440 1167 l 613 1167 l 719 1013 l 644 968 l 522 1090 l 517 1090 l 340 967 z "},"Š":{"ha":719,"x_min":11,"x_max":735,"o":"m 325 -17 q 153 22 233 -17 q 11 149 74 61 l 119 232 q 215 144 160 176 q 338 111 271 111 q 454 148 408 111 q 500 249 500 185 q 470 320 500 292 q 390 379 440 349 l 294 438 q 196 526 235 474 q 157 658 157 578 q 180 761 157 713 q 244 847 203 810 q 340 904 285 883 q 458 925 394 925 q 608 888 540 925 q 725 792 676 851 l 629 704 q 551 769 594 743 q 450 796 507 796 q 347 758 383 796 q 311 674 311 721 q 342 602 311 629 q 426 543 374 575 l 524 485 q 623 397 590 446 q 656 269 656 349 q 632 156 656 208 q 565 65 608 104 q 460 5 521 26 q 325 -17 399 -17 m 400 983 l 294 1139 l 368 1183 l 490 1061 l 496 1061 l 672 1183 l 735 1133 l 572 983 l 400 983 z "},"Ş":{"ha":719,"x_min":11,"x_max":725,"o":"m 325 -17 q 153 22 233 -17 q 11 149 74 61 l 119 232 q 215 144 160 176 q 338 111 271 111 q 454 148 408 111 q 500 249 500 185 q 470 320 500 292 q 390 379 440 349 l 294 438 q 196 526 235 474 q 157 658 157 578 q 180 761 157 713 q 244 847 203 810 q 340 904 285 883 q 458 925 394 925 q 608 888 540 925 q 725 792 676 851 l 629 704 q 551 769 594 743 q 450 796 507 796 q 347 758 383 796 q 311 674 311 721 q 342 602 311 629 q 426 543 374 575 l 524 485 q 623 397 590 446 q 656 269 656 349 q 632 156 656 208 q 565 65 608 104 q 460 5 521 26 q 325 -17 399 -17 m 139 -324 l 138 -256 q 257 -235 221 -251 q 297 -186 293 -218 q 278 -149 299 -162 q 201 -128 258 -135 l 289 4 l 386 4 l 329 -87 q 399 -122 379 -100 q 415 -182 419 -144 q 334 -286 407 -251 q 139 -324 261 -321 z "},"Ș":{"ha":719,"x_min":11,"x_max":725,"o":"m 325 -17 q 153 22 233 -17 q 11 149 74 61 l 119 232 q 215 144 160 176 q 338 111 271 111 q 454 148 408 111 q 500 249 500 185 q 470 320 500 292 q 390 379 440 349 l 294 438 q 196 526 235 474 q 157 658 157 578 q 180 761 157 713 q 244 847 203 810 q 340 904 285 883 q 458 925 394 925 q 608 888 540 925 q 725 792 676 851 l 629 704 q 551 769 594 743 q 450 796 507 796 q 347 758 383 796 q 311 674 311 721 q 342 602 311 629 q 426 543 374 575 l 524 485 q 623 397 590 446 q 656 269 656 349 q 632 156 656 208 q 565 65 608 104 q 460 5 521 26 q 325 -17 399 -17 m 139 -324 l 140 -256 q 260 -234 224 -251 q 296 -189 296 -217 q 277 -155 296 -168 q 214 -139 258 -142 l 256 -76 q 337 -87 306 -79 q 385 -108 368 -96 q 410 -137 403 -121 q 417 -172 417 -153 q 396 -237 417 -210 q 338 -284 375 -265 q 249 -312 300 -303 q 139 -324 199 -322 z "},"Ṡ":{"ha":719,"x_min":11,"x_max":725,"o":"m 325 -17 q 153 22 233 -17 q 11 149 74 61 l 119 232 q 215 144 160 176 q 338 111 271 111 q 454 148 408 111 q 500 249 500 185 q 470 320 500 292 q 390 379 440 349 l 294 438 q 196 526 235 474 q 157 658 157 578 q 180 761 157 713 q 244 847 203 810 q 340 904 285 883 q 458 925 394 925 q 608 888 540 925 q 725 792 676 851 l 629 704 q 551 769 594 743 q 450 796 507 796 q 347 758 383 796 q 311 674 311 721 q 342 602 311 629 q 426 543 374 575 l 524 485 q 623 397 590 446 q 656 269 656 349 q 632 156 656 208 q 565 65 608 104 q 460 5 521 26 q 325 -17 399 -17 m 500 990 q 440 1010 467 990 q 414 1068 414 1029 q 444 1137 414 1108 q 514 1165 474 1165 q 574 1144 547 1165 q 600 1086 600 1124 q 571 1017 600 1044 q 500 990 542 990 z "},"Ṣ":{"ha":719,"x_min":11,"x_max":725,"o":"m 325 -17 q 153 22 233 -17 q 11 149 74 61 l 119 232 q 215 144 160 176 q 338 111 271 111 q 454 148 408 111 q 500 249 500 185 q 470 320 500 292 q 390 379 440 349 l 294 438 q 196 526 235 474 q 157 658 157 578 q 180 761 157 713 q 244 847 203 810 q 340 904 285 883 q 458 925 394 925 q 608 888 540 925 q 725 792 676 851 l 629 704 q 551 769 594 743 q 450 796 507 796 q 347 758 383 796 q 311 674 311 721 q 342 602 311 629 q 426 543 374 575 l 524 485 q 623 397 590 446 q 656 269 656 349 q 632 156 656 208 q 565 65 608 104 q 460 5 521 26 q 325 -17 399 -17 m 276 -307 q 217 -287 243 -307 q 190 -229 190 -267 q 220 -160 190 -189 q 290 -132 250 -132 q 350 -152 324 -132 q 376 -210 376 -172 q 347 -279 376 -251 q 276 -307 318 -307 z "},"ẞ":{"ha":906,"x_min":44,"x_max":850,"o":"m 564 -17 q 425 12 489 -17 q 315 97 361 40 l 403 189 q 465 128 429 153 q 554 104 501 104 q 607 115 582 104 q 651 146 632 126 q 681 192 669 165 q 692 249 692 218 q 645 342 692 296 q 488 419 599 389 l 496 510 l 703 696 q 640 783 683 754 q 533 813 596 813 q 390 750 450 813 q 306 567 329 688 l 194 0 l 44 0 l 164 601 q 208 733 178 672 q 284 838 238 793 q 395 908 331 882 q 543 933 460 933 q 655 919 603 933 q 747 873 707 904 q 815 793 788 842 q 850 676 842 744 l 643 494 q 792 398 738 458 q 846 258 846 338 q 825 150 846 200 q 767 63 804 100 q 678 5 731 26 q 564 -17 626 -17 z "},"Ť":{"ha":724,"x_min":122,"x_max":800,"o":"m 218 0 l 374 781 l 122 781 l 147 908 l 800 908 l 775 781 l 524 781 l 368 0 l 218 0 m 383 978 l 278 1133 l 351 1178 l 474 1056 l 479 1056 l 656 1178 l 718 1128 l 556 978 l 383 978 z "},"Ţ":{"ha":724,"x_min":97,"x_max":800,"o":"m 218 0 l 374 781 l 122 781 l 147 908 l 800 908 l 775 781 l 524 781 l 368 0 l 218 0 m 99 -324 l 97 -256 q 217 -235 181 -251 q 257 -186 253 -218 q 238 -149 258 -162 q 161 -128 218 -135 l 249 4 l 346 4 l 289 -87 q 359 -122 339 -100 q 375 -182 379 -144 q 294 -286 367 -251 q 99 -324 221 -321 z "},"Ț":{"ha":724,"x_min":110,"x_max":800,"o":"m 218 0 l 374 781 l 122 781 l 147 908 l 800 908 l 775 781 l 524 781 l 368 0 l 218 0 m 110 -312 l 111 -244 q 231 -223 194 -240 q 267 -178 267 -206 q 248 -144 267 -157 q 185 -128 229 -131 l 226 -65 q 308 -76 276 -68 q 356 -97 339 -85 q 381 -126 374 -110 q 388 -161 388 -142 q 367 -226 388 -199 q 308 -273 346 -254 q 220 -301 271 -292 q 110 -312 169 -311 z "},"Ṭ":{"ha":724,"x_min":122,"x_max":800,"o":"m 218 0 l 374 781 l 122 781 l 147 908 l 800 908 l 775 781 l 524 781 l 368 0 l 218 0 m 247 -296 q 188 -276 214 -296 q 161 -218 161 -256 q 191 -149 161 -178 q 261 -121 221 -121 q 321 -141 294 -121 q 347 -199 347 -161 q 318 -268 347 -240 q 247 -296 289 -296 z "},"Ṯ":{"ha":724,"x_min":61,"x_max":800,"o":"m 218 0 l 374 781 l 122 781 l 147 908 l 800 908 l 775 781 l 524 781 l 368 0 l 218 0 m 61 -236 l 81 -137 l 454 -137 l 436 -236 l 61 -236 z "},"Ù":{"ha":875,"x_min":107,"x_max":878,"o":"m 124 422 l 221 908 l 371 908 l 269 400 q 257 293 257 342 q 294 159 257 206 q 418 113 332 113 q 542 171 490 113 q 622 367 594 229 l 731 908 l 878 908 l 768 367 q 638 74 728 164 q 413 -17 547 -17 q 184 58 261 -17 q 107 285 107 133 q 112 351 107 315 q 124 422 117 388 m 599 950 l 392 1132 l 496 1226 l 683 1024 l 599 950 z "},"Ú":{"ha":875,"x_min":107,"x_max":878,"o":"m 124 422 l 221 908 l 371 908 l 269 400 q 257 293 257 342 q 294 159 257 206 q 418 113 332 113 q 542 171 490 113 q 622 367 594 229 l 731 908 l 878 908 l 768 367 q 638 74 728 164 q 413 -17 547 -17 q 184 58 261 -17 q 107 285 107 133 q 112 351 107 315 q 124 422 117 388 m 528 964 l 469 1050 l 719 1217 l 789 1106 l 528 964 z "},"Û":{"ha":875,"x_min":107,"x_max":878,"o":"m 124 422 l 221 908 l 371 908 l 269 400 q 257 293 257 342 q 294 159 257 206 q 418 113 332 113 q 542 171 490 113 q 622 367 594 229 l 731 908 l 878 908 l 768 367 q 638 74 728 164 q 413 -17 547 -17 q 184 58 261 -17 q 107 285 107 133 q 112 351 107 315 q 124 422 117 388 m 407 961 l 344 1011 l 507 1161 l 679 1161 l 786 1007 l 711 963 l 589 1085 l 583 1085 l 407 961 z "},"Ũ":{"ha":875,"x_min":107,"x_max":878,"o":"m 124 422 l 221 908 l 371 908 l 269 400 q 257 293 257 342 q 294 159 257 206 q 418 113 332 113 q 542 171 490 113 q 622 367 594 229 l 731 908 l 878 908 l 768 367 q 638 74 728 164 q 413 -17 547 -17 q 184 58 261 -17 q 107 285 107 133 q 112 351 107 315 q 124 422 117 388 m 657 972 q 596 986 621 972 q 551 1017 571 1000 q 515 1049 532 1035 q 478 1063 497 1063 q 435 1043 454 1063 q 404 982 417 1024 l 303 990 q 374 1130 322 1085 q 493 1175 425 1175 q 554 1161 529 1175 q 599 1131 579 1147 q 635 1100 618 1114 q 672 1086 651 1086 q 746 1167 719 1086 l 847 1158 q 776 1018 828 1064 q 657 972 725 972 z "},"Ü":{"ha":875,"x_min":107,"x_max":878,"o":"m 124 422 l 221 908 l 371 908 l 269 400 q 257 293 257 342 q 294 159 257 206 q 418 113 332 113 q 542 171 490 113 q 622 367 594 229 l 731 908 l 878 908 l 768 367 q 638 74 728 164 q 413 -17 547 -17 q 184 58 261 -17 q 107 285 107 133 q 112 351 107 315 q 124 422 117 388 m 426 983 q 378 1001 397 983 q 358 1051 358 1019 q 383 1114 358 1086 q 444 1142 408 1142 q 492 1124 472 1142 q 513 1074 513 1106 q 488 1012 513 1040 q 426 983 463 983 m 701 983 q 653 1001 672 983 q 633 1051 633 1019 q 658 1114 633 1086 q 719 1142 683 1142 q 767 1124 747 1142 q 788 1074 788 1106 q 763 1012 788 1040 q 701 983 738 983 z "},"Ū":{"ha":875,"x_min":107,"x_max":878,"o":"m 124 422 l 221 908 l 371 908 l 269 400 q 257 293 257 342 q 294 159 257 206 q 418 113 332 113 q 542 171 490 113 q 622 367 594 229 l 731 908 l 878 908 l 768 367 q 638 74 728 164 q 413 -17 547 -17 q 184 58 261 -17 q 107 285 107 133 q 112 351 107 315 q 124 422 117 388 m 372 1006 l 392 1106 l 769 1106 l 750 1006 l 372 1006 z "},"Ŭ":{"ha":875,"x_min":107,"x_max":878,"o":"m 124 422 l 221 908 l 371 908 l 269 400 q 257 293 257 342 q 294 159 257 206 q 418 113 332 113 q 542 171 490 113 q 622 367 594 229 l 731 908 l 878 908 l 768 367 q 638 74 728 164 q 413 -17 547 -17 q 184 58 261 -17 q 107 285 107 133 q 112 351 107 315 q 124 422 117 388 m 557 974 q 414 1024 457 974 q 375 1158 371 1075 l 469 1174 q 496 1099 469 1128 q 575 1069 522 1069 q 663 1099 628 1069 q 718 1174 699 1128 l 806 1158 q 720 1024 782 1075 q 557 974 658 974 z "},"Ů":{"ha":875,"x_min":107,"x_max":878,"o":"m 124 422 l 221 908 l 371 908 l 269 400 q 257 293 257 342 q 294 159 257 206 q 418 113 332 113 q 542 171 490 113 q 622 367 594 229 l 731 908 l 878 908 l 768 367 q 638 74 728 164 q 413 -17 547 -17 q 184 58 261 -17 q 107 285 107 133 q 112 351 107 315 q 124 422 117 388 m 568 969 q 474 997 514 969 q 433 1085 433 1025 q 446 1140 433 1114 q 480 1187 458 1167 q 531 1218 501 1207 q 593 1229 560 1229 q 644 1222 619 1229 q 687 1201 668 1215 q 717 1166 706 1188 q 728 1115 728 1144 q 715 1058 728 1085 q 681 1012 703 1032 q 631 981 660 992 q 568 969 601 969 m 571 1032 q 622 1054 600 1032 q 644 1108 644 1076 q 631 1151 644 1135 q 590 1167 617 1167 q 538 1144 560 1167 q 517 1090 517 1122 q 531 1049 517 1065 q 571 1032 544 1032 z "},"Ű":{"ha":875,"x_min":107,"x_max":915,"o":"m 124 422 l 221 908 l 371 908 l 269 400 q 257 293 257 342 q 294 159 257 206 q 418 113 332 113 q 542 171 490 113 q 622 367 594 229 l 731 908 l 878 908 l 768 367 q 638 74 728 164 q 413 -17 547 -17 q 184 58 261 -17 q 107 285 107 133 q 112 351 107 315 q 124 422 117 388 m 482 974 l 408 1019 l 581 1224 l 674 1156 l 482 974 m 724 974 l 650 1019 l 822 1224 l 915 1156 l 724 974 z "},"Ǔ":{"ha":875,"x_min":107,"x_max":878,"o":"m 124 422 l 221 908 l 371 908 l 269 400 q 257 293 257 342 q 294 159 257 206 q 418 113 332 113 q 542 171 490 113 q 622 367 594 229 l 731 908 l 878 908 l 768 367 q 638 74 728 164 q 413 -17 547 -17 q 184 58 261 -17 q 107 285 107 133 q 112 351 107 315 q 124 422 117 388 m 467 978 l 361 1133 l 435 1178 l 557 1056 l 563 1056 l 739 1178 l 801 1128 l 639 978 l 467 978 z "},"Ǖ":{"ha":875,"x_min":107,"x_max":878,"o":"m 124 422 l 221 908 l 371 908 l 269 400 q 257 293 257 342 q 294 159 257 206 q 418 113 332 113 q 542 171 490 113 q 622 367 594 229 l 731 908 l 878 908 l 768 367 q 638 74 728 164 q 413 -17 547 -17 q 184 58 261 -17 q 107 285 107 133 q 112 351 107 315 q 124 422 117 388 m 433 983 q 389 1000 406 983 q 372 1044 372 1017 q 394 1102 372 1076 q 450 1128 417 1128 q 494 1110 476 1128 q 511 1065 511 1093 q 488 1008 511 1033 q 433 983 465 983 m 703 983 q 659 1000 676 983 q 642 1044 642 1017 q 665 1102 642 1076 q 719 1128 688 1128 q 764 1110 747 1128 q 781 1065 781 1093 q 758 1008 781 1033 q 703 983 736 983 m 414 1200 l 429 1276 l 808 1276 l 792 1200 l 414 1200 z "},"Ǘ":{"ha":875,"x_min":107,"x_max":878,"o":"m 124 422 l 221 908 l 371 908 l 269 400 q 257 293 257 342 q 294 159 257 206 q 418 113 332 113 q 542 171 490 113 q 622 367 594 229 l 731 908 l 878 908 l 768 367 q 638 74 728 164 q 413 -17 547 -17 q 184 58 261 -17 q 107 285 107 133 q 112 351 107 315 q 124 422 117 388 m 433 983 q 389 1000 406 983 q 372 1044 372 1017 q 394 1102 372 1076 q 450 1128 417 1128 q 494 1110 476 1128 q 511 1065 511 1093 q 488 1008 511 1033 q 433 983 465 983 m 703 983 q 659 1000 676 983 q 642 1044 642 1017 q 665 1102 642 1076 q 719 1128 688 1128 q 764 1110 747 1128 q 781 1065 781 1093 q 758 1008 781 1033 q 703 983 736 983 m 600 1150 l 538 1200 l 701 1371 l 790 1299 l 600 1150 z "},"Ǚ":{"ha":875,"x_min":107,"x_max":878,"o":"m 124 422 l 221 908 l 371 908 l 269 400 q 257 293 257 342 q 294 159 257 206 q 418 113 332 113 q 542 171 490 113 q 622 367 594 229 l 731 908 l 878 908 l 768 367 q 638 74 728 164 q 413 -17 547 -17 q 184 58 261 -17 q 107 285 107 133 q 112 351 107 315 q 124 422 117 388 m 433 983 q 389 1000 406 983 q 372 1044 372 1017 q 394 1102 372 1076 q 450 1128 417 1128 q 494 1110 476 1128 q 511 1065 511 1093 q 488 1008 511 1033 q 433 983 465 983 m 703 983 q 659 1000 676 983 q 642 1044 642 1017 q 665 1102 642 1076 q 719 1128 688 1128 q 764 1110 747 1128 q 781 1065 781 1093 q 758 1008 781 1033 q 703 983 736 983 m 529 1175 l 426 1308 l 497 1353 l 607 1256 l 613 1256 l 760 1353 l 818 1308 l 668 1175 l 529 1175 z "},"Ǜ":{"ha":875,"x_min":107,"x_max":878,"o":"m 124 422 l 221 908 l 371 908 l 269 400 q 257 293 257 342 q 294 159 257 206 q 418 113 332 113 q 542 171 490 113 q 622 367 594 229 l 731 908 l 878 908 l 768 367 q 638 74 728 164 q 413 -17 547 -17 q 184 58 261 -17 q 107 285 107 133 q 112 351 107 315 q 124 422 117 388 m 433 983 q 389 1000 406 983 q 372 1044 372 1017 q 394 1102 372 1076 q 450 1128 417 1128 q 494 1110 476 1128 q 511 1065 511 1093 q 488 1008 511 1033 q 433 983 465 983 m 703 983 q 659 1000 676 983 q 642 1044 642 1017 q 665 1102 642 1076 q 719 1128 688 1128 q 764 1110 747 1128 q 781 1065 781 1093 q 758 1008 781 1033 q 703 983 736 983 m 583 1143 l 450 1318 l 561 1372 l 660 1181 l 583 1143 z "},"Ụ":{"ha":875,"x_min":107,"x_max":878,"o":"m 124 422 l 221 908 l 371 908 l 269 400 q 257 293 257 342 q 294 159 257 206 q 418 113 332 113 q 542 171 490 113 q 622 367 594 229 l 731 908 l 878 908 l 768 367 q 638 74 728 164 q 413 -17 547 -17 q 184 58 261 -17 q 107 285 107 133 q 112 351 107 315 q 124 422 117 388 m 332 -296 q 272 -276 299 -296 q 246 -218 246 -256 q 276 -149 246 -178 q 346 -121 306 -121 q 406 -141 379 -121 q 432 -199 432 -161 q 403 -268 432 -240 q 332 -296 374 -296 z "},"Ủ":{"ha":875,"x_min":107,"x_max":878,"o":"m 124 422 l 221 908 l 371 908 l 269 400 q 257 293 257 342 q 294 159 257 206 q 418 113 332 113 q 542 171 490 113 q 622 367 594 229 l 731 908 l 878 908 l 768 367 q 638 74 728 164 q 413 -17 547 -17 q 184 58 261 -17 q 107 285 107 133 q 112 351 107 315 q 124 422 117 388 m 493 964 l 492 1032 q 546 1050 524 1039 q 571 1083 568 1061 q 551 1120 575 1107 q 468 1136 526 1133 l 503 1221 q 658 1187 613 1218 q 693 1101 704 1156 q 667 1044 686 1068 q 622 1004 649 1021 q 561 978 594 988 q 493 964 528 968 z "},"Ų":{"ha":875,"x_min":107,"x_max":878,"o":"m 878 908 l 768 367 q 727 218 751 281 q 669 112 703 156 q 590 40 635 68 q 490 -10 546 11 q 381 -77 414 -36 q 347 -153 347 -118 q 362 -189 347 -176 q 396 -201 376 -201 q 439 -187 417 -201 l 469 -264 q 408 -290 443 -281 q 344 -300 374 -300 q 259 -274 292 -300 q 226 -200 226 -249 q 238 -145 226 -172 q 266 -93 249 -118 q 304 -47 283 -68 q 346 -11 325 -26 q 167 79 228 6 q 107 285 107 153 q 112 351 107 315 q 124 422 117 388 l 221 908 l 371 908 l 269 400 q 257 293 257 342 q 294 159 257 206 q 418 113 332 113 q 542 171 490 113 q 622 367 594 229 l 731 908 l 878 908 z "},"Ư":{"ha":900,"x_min":107,"x_max":1057,"o":"m 124 422 l 221 908 l 371 908 l 269 400 q 257 293 257 342 q 294 159 257 206 q 418 113 332 113 q 542 171 490 113 q 622 367 594 229 l 731 908 l 814 908 q 936 1022 936 924 q 922 1085 936 1053 l 1038 1122 q 1057 1033 1057 1078 q 1005 908 1057 953 q 865 849 953 864 l 768 367 q 638 74 728 164 q 413 -17 547 -17 q 184 58 261 -17 q 107 285 107 133 q 112 351 107 315 q 124 422 117 388 z "},"Ứ":{"ha":900,"x_min":107,"x_max":1057,"o":"m 124 422 l 221 908 l 371 908 l 269 400 q 257 293 257 342 q 294 159 257 206 q 418 113 332 113 q 542 171 490 113 q 622 367 594 229 l 731 908 l 814 908 q 936 1022 936 924 q 922 1085 936 1053 l 1038 1122 q 1057 1033 1057 1078 q 1005 908 1057 953 q 865 849 953 864 l 768 367 q 638 74 728 164 q 413 -17 547 -17 q 184 58 261 -17 q 107 285 107 133 q 112 351 107 315 q 124 422 117 388 m 524 964 l 465 1050 l 715 1217 l 785 1106 l 524 964 z "},"Ừ":{"ha":900,"x_min":107,"x_max":1057,"o":"m 124 422 l 221 908 l 371 908 l 269 400 q 257 293 257 342 q 294 159 257 206 q 418 113 332 113 q 542 171 490 113 q 622 367 594 229 l 731 908 l 814 908 q 936 1022 936 924 q 922 1085 936 1053 l 1038 1122 q 1057 1033 1057 1078 q 1005 908 1057 953 q 865 849 953 864 l 768 367 q 638 74 728 164 q 413 -17 547 -17 q 184 58 261 -17 q 107 285 107 133 q 112 351 107 315 q 124 422 117 388 m 594 950 l 388 1132 l 492 1226 l 679 1024 l 594 950 z "},"Ử":{"ha":900,"x_min":107,"x_max":1057,"o":"m 124 422 l 221 908 l 371 908 l 269 400 q 257 293 257 342 q 294 159 257 206 q 418 113 332 113 q 542 171 490 113 q 622 367 594 229 l 731 908 l 814 908 q 936 1022 936 924 q 922 1085 936 1053 l 1038 1122 q 1057 1033 1057 1078 q 1005 908 1057 953 q 865 849 953 864 l 768 367 q 638 74 728 164 q 413 -17 547 -17 q 184 58 261 -17 q 107 285 107 133 q 112 351 107 315 q 124 422 117 388 m 489 964 l 488 1032 q 542 1050 519 1039 q 567 1083 564 1061 q 547 1120 571 1107 q 464 1136 522 1133 l 499 1221 q 654 1187 608 1218 q 689 1101 700 1156 q 663 1044 682 1068 q 617 1004 644 1021 q 557 978 590 988 q 489 964 524 968 z "},"Ữ":{"ha":900,"x_min":107,"x_max":1057,"o":"m 124 422 l 221 908 l 371 908 l 269 400 q 257 293 257 342 q 294 159 257 206 q 418 113 332 113 q 542 171 490 113 q 622 367 594 229 l 731 908 l 814 908 q 936 1022 936 924 q 922 1085 936 1053 l 1038 1122 q 1057 1033 1057 1078 q 1005 908 1057 953 q 865 849 953 864 l 768 367 q 638 74 728 164 q 413 -17 547 -17 q 184 58 261 -17 q 107 285 107 133 q 112 351 107 315 q 124 422 117 388 m 653 972 q 592 986 617 972 q 547 1017 567 1000 q 510 1049 528 1035 q 474 1063 493 1063 q 431 1043 450 1063 q 400 982 413 1024 l 299 990 q 369 1130 318 1085 q 489 1175 421 1175 q 550 1161 525 1175 q 594 1131 575 1147 q 631 1100 614 1114 q 668 1086 647 1086 q 742 1167 715 1086 l 843 1158 q 772 1018 824 1064 q 653 972 721 972 z "},"Ự":{"ha":900,"x_min":107,"x_max":1057,"o":"m 124 422 l 221 908 l 371 908 l 269 400 q 257 293 257 342 q 294 159 257 206 q 418 113 332 113 q 542 171 490 113 q 622 367 594 229 l 731 908 l 814 908 q 936 1022 936 924 q 922 1085 936 1053 l 1038 1122 q 1057 1033 1057 1078 q 1005 908 1057 953 q 865 849 953 864 l 768 367 q 638 74 728 164 q 413 -17 547 -17 q 184 58 261 -17 q 107 285 107 133 q 112 351 107 315 q 124 422 117 388 m 335 -296 q 275 -276 301 -296 q 249 -218 249 -256 q 278 -149 249 -178 q 349 -121 308 -121 q 408 -141 382 -121 q 435 -199 435 -161 q 406 -268 435 -240 q 335 -296 376 -296 z "},"Ẁ":{"ha":1076,"x_min":119,"x_max":1156,"o":"m 119 0 l 142 908 l 294 908 l 274 442 q 264 295 268 368 q 253 147 260 222 l 258 147 q 321 296 289 222 q 382 442 353 369 l 589 908 l 718 908 l 726 442 q 722 147 726 294 l 728 147 q 782 296 754 222 q 836 442 810 369 l 1011 908 l 1156 908 l 792 0 l 603 0 l 600 494 q 603 598 600 542 q 608 707 606 654 l 603 707 q 562 601 583 654 q 518 494 540 547 l 306 0 l 119 0 m 692 950 l 485 1132 l 589 1226 l 776 1024 l 692 950 z "},"Ẃ":{"ha":1076,"x_min":119,"x_max":1156,"o":"m 119 0 l 142 908 l 294 908 l 274 442 q 264 295 268 368 q 253 147 260 222 l 258 147 q 321 296 289 222 q 382 442 353 369 l 589 908 l 718 908 l 726 442 q 722 147 726 294 l 728 147 q 782 296 754 222 q 836 442 810 369 l 1011 908 l 1156 908 l 792 0 l 603 0 l 600 494 q 603 598 600 542 q 608 707 606 654 l 603 707 q 562 601 583 654 q 518 494 540 547 l 306 0 l 119 0 m 621 964 l 563 1050 l 813 1217 l 882 1106 l 621 964 z "},"Ŵ":{"ha":1076,"x_min":119,"x_max":1156,"o":"m 119 0 l 142 908 l 294 908 l 274 442 q 264 295 268 368 q 253 147 260 222 l 258 147 q 321 296 289 222 q 382 442 353 369 l 589 908 l 718 908 l 726 442 q 722 147 726 294 l 728 147 q 782 296 754 222 q 836 442 810 369 l 1011 908 l 1156 908 l 792 0 l 603 0 l 600 494 q 603 598 600 542 q 608 707 606 654 l 603 707 q 562 601 583 654 q 518 494 540 547 l 306 0 l 119 0 m 500 961 l 438 1011 l 600 1161 l 772 1161 l 879 1007 l 804 963 l 682 1085 l 676 1085 l 500 961 z "},"Ẅ":{"ha":1076,"x_min":119,"x_max":1156,"o":"m 119 0 l 142 908 l 294 908 l 274 442 q 264 295 268 368 q 253 147 260 222 l 258 147 q 321 296 289 222 q 382 442 353 369 l 589 908 l 718 908 l 726 442 q 722 147 726 294 l 728 147 q 782 296 754 222 q 836 442 810 369 l 1011 908 l 1156 908 l 792 0 l 603 0 l 600 494 q 603 598 600 542 q 608 707 606 654 l 603 707 q 562 601 583 654 q 518 494 540 547 l 306 0 l 119 0 m 519 983 q 471 1001 490 983 q 451 1051 451 1019 q 476 1114 451 1086 q 538 1142 501 1142 q 585 1124 565 1142 q 606 1074 606 1106 q 581 1012 606 1040 q 519 983 556 983 m 794 983 q 746 1001 765 983 q 726 1051 726 1019 q 751 1114 726 1086 q 813 1142 776 1142 q 860 1124 840 1142 q 881 1074 881 1106 q 856 1012 881 1040 q 794 983 831 983 z "},"Ỳ":{"ha":675,"x_min":114,"x_max":792,"o":"m 192 0 l 260 342 l 114 908 l 268 908 l 319 669 q 339 569 331 617 q 358 469 347 522 l 364 469 q 422 571 394 522 q 482 671 450 619 l 631 908 l 792 908 l 410 342 l 342 0 l 192 0 m 488 950 l 281 1132 l 385 1226 l 572 1024 l 488 950 z "},"Ý":{"ha":675,"x_min":114,"x_max":792,"o":"m 192 0 l 260 342 l 114 908 l 268 908 l 319 669 q 339 569 331 617 q 358 469 347 522 l 364 469 q 422 571 394 522 q 482 671 450 619 l 631 908 l 792 908 l 410 342 l 342 0 l 192 0 m 417 964 l 358 1050 l 608 1217 l 678 1106 l 417 964 z "},"Ŷ":{"ha":675,"x_min":114,"x_max":792,"o":"m 192 0 l 260 342 l 114 908 l 268 908 l 319 669 q 339 569 331 617 q 358 469 347 522 l 364 469 q 422 571 394 522 q 482 671 450 619 l 631 908 l 792 908 l 410 342 l 342 0 l 192 0 m 296 961 l 233 1011 l 396 1161 l 568 1161 l 675 1007 l 600 963 l 478 1085 l 472 1085 l 296 961 z "},"Ÿ":{"ha":675,"x_min":114,"x_max":792,"o":"m 192 0 l 260 342 l 114 908 l 268 908 l 319 669 q 339 569 331 617 q 358 469 347 522 l 364 469 q 422 571 394 522 q 482 671 450 619 l 631 908 l 792 908 l 410 342 l 342 0 l 192 0 m 315 983 q 267 1001 286 983 q 247 1051 247 1019 q 272 1114 247 1086 q 333 1142 297 1142 q 381 1124 361 1142 q 401 1074 401 1106 q 376 1012 401 1040 q 315 983 351 983 m 590 983 q 542 1001 561 983 q 522 1051 522 1019 q 547 1114 522 1086 q 608 1142 572 1142 q 656 1124 636 1142 q 676 1074 676 1106 q 651 1012 676 1040 q 590 983 626 983 z "},"Ẏ":{"ha":675,"x_min":114,"x_max":792,"o":"m 192 0 l 260 342 l 114 908 l 268 908 l 319 669 q 339 569 331 617 q 358 469 347 522 l 364 469 q 422 571 394 522 q 482 671 450 619 l 631 908 l 792 908 l 410 342 l 342 0 l 192 0 m 456 985 q 396 1004 422 985 q 369 1063 369 1024 q 399 1131 369 1103 q 469 1160 429 1160 q 529 1139 503 1160 q 556 1081 556 1118 q 526 1012 556 1039 q 456 985 497 985 z "},"Ỵ":{"ha":675,"x_min":114,"x_max":792,"o":"m 192 0 l 260 342 l 114 908 l 268 908 l 319 669 q 339 569 331 617 q 358 469 347 522 l 364 469 q 422 571 394 522 q 482 671 450 619 l 631 908 l 792 908 l 410 342 l 342 0 l 192 0 m 224 -307 q 164 -287 190 -307 q 138 -229 138 -267 q 167 -160 138 -189 q 238 -132 197 -132 q 297 -152 271 -132 q 324 -210 324 -172 q 294 -279 324 -251 q 224 -307 265 -307 z "},"Ỷ":{"ha":675,"x_min":114,"x_max":792,"o":"m 192 0 l 260 342 l 114 908 l 268 908 l 319 669 q 339 569 331 617 q 358 469 347 522 l 364 469 q 422 571 394 522 q 482 671 450 619 l 631 908 l 792 908 l 410 342 l 342 0 l 192 0 m 382 964 l 381 1032 q 435 1050 413 1039 q 460 1083 457 1061 q 440 1120 464 1107 q 357 1136 415 1133 l 392 1221 q 547 1187 501 1218 q 582 1101 593 1156 q 556 1044 575 1068 q 510 1004 538 1021 q 450 978 483 988 q 382 964 417 968 z "},"Ỹ":{"ha":675,"x_min":114,"x_max":792,"o":"m 192 0 l 260 342 l 114 908 l 268 908 l 319 669 q 339 569 331 617 q 358 469 347 522 l 364 469 q 422 571 394 522 q 482 671 450 619 l 631 908 l 792 908 l 410 342 l 342 0 l 192 0 m 546 972 q 485 986 510 972 q 440 1017 460 1000 q 403 1049 421 1035 q 367 1063 386 1063 q 324 1043 343 1063 q 293 982 306 1024 l 192 990 q 263 1130 211 1085 q 382 1175 314 1175 q 443 1161 418 1175 q 488 1131 468 1147 q 524 1100 507 1114 q 561 1086 540 1086 q 635 1167 608 1086 l 736 1158 q 665 1018 717 1064 q 546 972 614 972 z "},"Ź":{"ha":721,"x_min":-4,"x_max":761,"o":"m -4 0 l 15 90 l 557 782 l 171 782 l 196 908 l 761 908 l 743 818 l 206 126 l 631 126 l 604 0 l -4 0 m 454 964 l 396 1050 l 646 1217 l 715 1106 l 454 964 z "},"Ž":{"ha":721,"x_min":-4,"x_max":761,"o":"m -4 0 l 15 90 l 557 782 l 171 782 l 196 908 l 761 908 l 743 818 l 206 126 l 631 126 l 604 0 l -4 0 m 393 978 l 288 1133 l 361 1178 l 483 1056 l 489 1056 l 665 1178 l 728 1128 l 565 978 l 393 978 z "},"Ż":{"ha":721,"x_min":-4,"x_max":761,"o":"m -4 0 l 15 90 l 557 782 l 171 782 l 196 908 l 761 908 l 743 818 l 206 126 l 631 126 l 604 0 l -4 0 m 493 985 q 433 1004 460 985 q 407 1063 407 1024 q 437 1131 407 1103 q 507 1160 467 1160 q 567 1139 540 1160 q 593 1081 593 1118 q 564 1012 593 1039 q 493 985 535 985 z "},"Ẓ":{"ha":721,"x_min":-4,"x_max":761,"o":"m -4 0 l 15 90 l 557 782 l 171 782 l 196 908 l 761 908 l 743 818 l 206 126 l 631 126 l 604 0 l -4 0 m 249 -307 q 189 -287 215 -307 q 163 -229 163 -267 q 192 -160 163 -189 q 263 -132 222 -132 q 322 -152 296 -132 q 349 -210 349 -172 q 319 -279 349 -251 q 249 -307 290 -307 z "},"Ð":{"ha":864,"x_min":58,"x_max":828,"o":"m 58 438 l 74 510 l 172 515 l 250 908 l 435 908 q 726 817 625 908 q 828 553 828 726 q 792 321 828 424 q 692 147 757 218 q 537 38 628 76 q 333 0 446 0 l 69 0 l 157 438 l 58 438 m 243 121 l 331 121 q 470 149 407 121 q 579 232 533 178 q 650 365 625 286 q 675 543 675 443 q 611 726 675 665 q 431 788 547 788 l 375 788 l 321 515 l 511 515 l 494 438 l 306 438 l 243 121 z "},"Þ":{"ha":804,"x_min":44,"x_max":769,"o":"m 44 0 l 225 917 l 375 917 l 346 764 l 486 764 q 601 751 549 764 q 690 711 653 739 q 749 640 728 683 q 769 533 769 596 q 738 379 769 443 q 651 275 706 315 q 521 215 596 235 q 360 196 446 196 l 231 196 l 192 0 l 44 0 m 256 315 l 371 315 q 557 365 493 315 q 621 511 621 415 q 577 613 621 582 q 450 644 533 644 l 321 644 l 256 315 z "},"Ə":{"ha":906,"x_min":89,"x_max":871,"o":"m 401 -17 q 270 8 328 -17 q 172 79 213 33 q 110 190 132 125 q 89 332 89 254 q 96 417 89 381 q 115 499 103 454 l 719 499 q 721 518 721 508 q 721 539 721 528 q 678 734 721 663 q 533 806 636 806 q 419 781 469 806 q 329 721 369 756 l 264 822 q 389 902 317 871 q 551 933 461 933 q 691 907 631 933 q 791 831 751 881 q 851 712 831 782 q 871 556 871 642 q 833 324 871 429 q 732 144 796 219 q 583 26 668 68 q 401 -17 497 -17 m 413 111 q 506 131 461 111 q 589 187 551 150 q 656 274 626 224 q 701 388 685 325 l 232 388 q 232 271 222 322 q 267 184 242 219 q 329 130 292 149 q 413 111 367 111 z "},"à":{"ha":756,"x_min":49,"x_max":724,"o":"m 243 -17 q 101 47 153 -17 q 49 232 49 111 q 79 415 49 329 q 161 563 110 500 q 278 663 213 626 q 415 699 344 699 q 507 673 465 699 q 572 603 549 647 l 575 603 l 604 682 l 724 682 l 588 0 l 465 0 l 472 94 l 468 94 q 360 14 419 44 q 243 -17 301 -17 m 304 106 q 395 132 349 106 q 483 221 442 158 l 539 493 q 485 557 515 538 q 424 576 456 576 q 340 551 381 576 q 269 481 300 525 q 221 377 239 436 q 203 253 203 318 q 230 142 203 178 q 304 106 257 106 m 506 790 l 307 1024 l 435 1119 l 597 863 l 506 790 z "},"á":{"ha":756,"x_min":49,"x_max":724,"o":"m 243 -17 q 101 47 153 -17 q 49 232 49 111 q 79 415 49 329 q 161 563 110 500 q 278 663 213 626 q 415 699 344 699 q 507 673 465 699 q 572 603 549 647 l 575 603 l 604 682 l 724 682 l 588 0 l 465 0 l 472 94 l 468 94 q 360 14 419 44 q 243 -17 301 -17 m 304 106 q 395 132 349 106 q 483 221 442 158 l 539 493 q 485 557 515 538 q 424 576 456 576 q 340 551 381 576 q 269 481 300 525 q 221 377 239 436 q 203 253 203 318 q 230 142 203 178 q 304 106 257 106 m 426 804 l 360 889 l 606 1111 l 696 996 l 426 804 z "},"â":{"ha":756,"x_min":49,"x_max":724,"o":"m 243 -17 q 101 47 153 -17 q 49 232 49 111 q 79 415 49 329 q 161 563 110 500 q 278 663 213 626 q 415 699 344 699 q 507 673 465 699 q 572 603 549 647 l 575 603 l 604 682 l 724 682 l 588 0 l 465 0 l 472 94 l 468 94 q 360 14 419 44 q 243 -17 301 -17 m 304 106 q 395 132 349 106 q 483 221 442 158 l 539 493 q 485 557 515 538 q 424 576 456 576 q 340 551 381 576 q 269 481 300 525 q 221 377 239 436 q 203 253 203 318 q 230 142 203 178 q 304 106 257 106 m 288 783 l 233 846 l 419 1031 l 582 1031 l 703 842 l 633 783 l 494 931 l 489 931 l 288 783 z "},"ã":{"ha":756,"x_min":49,"x_max":749,"o":"m 243 -17 q 101 47 153 -17 q 49 232 49 111 q 79 415 49 329 q 161 563 110 500 q 278 663 213 626 q 415 699 344 699 q 507 673 465 699 q 572 603 549 647 l 575 603 l 604 682 l 724 682 l 588 0 l 465 0 l 472 94 l 468 94 q 360 14 419 44 q 243 -17 301 -17 m 304 106 q 395 132 349 106 q 483 221 442 158 l 539 493 q 485 557 515 538 q 424 576 456 576 q 340 551 381 576 q 269 481 300 525 q 221 377 239 436 q 203 253 203 318 q 230 142 203 178 q 304 106 257 106 m 567 799 q 509 815 532 799 q 467 851 486 831 q 431 887 449 871 q 390 903 414 903 q 318 808 338 903 l 217 814 q 281 962 235 910 q 399 1014 326 1014 q 457 998 433 1014 q 499 963 481 982 q 534 927 517 943 q 575 911 551 911 q 647 1004 631 911 l 749 999 q 685 851 731 904 q 567 799 639 799 z "},"ä":{"ha":756,"x_min":49,"x_max":724,"o":"m 243 -17 q 101 47 153 -17 q 49 232 49 111 q 79 415 49 329 q 161 563 110 500 q 278 663 213 626 q 415 699 344 699 q 507 673 465 699 q 572 603 549 647 l 575 603 l 604 682 l 724 682 l 588 0 l 465 0 l 472 94 l 468 94 q 360 14 419 44 q 243 -17 301 -17 m 304 106 q 395 132 349 106 q 483 221 442 158 l 539 493 q 485 557 515 538 q 424 576 456 576 q 340 551 381 576 q 269 481 300 525 q 221 377 239 436 q 203 253 203 318 q 230 142 203 178 q 304 106 257 106 m 328 806 q 278 824 297 806 q 258 875 258 842 q 284 938 258 911 q 346 965 310 965 q 395 947 375 965 q 415 894 415 928 q 390 831 415 857 q 328 806 364 806 m 603 806 q 553 824 572 806 q 533 875 533 842 q 559 938 533 911 q 621 965 585 965 q 671 947 651 965 q 690 894 690 928 q 665 831 690 857 q 603 806 639 806 z "},"ā":{"ha":756,"x_min":49,"x_max":724,"o":"m 243 -17 q 101 47 153 -17 q 49 232 49 111 q 79 415 49 329 q 161 563 110 500 q 278 663 213 626 q 415 699 344 699 q 507 673 465 699 q 572 603 549 647 l 575 603 l 604 682 l 724 682 l 588 0 l 465 0 l 472 94 l 468 94 q 360 14 419 44 q 243 -17 301 -17 m 304 106 q 395 132 349 106 q 483 221 442 158 l 539 493 q 485 557 515 538 q 424 576 456 576 q 340 551 381 576 q 269 481 300 525 q 221 377 239 436 q 203 253 203 318 q 230 142 203 178 q 304 106 257 106 m 275 829 l 294 928 l 668 928 l 650 829 l 275 829 z "},"ă":{"ha":756,"x_min":49,"x_max":724,"o":"m 243 -17 q 101 47 153 -17 q 49 232 49 111 q 79 415 49 329 q 161 563 110 500 q 278 663 213 626 q 415 699 344 699 q 507 673 465 699 q 572 603 549 647 l 575 603 l 604 682 l 724 682 l 588 0 l 465 0 l 472 94 l 468 94 q 360 14 419 44 q 243 -17 301 -17 m 304 106 q 395 132 349 106 q 483 221 442 158 l 539 493 q 485 557 515 538 q 424 576 456 576 q 340 551 381 576 q 269 481 300 525 q 221 377 239 436 q 203 253 203 318 q 230 142 203 178 q 304 106 257 106 m 458 793 q 363 810 401 793 q 303 858 325 828 q 274 926 281 888 q 271 1008 267 965 l 369 1024 q 374 976 368 999 q 392 935 379 953 q 426 907 406 918 q 478 896 447 896 q 533 907 508 896 q 577 935 558 918 q 610 976 596 953 q 632 1024 624 999 l 724 1008 q 693 926 714 965 q 640 858 672 888 q 562 810 607 828 q 458 793 517 793 z "},"å":{"ha":756,"x_min":49,"x_max":724,"o":"m 243 -17 q 101 47 153 -17 q 49 232 49 111 q 79 415 49 329 q 161 563 110 500 q 278 663 213 626 q 415 699 344 699 q 507 673 465 699 q 572 603 549 647 l 575 603 l 604 682 l 724 682 l 588 0 l 465 0 l 472 94 l 468 94 q 360 14 419 44 q 243 -17 301 -17 m 304 106 q 395 132 349 106 q 483 221 442 158 l 539 493 q 485 557 515 538 q 424 576 456 576 q 340 551 381 576 q 269 481 300 525 q 221 377 239 436 q 203 253 203 318 q 230 142 203 178 q 304 106 257 106 m 464 781 q 360 811 401 781 q 318 900 318 842 q 332 960 318 932 q 369 1010 346 989 q 426 1044 393 1032 q 500 1057 460 1057 q 606 1026 564 1057 q 647 938 647 996 q 633 877 647 906 q 595 827 619 849 q 538 793 571 806 q 464 781 504 781 m 474 843 q 528 870 506 843 q 550 933 550 897 q 535 976 550 958 q 492 994 519 994 q 437 967 460 994 q 414 904 414 940 q 429 860 414 876 q 474 843 444 843 z "},"ǎ":{"ha":756,"x_min":49,"x_max":724,"o":"m 243 -17 q 101 47 153 -17 q 49 232 49 111 q 79 415 49 329 q 161 563 110 500 q 278 663 213 626 q 415 699 344 699 q 507 673 465 699 q 572 603 549 647 l 575 603 l 604 682 l 724 682 l 588 0 l 465 0 l 472 94 l 468 94 q 360 14 419 44 q 243 -17 301 -17 m 304 106 q 395 132 349 106 q 483 221 442 158 l 539 493 q 485 557 515 538 q 424 576 456 576 q 340 551 381 576 q 269 481 300 525 q 221 377 239 436 q 203 253 203 318 q 230 142 203 178 q 304 106 257 106 m 367 801 l 244 990 l 314 1047 l 454 901 l 460 901 l 660 1047 l 715 986 l 528 801 l 367 801 z "},"ạ":{"ha":756,"x_min":49,"x_max":724,"o":"m 243 -17 q 101 47 153 -17 q 49 232 49 111 q 79 415 49 329 q 161 563 110 500 q 278 663 213 626 q 415 699 344 699 q 507 673 465 699 q 572 603 549 647 l 575 603 l 604 682 l 724 682 l 588 0 l 465 0 l 472 94 l 468 94 q 360 14 419 44 q 243 -17 301 -17 m 304 106 q 395 132 349 106 q 483 221 442 158 l 539 493 q 485 557 515 538 q 424 576 456 576 q 340 551 381 576 q 269 481 300 525 q 221 377 239 436 q 203 253 203 318 q 230 142 203 178 q 304 106 257 106 m 285 -296 q 225 -276 251 -296 q 199 -218 199 -256 q 228 -149 199 -178 q 299 -121 258 -121 q 358 -141 332 -121 q 385 -199 385 -161 q 356 -268 385 -240 q 285 -296 326 -296 z "},"ả":{"ha":756,"x_min":49,"x_max":724,"o":"m 243 -17 q 101 47 153 -17 q 49 232 49 111 q 79 415 49 329 q 161 563 110 500 q 278 663 213 626 q 415 699 344 699 q 507 673 465 699 q 572 603 549 647 l 575 603 l 604 682 l 724 682 l 588 0 l 465 0 l 472 94 l 468 94 q 360 14 419 44 q 243 -17 301 -17 m 304 106 q 395 132 349 106 q 483 221 442 158 l 539 493 q 485 557 515 538 q 424 576 456 576 q 340 551 381 576 q 269 481 300 525 q 221 377 239 436 q 203 253 203 318 q 230 142 203 178 q 304 106 257 106 m 401 792 l 400 860 q 453 879 431 867 q 479 917 475 892 q 379 978 492 972 l 407 1079 q 569 1037 524 1076 q 603 929 615 997 q 577 872 596 896 q 531 832 558 849 q 470 806 504 815 q 401 792 436 796 z "},"ấ":{"ha":756,"x_min":49,"x_max":850,"o":"m 243 -17 q 101 47 153 -17 q 49 232 49 111 q 79 415 49 329 q 161 563 110 500 q 278 663 213 626 q 415 699 344 699 q 507 673 465 699 q 572 603 549 647 l 575 603 l 604 682 l 724 682 l 588 0 l 465 0 l 472 94 l 468 94 q 360 14 419 44 q 243 -17 301 -17 m 304 106 q 395 132 349 106 q 483 221 442 158 l 539 493 q 485 557 515 538 q 424 576 456 576 q 340 551 381 576 q 269 481 300 525 q 221 377 239 436 q 203 253 203 318 q 230 142 203 178 q 304 106 257 106 m 319 789 l 274 853 l 431 976 l 558 976 l 671 844 l 610 789 l 489 889 l 483 889 l 319 789 m 681 890 l 626 946 l 772 1106 l 850 1038 l 681 890 z "},"ầ":{"ha":756,"x_min":49,"x_max":724,"o":"m 243 -17 q 101 47 153 -17 q 49 232 49 111 q 79 415 49 329 q 161 563 110 500 q 278 663 213 626 q 415 699 344 699 q 507 673 465 699 q 572 603 549 647 l 575 603 l 604 682 l 724 682 l 588 0 l 465 0 l 472 94 l 468 94 q 360 14 419 44 q 243 -17 301 -17 m 304 106 q 395 132 349 106 q 483 221 442 158 l 539 493 q 485 557 515 538 q 424 576 456 576 q 340 551 381 576 q 269 481 300 525 q 221 377 239 436 q 203 253 203 318 q 230 142 203 178 q 304 106 257 106 m 319 789 l 274 853 l 431 976 l 558 976 l 671 844 l 610 789 l 489 889 l 483 889 l 319 789 m 250 886 l 128 1054 l 226 1107 l 321 932 l 250 886 z "},"ẩ":{"ha":756,"x_min":49,"x_max":832,"o":"m 243 -17 q 101 47 153 -17 q 49 232 49 111 q 79 415 49 329 q 161 563 110 500 q 278 663 213 626 q 415 699 344 699 q 507 673 465 699 q 572 603 549 647 l 575 603 l 604 682 l 724 682 l 588 0 l 465 0 l 472 94 l 468 94 q 360 14 419 44 q 243 -17 301 -17 m 304 106 q 395 132 349 106 q 483 221 442 158 l 539 493 q 485 557 515 538 q 424 576 456 576 q 340 551 381 576 q 269 481 300 525 q 221 377 239 436 q 203 253 203 318 q 230 142 203 178 q 304 106 257 106 m 319 789 l 274 853 l 431 976 l 558 976 l 671 844 l 610 789 l 489 889 l 483 889 l 319 789 m 657 889 l 653 947 q 692 965 676 954 q 711 994 708 975 q 697 1031 715 1018 q 628 1046 679 1043 l 654 1118 q 792 1088 751 1115 q 822 1011 832 1060 q 801 959 817 981 q 763 924 785 938 q 713 901 740 910 q 657 889 686 893 z "},"ẫ":{"ha":756,"x_min":49,"x_max":724,"o":"m 243 -17 q 101 47 153 -17 q 49 232 49 111 q 79 415 49 329 q 161 563 110 500 q 278 663 213 626 q 415 699 344 699 q 507 673 465 699 q 572 603 549 647 l 575 603 l 604 682 l 724 682 l 588 0 l 465 0 l 472 94 l 468 94 q 360 14 419 44 q 243 -17 301 -17 m 304 106 q 395 132 349 106 q 483 221 442 158 l 539 493 q 485 557 515 538 q 424 576 456 576 q 340 551 381 576 q 269 481 300 525 q 221 377 239 436 q 203 253 203 318 q 230 142 203 178 q 304 106 257 106 m 319 789 l 274 853 l 426 968 l 556 968 l 671 844 l 610 789 l 486 881 l 481 881 l 319 789 m 582 990 q 532 999 553 990 q 494 1019 511 1008 q 463 1040 478 1031 q 429 1049 447 1049 q 375 993 397 1049 l 300 1001 q 353 1104 319 1068 q 438 1140 386 1140 q 488 1131 467 1140 q 525 1111 508 1122 q 556 1091 542 1100 q 589 1082 571 1082 q 643 1138 624 1082 l 718 1129 q 667 1026 700 1063 q 582 990 633 990 z "},"ậ":{"ha":756,"x_min":49,"x_max":724,"o":"m 243 -17 q 101 47 153 -17 q 49 232 49 111 q 79 415 49 329 q 161 563 110 500 q 278 663 213 626 q 415 699 344 699 q 507 673 465 699 q 572 603 549 647 l 575 603 l 604 682 l 724 682 l 588 0 l 465 0 l 472 94 l 468 94 q 360 14 419 44 q 243 -17 301 -17 m 304 106 q 395 132 349 106 q 483 221 442 158 l 539 493 q 485 557 515 538 q 424 576 456 576 q 340 551 381 576 q 269 481 300 525 q 221 377 239 436 q 203 253 203 318 q 230 142 203 178 q 304 106 257 106 m 288 783 l 233 846 l 419 1031 l 582 1031 l 703 842 l 633 783 l 494 931 l 489 931 l 288 783 m 285 -296 q 225 -276 251 -296 q 199 -218 199 -256 q 228 -149 199 -178 q 299 -121 258 -121 q 358 -141 332 -121 q 385 -199 385 -161 q 356 -268 385 -240 q 285 -296 326 -296 z "},"ắ":{"ha":756,"x_min":49,"x_max":747,"o":"m 243 -17 q 101 47 153 -17 q 49 232 49 111 q 79 415 49 329 q 161 563 110 500 q 278 663 213 626 q 415 699 344 699 q 507 673 465 699 q 572 603 549 647 l 575 603 l 604 682 l 724 682 l 588 0 l 465 0 l 472 94 l 468 94 q 360 14 419 44 q 243 -17 301 -17 m 304 106 q 395 132 349 106 q 483 221 442 158 l 539 493 q 485 557 515 538 q 424 576 456 576 q 340 551 381 576 q 269 481 300 525 q 221 377 239 436 q 203 253 203 318 q 230 142 203 178 q 304 106 257 106 m 482 793 q 387 810 425 793 q 326 858 349 828 q 297 926 304 888 q 294 1008 290 965 l 385 1024 q 389 972 383 997 q 408 928 394 947 q 445 899 422 910 q 500 888 468 888 q 558 899 532 888 q 606 928 585 910 q 641 972 626 947 q 664 1024 656 997 l 747 1008 q 717 926 738 965 q 663 858 696 888 q 585 810 631 828 q 482 793 540 793 m 518 981 l 457 1038 l 615 1203 l 699 1122 l 518 981 z "},"ằ":{"ha":756,"x_min":49,"x_max":747,"o":"m 243 -17 q 101 47 153 -17 q 49 232 49 111 q 79 415 49 329 q 161 563 110 500 q 278 663 213 626 q 415 699 344 699 q 507 673 465 699 q 572 603 549 647 l 575 603 l 604 682 l 724 682 l 588 0 l 465 0 l 472 94 l 468 94 q 360 14 419 44 q 243 -17 301 -17 m 304 106 q 395 132 349 106 q 483 221 442 158 l 539 493 q 485 557 515 538 q 424 576 456 576 q 340 551 381 576 q 269 481 300 525 q 221 377 239 436 q 203 253 203 318 q 230 142 203 178 q 304 106 257 106 m 482 793 q 387 810 425 793 q 326 858 349 828 q 297 926 304 888 q 294 1008 290 965 l 385 1024 q 389 972 383 997 q 408 928 394 947 q 445 899 422 910 q 500 888 468 888 q 558 899 532 888 q 606 928 585 910 q 641 972 626 947 q 664 1024 656 997 l 747 1008 q 717 926 738 965 q 663 858 696 888 q 585 810 631 828 q 482 793 540 793 m 513 974 l 388 1142 l 494 1206 l 592 1017 l 513 974 z "},"ẳ":{"ha":756,"x_min":49,"x_max":747,"o":"m 243 -17 q 101 47 153 -17 q 49 232 49 111 q 79 415 49 329 q 161 563 110 500 q 278 663 213 626 q 415 699 344 699 q 507 673 465 699 q 572 603 549 647 l 575 603 l 604 682 l 724 682 l 588 0 l 465 0 l 472 94 l 468 94 q 360 14 419 44 q 243 -17 301 -17 m 304 106 q 395 132 349 106 q 483 221 442 158 l 539 493 q 485 557 515 538 q 424 576 456 576 q 340 551 381 576 q 269 481 300 525 q 221 377 239 436 q 203 253 203 318 q 230 142 203 178 q 304 106 257 106 m 481 793 q 385 810 424 793 q 325 858 347 828 q 297 926 303 888 q 296 1008 290 965 l 385 1024 q 389 972 383 997 q 408 928 394 947 q 444 899 421 910 q 499 888 467 888 q 557 899 531 888 q 604 928 583 910 q 640 972 625 947 q 664 1024 656 997 l 747 1008 q 716 926 738 965 q 662 858 694 888 q 584 810 629 828 q 481 793 539 793 m 469 958 l 468 1018 q 513 1034 494 1024 q 533 1065 531 1044 q 519 1101 539 1089 q 444 1117 499 1114 l 475 1207 q 615 1172 575 1204 q 644 1082 656 1139 q 622 1028 639 1050 q 582 993 606 1007 q 529 971 558 979 q 469 958 500 963 z "},"ẵ":{"ha":756,"x_min":49,"x_max":750,"o":"m 243 -17 q 101 47 153 -17 q 49 232 49 111 q 79 415 49 329 q 161 563 110 500 q 278 663 213 626 q 415 699 344 699 q 507 673 465 699 q 572 603 549 647 l 575 603 l 604 682 l 724 682 l 588 0 l 465 0 l 472 94 l 468 94 q 360 14 419 44 q 243 -17 301 -17 m 304 106 q 395 132 349 106 q 483 221 442 158 l 539 493 q 485 557 515 538 q 424 576 456 576 q 340 551 381 576 q 269 481 300 525 q 221 377 239 436 q 203 253 203 318 q 230 142 203 178 q 304 106 257 106 m 483 793 q 395 806 431 793 q 339 841 360 819 q 310 890 318 863 q 304 947 301 918 l 389 961 q 415 903 390 929 q 499 878 439 878 q 592 903 558 878 q 638 961 626 929 l 718 947 q 692 890 710 918 q 645 841 674 863 q 576 806 617 819 q 483 793 536 793 m 604 989 q 553 998 575 989 q 515 1018 532 1007 q 484 1038 499 1029 q 451 1047 469 1047 q 399 992 418 1047 l 315 1000 q 369 1103 333 1067 q 460 1139 406 1139 q 510 1130 489 1139 q 547 1110 531 1121 q 578 1090 564 1099 q 611 1081 593 1081 q 643 1094 631 1081 q 667 1136 656 1107 l 750 1128 q 694 1025 731 1061 q 604 989 657 989 z "},"ặ":{"ha":756,"x_min":49,"x_max":724,"o":"m 243 -17 q 101 47 153 -17 q 49 232 49 111 q 79 415 49 329 q 161 563 110 500 q 278 663 213 626 q 415 699 344 699 q 507 673 465 699 q 572 603 549 647 l 575 603 l 604 682 l 724 682 l 588 0 l 465 0 l 472 94 l 468 94 q 360 14 419 44 q 243 -17 301 -17 m 304 106 q 395 132 349 106 q 483 221 442 158 l 539 493 q 485 557 515 538 q 424 576 456 576 q 340 551 381 576 q 269 481 300 525 q 221 377 239 436 q 203 253 203 318 q 230 142 203 178 q 304 106 257 106 m 458 793 q 363 810 401 793 q 303 858 325 828 q 274 926 281 888 q 271 1008 267 965 l 369 1024 q 374 976 368 999 q 392 935 379 953 q 426 907 406 918 q 478 896 447 896 q 533 907 508 896 q 577 935 558 918 q 610 976 596 953 q 632 1024 624 999 l 724 1008 q 693 926 714 965 q 640 858 672 888 q 562 810 607 828 q 458 793 517 793 m 285 -296 q 225 -276 251 -296 q 199 -218 199 -256 q 228 -149 199 -178 q 299 -121 258 -121 q 358 -141 332 -121 q 385 -199 385 -161 q 356 -268 385 -240 q 285 -296 326 -296 z "},"ą":{"ha":756,"x_min":49,"x_max":724,"o":"m 438 -289 q 357 -265 389 -289 q 325 -192 325 -240 q 339 -130 325 -160 q 374 -74 353 -100 q 419 -28 394 -49 q 467 6 444 -8 l 472 96 l 469 96 q 361 15 421 46 q 243 -17 301 -17 q 101 47 153 -17 q 49 232 49 111 q 79 415 49 329 q 161 563 110 500 q 278 663 213 626 q 415 699 344 699 q 508 672 465 699 q 572 601 550 646 l 575 601 l 604 682 l 724 682 l 588 0 q 477 -67 517 -28 q 438 -150 438 -106 q 452 -184 438 -172 q 486 -196 467 -196 q 535 -181 511 -196 l 563 -247 q 501 -277 536 -265 q 438 -289 467 -289 m 304 106 q 393 132 344 106 q 483 221 442 158 l 539 494 q 485 558 515 539 q 424 576 456 576 q 340 551 381 576 q 269 481 300 525 q 221 377 239 436 q 203 253 203 318 q 230 142 203 178 q 304 106 257 106 z "},"æ":{"ha":1053,"x_min":38,"x_max":1008,"o":"m 38 151 q 70 276 38 225 q 160 359 103 326 q 297 407 218 392 q 469 425 376 422 q 474 469 474 451 q 369 581 474 581 q 281 565 328 581 q 186 525 235 550 l 150 629 q 273 679 208 660 q 403 699 338 699 q 513 672 469 699 q 574 586 557 644 q 676 669 619 639 q 792 699 733 699 q 892 679 851 699 q 959 626 933 660 q 997 546 985 592 q 1008 447 1008 500 q 997 361 1008 403 q 979 303 986 319 l 581 303 q 612 152 568 207 q 733 97 656 97 q 806 114 769 97 q 872 151 843 131 l 926 56 q 830 5 886 26 q 703 -17 774 -17 q 572 19 629 -17 q 486 106 514 54 q 357 15 422 47 q 217 -17 292 -17 q 90 28 142 -17 q 38 151 38 72 m 593 397 l 878 397 q 883 427 881 414 q 885 457 885 440 q 860 545 885 507 q 774 583 836 583 q 669 534 721 583 q 593 397 617 485 m 450 331 q 251 289 319 328 q 183 182 183 250 q 209 121 183 142 q 275 100 235 100 q 357 124 311 100 q 450 200 403 149 q 444 264 444 235 q 450 331 444 293 z "},"ç":{"ha":610,"x_min":46,"x_max":617,"o":"m 306 -17 q 201 2 249 -17 q 119 56 154 21 q 65 143 85 92 q 46 261 46 194 q 77 433 46 353 q 162 572 108 513 q 287 665 215 631 q 438 699 358 699 q 544 674 500 699 q 617 615 589 649 l 533 525 q 486 565 510 553 q 428 578 463 578 q 340 553 382 578 q 267 485 299 528 q 217 387 236 443 q 199 267 199 331 q 233 147 199 189 q 336 104 267 104 q 408 120 376 104 q 465 157 439 136 l 529 63 q 437 9 490 35 q 306 -17 383 -17 m 94 -324 l 93 -256 q 213 -235 176 -251 q 253 -186 249 -218 q 234 -149 254 -162 q 157 -128 214 -135 l 244 4 l 342 4 l 285 -87 q 355 -122 335 -100 q 371 -182 375 -144 q 290 -286 363 -251 q 94 -324 217 -321 z "},"ć":{"ha":610,"x_min":46,"x_max":681,"o":"m 306 -17 q 201 2 249 -17 q 119 56 154 21 q 65 143 85 92 q 46 261 46 194 q 77 433 46 353 q 162 572 108 513 q 287 665 215 631 q 438 699 358 699 q 544 674 500 699 q 617 615 589 649 l 533 525 q 486 565 510 553 q 428 578 463 578 q 340 553 382 578 q 267 485 299 528 q 217 387 236 443 q 199 267 199 331 q 233 147 199 189 q 336 104 267 104 q 408 120 376 104 q 465 157 439 136 l 529 63 q 437 9 490 35 q 306 -17 383 -17 m 411 804 l 344 889 l 590 1111 l 681 996 l 411 804 z "},"ĉ":{"ha":610,"x_min":46,"x_max":688,"o":"m 306 -17 q 201 2 249 -17 q 119 56 154 21 q 65 143 85 92 q 46 261 46 194 q 77 433 46 353 q 162 572 108 513 q 287 665 215 631 q 438 699 358 699 q 544 674 500 699 q 617 615 589 649 l 533 525 q 486 565 510 553 q 428 578 463 578 q 340 553 382 578 q 267 485 299 528 q 217 387 236 443 q 199 267 199 331 q 233 147 199 189 q 336 104 267 104 q 408 120 376 104 q 465 157 439 136 l 529 63 q 437 9 490 35 q 306 -17 383 -17 m 272 783 l 218 846 l 404 1031 l 567 1031 l 688 842 l 618 783 l 479 931 l 474 931 l 272 783 z "},"č":{"ha":610,"x_min":46,"x_max":700,"o":"m 306 -17 q 201 2 249 -17 q 119 56 154 21 q 65 143 85 92 q 46 261 46 194 q 77 433 46 353 q 162 572 108 513 q 287 665 215 631 q 438 699 358 699 q 544 674 500 699 q 617 615 589 649 l 533 525 q 486 565 510 553 q 428 578 463 578 q 340 553 382 578 q 267 485 299 528 q 217 387 236 443 q 199 267 199 331 q 233 147 199 189 q 336 104 267 104 q 408 120 376 104 q 465 157 439 136 l 529 63 q 437 9 490 35 q 306 -17 383 -17 m 351 801 l 229 990 l 299 1047 l 439 901 l 444 901 l 644 1047 l 700 986 l 513 801 l 351 801 z "},"ċ":{"ha":610,"x_min":46,"x_max":617,"o":"m 306 -17 q 201 2 249 -17 q 119 56 154 21 q 65 143 85 92 q 46 261 46 194 q 77 433 46 353 q 162 572 108 513 q 287 665 215 631 q 438 699 358 699 q 544 674 500 699 q 617 615 589 649 l 533 525 q 486 565 510 553 q 428 578 463 578 q 340 553 382 578 q 267 485 299 528 q 217 387 236 443 q 199 267 199 331 q 233 147 199 189 q 336 104 267 104 q 408 120 376 104 q 465 157 439 136 l 529 63 q 437 9 490 35 q 306 -17 383 -17 m 451 803 q 392 823 418 803 q 365 881 365 843 q 395 949 365 921 q 465 978 425 978 q 525 958 499 978 q 551 900 551 938 q 522 831 551 858 q 451 803 493 803 z "},"ď":{"ha":772,"x_min":49,"x_max":956,"o":"m 569 608 l 589 739 l 636 981 l 785 981 l 588 0 l 465 0 l 472 94 l 468 94 q 360 14 419 44 q 243 -17 301 -17 q 101 47 153 -17 q 49 232 49 111 q 79 415 49 329 q 161 563 110 500 q 278 663 213 626 q 415 699 344 699 q 504 674 465 699 q 565 608 543 649 l 569 608 m 304 106 q 394 132 349 106 q 483 221 440 158 l 539 493 q 485 557 515 538 q 424 576 456 576 q 340 551 381 576 q 269 481 300 525 q 221 377 239 436 q 203 253 203 318 q 230 142 203 178 q 304 106 257 106 m 801 761 l 857 1063 l 956 1063 l 938 975 l 869 761 l 801 761 z "},"ḍ":{"ha":750,"x_min":49,"x_max":785,"o":"m 569 608 l 589 739 l 636 981 l 785 981 l 588 0 l 465 0 l 472 94 l 468 94 q 360 14 419 44 q 243 -17 301 -17 q 101 47 153 -17 q 49 232 49 111 q 79 415 49 329 q 161 563 110 500 q 278 663 213 626 q 415 699 344 699 q 504 674 465 699 q 565 608 543 649 l 569 608 m 304 106 q 394 132 349 106 q 483 221 440 158 l 539 493 q 485 557 515 538 q 424 576 456 576 q 340 551 381 576 q 269 481 300 525 q 221 377 239 436 q 203 253 203 318 q 230 142 203 178 q 304 106 257 106 m 278 -296 q 218 -276 244 -296 q 192 -218 192 -256 q 222 -149 192 -178 q 292 -121 251 -121 q 351 -141 325 -121 q 378 -199 378 -161 q 349 -268 378 -240 q 278 -296 319 -296 z "},"ḏ":{"ha":750,"x_min":49,"x_max":785,"o":"m 569 608 l 589 739 l 636 981 l 785 981 l 588 0 l 465 0 l 472 94 l 468 94 q 360 14 419 44 q 243 -17 301 -17 q 101 47 153 -17 q 49 232 49 111 q 79 415 49 329 q 161 563 110 500 q 278 663 213 626 q 415 699 344 699 q 504 674 465 699 q 565 608 543 649 l 569 608 m 304 106 q 394 132 349 106 q 483 221 440 158 l 539 493 q 485 557 515 538 q 424 576 456 576 q 340 551 381 576 q 269 481 300 525 q 221 377 239 436 q 203 253 203 318 q 230 142 203 178 q 304 106 257 106 m 92 -236 l 111 -137 l 485 -137 l 467 -236 l 92 -236 z "},"đ":{"ha":753,"x_min":49,"x_max":857,"o":"m 243 -17 q 101 47 153 -17 q 49 232 49 111 q 79 399 49 319 q 160 538 110 478 q 277 635 211 599 q 414 671 343 671 q 502 646 464 671 q 560 581 540 621 l 564 581 l 583 711 l 597 785 l 390 785 l 406 863 l 613 863 l 636 981 l 785 981 l 761 863 l 857 863 l 840 792 l 746 785 l 588 0 l 465 0 l 472 94 l 468 94 q 360 14 419 44 q 243 -17 301 -17 m 304 106 q 394 132 349 106 q 483 221 440 158 l 533 465 q 483 529 513 510 q 422 549 454 549 q 340 523 379 549 q 269 456 300 497 q 221 361 239 414 q 203 253 203 308 q 230 142 203 178 q 304 106 257 106 z "},"è":{"ha":678,"x_min":46,"x_max":635,"o":"m 46 272 q 78 447 46 368 q 165 581 111 525 q 285 668 218 638 q 418 699 351 699 q 519 679 478 699 q 585 626 560 660 q 623 546 611 592 q 635 447 635 500 q 624 361 635 403 q 606 303 613 319 l 190 303 q 196 210 185 249 q 230 146 207 171 q 286 109 253 121 q 358 97 319 97 q 432 114 394 97 q 497 151 469 131 l 553 56 q 452 5 511 26 q 319 -17 393 -17 q 208 3 258 -17 q 122 59 158 22 q 66 149 86 96 q 46 272 46 203 m 203 397 l 504 397 q 509 426 507 411 q 511 457 511 440 q 487 545 511 507 q 400 583 463 583 q 283 534 338 583 q 203 397 228 485 m 488 790 l 289 1024 l 417 1119 l 579 863 l 488 790 z "},"é":{"ha":678,"x_min":46,"x_max":678,"o":"m 46 272 q 78 447 46 368 q 165 581 111 525 q 285 668 218 638 q 418 699 351 699 q 519 679 478 699 q 585 626 560 660 q 623 546 611 592 q 635 447 635 500 q 624 361 635 403 q 606 303 613 319 l 190 303 q 196 210 185 249 q 230 146 207 171 q 286 109 253 121 q 358 97 319 97 q 432 114 394 97 q 497 151 469 131 l 553 56 q 452 5 511 26 q 319 -17 393 -17 q 208 3 258 -17 q 122 59 158 22 q 66 149 86 96 q 46 272 46 203 m 203 397 l 504 397 q 509 426 507 411 q 511 457 511 440 q 487 545 511 507 q 400 583 463 583 q 283 534 338 583 q 203 397 228 485 m 408 804 l 342 889 l 588 1111 l 678 996 l 408 804 z "},"ê":{"ha":678,"x_min":46,"x_max":685,"o":"m 46 272 q 78 447 46 368 q 165 581 111 525 q 285 668 218 638 q 418 699 351 699 q 519 679 478 699 q 585 626 560 660 q 623 546 611 592 q 635 447 635 500 q 624 361 635 403 q 606 303 613 319 l 190 303 q 196 210 185 249 q 230 146 207 171 q 286 109 253 121 q 358 97 319 97 q 432 114 394 97 q 497 151 469 131 l 553 56 q 452 5 511 26 q 319 -17 393 -17 q 208 3 258 -17 q 122 59 158 22 q 66 149 86 96 q 46 272 46 203 m 203 397 l 504 397 q 509 426 507 411 q 511 457 511 440 q 487 545 511 507 q 400 583 463 583 q 283 534 338 583 q 203 397 228 485 m 269 783 l 215 846 l 401 1031 l 564 1031 l 685 842 l 615 783 l 476 931 l 471 931 l 269 783 z "},"ě":{"ha":678,"x_min":46,"x_max":697,"o":"m 46 272 q 78 447 46 368 q 165 581 111 525 q 285 668 218 638 q 418 699 351 699 q 519 679 478 699 q 585 626 560 660 q 623 546 611 592 q 635 447 635 500 q 624 361 635 403 q 606 303 613 319 l 190 303 q 196 210 185 249 q 230 146 207 171 q 286 109 253 121 q 358 97 319 97 q 432 114 394 97 q 497 151 469 131 l 553 56 q 452 5 511 26 q 319 -17 393 -17 q 208 3 258 -17 q 122 59 158 22 q 66 149 86 96 q 46 272 46 203 m 203 397 l 504 397 q 509 426 507 411 q 511 457 511 440 q 487 545 511 507 q 400 583 463 583 q 283 534 338 583 q 203 397 228 485 m 349 801 l 226 990 l 296 1047 l 436 901 l 442 901 l 642 1047 l 697 986 l 510 801 l 349 801 z "},"ë":{"ha":678,"x_min":46,"x_max":672,"o":"m 46 272 q 78 447 46 368 q 165 581 111 525 q 285 668 218 638 q 418 699 351 699 q 519 679 478 699 q 585 626 560 660 q 623 546 611 592 q 635 447 635 500 q 624 361 635 403 q 606 303 613 319 l 190 303 q 196 210 185 249 q 230 146 207 171 q 286 109 253 121 q 358 97 319 97 q 432 114 394 97 q 497 151 469 131 l 553 56 q 452 5 511 26 q 319 -17 393 -17 q 208 3 258 -17 q 122 59 158 22 q 66 149 86 96 q 46 272 46 203 m 203 397 l 504 397 q 509 426 507 411 q 511 457 511 440 q 487 545 511 507 q 400 583 463 583 q 283 534 338 583 q 203 397 228 485 m 310 806 q 260 824 279 806 q 240 875 240 842 q 266 938 240 911 q 328 965 292 965 q 377 947 357 965 q 397 894 397 928 q 372 831 397 857 q 310 806 346 806 m 585 806 q 535 824 554 806 q 515 875 515 842 q 541 938 515 911 q 603 965 567 965 q 653 947 633 965 q 672 894 672 928 q 647 831 672 857 q 585 806 621 806 z "},"ē":{"ha":678,"x_min":46,"x_max":650,"o":"m 46 272 q 78 447 46 368 q 165 581 111 525 q 285 668 218 638 q 418 699 351 699 q 519 679 478 699 q 585 626 560 660 q 623 546 611 592 q 635 447 635 500 q 624 361 635 403 q 606 303 613 319 l 190 303 q 196 210 185 249 q 230 146 207 171 q 286 109 253 121 q 358 97 319 97 q 432 114 394 97 q 497 151 469 131 l 553 56 q 452 5 511 26 q 319 -17 393 -17 q 208 3 258 -17 q 122 59 158 22 q 66 149 86 96 q 46 272 46 203 m 203 397 l 504 397 q 509 426 507 411 q 511 457 511 440 q 487 545 511 507 q 400 583 463 583 q 283 534 338 583 q 203 397 228 485 m 257 829 l 276 928 l 650 928 l 632 829 l 257 829 z "},"ĕ":{"ha":678,"x_min":46,"x_max":706,"o":"m 46 272 q 78 447 46 368 q 165 581 111 525 q 285 668 218 638 q 418 699 351 699 q 519 679 478 699 q 585 626 560 660 q 623 546 611 592 q 635 447 635 500 q 624 361 635 403 q 606 303 613 319 l 190 303 q 196 210 185 249 q 230 146 207 171 q 286 109 253 121 q 358 97 319 97 q 432 114 394 97 q 497 151 469 131 l 553 56 q 452 5 511 26 q 319 -17 393 -17 q 208 3 258 -17 q 122 59 158 22 q 66 149 86 96 q 46 272 46 203 m 203 397 l 504 397 q 509 426 507 411 q 511 457 511 440 q 487 545 511 507 q 400 583 463 583 q 283 534 338 583 q 203 397 228 485 m 440 793 q 345 810 383 793 q 285 858 307 828 q 256 926 263 888 q 253 1008 249 965 l 351 1024 q 356 976 350 999 q 374 935 361 953 q 408 907 388 918 q 460 896 429 896 q 515 907 490 896 q 559 935 540 918 q 592 976 578 953 q 614 1024 606 999 l 706 1008 q 675 926 696 965 q 622 858 654 888 q 544 810 589 828 q 440 793 499 793 z "},"ė":{"ha":678,"x_min":46,"x_max":635,"o":"m 46 272 q 78 447 46 368 q 165 581 111 525 q 285 668 218 638 q 418 699 351 699 q 519 679 478 699 q 585 626 560 660 q 623 546 611 592 q 635 447 635 500 q 624 361 635 403 q 606 303 613 319 l 190 303 q 196 210 185 249 q 230 146 207 171 q 286 109 253 121 q 358 97 319 97 q 432 114 394 97 q 497 151 469 131 l 553 56 q 452 5 511 26 q 319 -17 393 -17 q 208 3 258 -17 q 122 59 158 22 q 66 149 86 96 q 46 272 46 203 m 203 397 l 504 397 q 509 426 507 411 q 511 457 511 440 q 487 545 511 507 q 400 583 463 583 q 283 534 338 583 q 203 397 228 485 m 449 803 q 389 823 415 803 q 363 881 363 843 q 392 949 363 921 q 463 978 422 978 q 522 958 496 978 q 549 900 549 938 q 519 831 549 858 q 449 803 490 803 z "},"ẹ":{"ha":678,"x_min":46,"x_max":635,"o":"m 46 272 q 78 447 46 368 q 165 581 111 525 q 285 668 218 638 q 418 699 351 699 q 519 679 478 699 q 585 626 560 660 q 623 546 611 592 q 635 447 635 500 q 624 361 635 403 q 606 303 613 319 l 190 303 q 196 210 185 249 q 230 146 207 171 q 286 109 253 121 q 358 97 319 97 q 432 114 394 97 q 497 151 469 131 l 553 56 q 452 5 511 26 q 319 -17 393 -17 q 208 3 258 -17 q 122 59 158 22 q 66 149 86 96 q 46 272 46 203 m 203 397 l 504 397 q 509 426 507 411 q 511 457 511 440 q 487 545 511 507 q 400 583 463 583 q 283 534 338 583 q 203 397 228 485 m 257 -296 q 197 -276 224 -296 q 171 -218 171 -256 q 201 -149 171 -178 q 271 -121 231 -121 q 331 -141 304 -121 q 357 -199 357 -161 q 328 -268 357 -240 q 257 -296 299 -296 z "},"ẻ":{"ha":678,"x_min":46,"x_max":635,"o":"m 46 272 q 78 447 46 368 q 165 581 111 525 q 285 668 218 638 q 418 699 351 699 q 519 679 478 699 q 585 626 560 660 q 623 546 611 592 q 635 447 635 500 q 624 361 635 403 q 606 303 613 319 l 190 303 q 196 210 185 249 q 230 146 207 171 q 286 109 253 121 q 358 97 319 97 q 432 114 394 97 q 497 151 469 131 l 553 56 q 452 5 511 26 q 319 -17 393 -17 q 208 3 258 -17 q 122 59 158 22 q 66 149 86 96 q 46 272 46 203 m 203 397 l 504 397 q 509 426 507 411 q 511 457 511 440 q 487 545 511 507 q 400 583 463 583 q 283 534 338 583 q 203 397 228 485 m 392 792 l 390 860 q 443 879 421 867 q 469 917 465 892 q 369 978 482 972 l 397 1079 q 560 1037 514 1076 q 593 929 606 997 q 567 872 586 896 q 522 832 549 849 q 460 806 494 815 q 392 792 426 796 z "},"ẽ":{"ha":678,"x_min":46,"x_max":731,"o":"m 46 272 q 78 447 46 368 q 165 581 111 525 q 285 668 218 638 q 418 699 351 699 q 519 679 478 699 q 585 626 560 660 q 623 546 611 592 q 635 447 635 500 q 624 361 635 403 q 606 303 613 319 l 190 303 q 196 210 185 249 q 230 146 207 171 q 286 109 253 121 q 358 97 319 97 q 432 114 394 97 q 497 151 469 131 l 553 56 q 452 5 511 26 q 319 -17 393 -17 q 208 3 258 -17 q 122 59 158 22 q 66 149 86 96 q 46 272 46 203 m 203 397 l 504 397 q 509 426 507 411 q 511 457 511 440 q 487 545 511 507 q 400 583 463 583 q 283 534 338 583 q 203 397 228 485 m 549 799 q 491 815 514 799 q 449 851 468 831 q 413 887 431 871 q 372 903 396 903 q 300 808 319 903 l 199 814 q 263 962 217 910 q 381 1014 308 1014 q 439 998 415 1014 q 481 963 463 982 q 516 927 499 943 q 557 911 533 911 q 629 1004 613 911 l 731 999 q 667 851 713 904 q 549 799 621 799 z "},"ế":{"ha":678,"x_min":46,"x_max":832,"o":"m 46 272 q 78 447 46 368 q 165 581 111 525 q 285 668 218 638 q 418 699 351 699 q 519 679 478 699 q 585 626 560 660 q 623 546 611 592 q 635 447 635 500 q 624 361 635 403 q 606 303 613 319 l 190 303 q 196 210 185 249 q 230 146 207 171 q 286 109 253 121 q 358 97 319 97 q 432 114 394 97 q 497 151 469 131 l 553 56 q 452 5 511 26 q 319 -17 393 -17 q 208 3 258 -17 q 122 59 158 22 q 66 149 86 96 q 46 272 46 203 m 203 397 l 504 397 q 509 426 507 411 q 511 457 511 440 q 487 545 511 507 q 400 583 463 583 q 283 534 338 583 q 203 397 228 485 m 301 789 l 256 853 l 413 976 l 540 976 l 653 844 l 592 789 l 471 889 l 465 889 l 301 789 m 663 890 l 608 946 l 754 1106 l 832 1038 l 663 890 z "},"ề":{"ha":678,"x_min":46,"x_max":653,"o":"m 46 272 q 78 447 46 368 q 165 581 111 525 q 285 668 218 638 q 418 699 351 699 q 519 679 478 699 q 585 626 560 660 q 623 546 611 592 q 635 447 635 500 q 624 361 635 403 q 606 303 613 319 l 190 303 q 196 210 185 249 q 230 146 207 171 q 286 109 253 121 q 358 97 319 97 q 432 114 394 97 q 497 151 469 131 l 553 56 q 452 5 511 26 q 319 -17 393 -17 q 208 3 258 -17 q 122 59 158 22 q 66 149 86 96 q 46 272 46 203 m 203 397 l 504 397 q 509 426 507 411 q 511 457 511 440 q 487 545 511 507 q 400 583 463 583 q 283 534 338 583 q 203 397 228 485 m 301 789 l 256 853 l 413 976 l 540 976 l 653 844 l 592 789 l 471 889 l 465 889 l 301 789 m 232 886 l 110 1054 l 208 1107 l 303 932 l 232 886 z "},"ể":{"ha":678,"x_min":46,"x_max":814,"o":"m 46 272 q 78 447 46 368 q 165 581 111 525 q 285 668 218 638 q 418 699 351 699 q 519 679 478 699 q 585 626 560 660 q 623 546 611 592 q 635 447 635 500 q 624 361 635 403 q 606 303 613 319 l 190 303 q 196 210 185 249 q 230 146 207 171 q 286 109 253 121 q 358 97 319 97 q 432 114 394 97 q 497 151 469 131 l 553 56 q 452 5 511 26 q 319 -17 393 -17 q 208 3 258 -17 q 122 59 158 22 q 66 149 86 96 q 46 272 46 203 m 203 397 l 504 397 q 509 426 507 411 q 511 457 511 440 q 487 545 511 507 q 400 583 463 583 q 283 534 338 583 q 203 397 228 485 m 301 789 l 256 853 l 413 976 l 540 976 l 653 844 l 592 789 l 471 889 l 465 889 l 301 789 m 639 889 l 635 947 q 674 965 658 954 q 693 994 690 975 q 679 1031 697 1018 q 610 1046 661 1043 l 636 1118 q 774 1088 733 1115 q 804 1011 814 1060 q 783 959 799 981 q 744 924 767 938 q 695 901 722 910 q 639 889 668 893 z "},"ễ":{"ha":678,"x_min":46,"x_max":700,"o":"m 46 272 q 78 447 46 368 q 165 581 111 525 q 285 668 218 638 q 418 699 351 699 q 519 679 478 699 q 585 626 560 660 q 623 546 611 592 q 635 447 635 500 q 624 361 635 403 q 606 303 613 319 l 190 303 q 196 210 185 249 q 230 146 207 171 q 286 109 253 121 q 358 97 319 97 q 432 114 394 97 q 497 151 469 131 l 553 56 q 452 5 511 26 q 319 -17 393 -17 q 208 3 258 -17 q 122 59 158 22 q 66 149 86 96 q 46 272 46 203 m 203 397 l 504 397 q 509 426 507 411 q 511 457 511 440 q 487 545 511 507 q 400 583 463 583 q 283 534 338 583 q 203 397 228 485 m 301 789 l 256 853 l 408 968 l 538 968 l 653 844 l 592 789 l 468 881 l 463 881 l 301 789 m 564 990 q 514 999 535 990 q 476 1019 493 1008 q 444 1040 460 1031 q 411 1049 429 1049 q 357 993 379 1049 l 282 1001 q 335 1104 301 1068 q 419 1140 368 1140 q 469 1131 449 1140 q 507 1111 490 1122 q 538 1091 524 1100 q 571 1082 553 1082 q 625 1138 606 1082 l 700 1129 q 649 1026 682 1063 q 564 990 615 990 z "},"ệ":{"ha":678,"x_min":46,"x_max":685,"o":"m 46 272 q 78 447 46 368 q 165 581 111 525 q 285 668 218 638 q 418 699 351 699 q 519 679 478 699 q 585 626 560 660 q 623 546 611 592 q 635 447 635 500 q 624 361 635 403 q 606 303 613 319 l 190 303 q 196 210 185 249 q 230 146 207 171 q 286 109 253 121 q 358 97 319 97 q 432 114 394 97 q 497 151 469 131 l 553 56 q 452 5 511 26 q 319 -17 393 -17 q 208 3 258 -17 q 122 59 158 22 q 66 149 86 96 q 46 272 46 203 m 203 397 l 504 397 q 509 426 507 411 q 511 457 511 440 q 487 545 511 507 q 400 583 463 583 q 283 534 338 583 q 203 397 228 485 m 269 783 l 215 846 l 401 1031 l 564 1031 l 685 842 l 615 783 l 476 931 l 471 931 l 269 783 m 257 -296 q 197 -276 224 -296 q 171 -218 171 -256 q 201 -149 171 -178 q 271 -121 231 -121 q 331 -141 304 -121 q 357 -199 357 -161 q 328 -268 357 -240 q 257 -296 299 -296 z "},"ę":{"ha":678,"x_min":46,"x_max":635,"o":"m 242 -192 q 254 -131 242 -160 q 285 -80 267 -103 q 321 -40 303 -57 q 350 -14 339 -24 q 335 -16 343 -15 q 321 -17 328 -17 q 209 3 260 -17 q 122 59 158 22 q 66 149 86 96 q 46 272 46 203 q 78 447 46 368 q 165 581 111 525 q 285 668 218 638 q 418 699 351 699 q 519 679 478 699 q 585 626 560 660 q 623 546 611 592 q 635 447 635 500 q 624 361 635 403 q 606 303 613 319 l 190 303 q 196 210 185 249 q 230 146 207 171 q 286 109 253 121 q 358 97 319 97 q 432 114 394 97 q 497 151 469 131 l 553 56 q 453 -6 492 24 q 392 -60 415 -35 q 361 -109 369 -86 q 353 -150 353 -132 q 367 -184 353 -172 q 403 -196 382 -196 q 451 -181 425 -196 l 478 -247 q 417 -277 451 -265 q 353 -289 382 -289 q 273 -265 304 -289 q 242 -192 242 -240 m 203 397 l 504 397 q 509 426 507 411 q 511 457 511 440 q 487 545 511 507 q 400 583 463 583 q 283 534 338 583 q 203 397 228 485 z "},"ĝ":{"ha":747,"x_min":-10,"x_max":715,"o":"m 236 -303 q 108 -278 171 -303 q -10 -208 44 -253 l 57 -108 q 142 -162 96 -140 q 240 -183 188 -183 q 366 -138 318 -183 q 435 -11 414 -93 l 469 121 q 365 42 421 71 q 247 14 308 14 q 105 74 161 14 q 49 254 49 135 q 78 428 49 347 q 158 569 108 508 q 273 664 208 629 q 407 699 338 699 q 498 673 457 699 q 561 603 539 647 l 565 603 l 594 682 l 715 682 l 576 -10 q 460 -228 547 -154 q 236 -303 372 -303 m 301 138 q 390 162 342 138 q 478 240 438 186 l 529 493 q 476 557 506 538 q 415 576 447 576 q 335 552 374 576 q 267 486 297 528 q 220 390 238 444 q 203 274 203 335 q 230 171 203 204 q 301 138 257 138 m 278 783 l 224 846 l 410 1031 l 572 1031 l 693 842 l 624 783 l 485 931 l 479 931 l 278 783 z "},"ğ":{"ha":747,"x_min":-10,"x_max":715,"o":"m 236 -303 q 108 -278 171 -303 q -10 -208 44 -253 l 57 -108 q 142 -162 96 -140 q 240 -183 188 -183 q 366 -138 318 -183 q 435 -11 414 -93 l 469 121 q 365 42 421 71 q 247 14 308 14 q 105 74 161 14 q 49 254 49 135 q 78 428 49 347 q 158 569 108 508 q 273 664 208 629 q 407 699 338 699 q 498 673 457 699 q 561 603 539 647 l 565 603 l 594 682 l 715 682 l 576 -10 q 460 -228 547 -154 q 236 -303 372 -303 m 301 138 q 390 162 342 138 q 478 240 438 186 l 529 493 q 476 557 506 538 q 415 576 447 576 q 335 552 374 576 q 267 486 297 528 q 220 390 238 444 q 203 274 203 335 q 230 171 203 204 q 301 138 257 138 m 449 793 q 353 810 392 793 q 293 858 315 828 q 264 926 271 888 q 261 1008 257 965 l 360 1024 q 364 976 358 999 q 383 935 369 953 q 417 907 396 918 q 468 896 438 896 q 524 907 499 896 q 567 935 549 918 q 600 976 586 953 q 622 1024 614 999 l 714 1008 q 683 926 704 965 q 630 858 663 888 q 552 810 597 828 q 449 793 507 793 z "},"ġ":{"ha":747,"x_min":-10,"x_max":715,"o":"m 236 -303 q 108 -278 171 -303 q -10 -208 44 -253 l 57 -108 q 142 -162 96 -140 q 240 -183 188 -183 q 366 -138 318 -183 q 435 -11 414 -93 l 469 121 q 365 42 421 71 q 247 14 308 14 q 105 74 161 14 q 49 254 49 135 q 78 428 49 347 q 158 569 108 508 q 273 664 208 629 q 407 699 338 699 q 498 673 457 699 q 561 603 539 647 l 565 603 l 594 682 l 715 682 l 576 -10 q 460 -228 547 -154 q 236 -303 372 -303 m 301 138 q 390 162 342 138 q 478 240 438 186 l 529 493 q 476 557 506 538 q 415 576 447 576 q 335 552 374 576 q 267 486 297 528 q 220 390 238 444 q 203 274 203 335 q 230 171 203 204 q 301 138 257 138 m 457 803 q 397 823 424 803 q 371 881 371 843 q 401 949 371 921 q 471 978 431 978 q 531 958 504 978 q 557 900 557 938 q 528 831 557 858 q 457 803 499 803 z "},"ģ":{"ha":747,"x_min":-10,"x_max":715,"o":"m 236 -303 q 108 -278 171 -303 q -10 -208 44 -253 l 57 -108 q 142 -162 96 -140 q 240 -183 188 -183 q 366 -138 318 -183 q 435 -11 414 -93 l 469 121 q 365 42 421 71 q 247 14 308 14 q 105 74 161 14 q 49 254 49 135 q 78 428 49 347 q 158 569 108 508 q 273 664 208 629 q 407 699 338 699 q 498 673 457 699 q 561 603 539 647 l 565 603 l 594 682 l 715 682 l 576 -10 q 460 -228 547 -154 q 236 -303 372 -303 m 301 138 q 390 162 342 138 q 478 240 438 186 l 529 493 q 476 557 506 538 q 415 576 447 576 q 335 552 374 576 q 267 486 297 528 q 220 390 238 444 q 203 274 203 335 q 230 171 203 204 q 301 138 257 138 m 514 794 q 433 806 464 799 q 384 826 401 814 q 360 856 367 839 q 353 892 353 872 q 374 957 353 929 q 432 1003 394 985 q 520 1031 469 1021 q 631 1042 571 1040 l 629 974 q 510 953 546 971 q 474 907 474 935 q 492 874 474 888 q 556 858 511 861 l 514 794 z "},"ǧ":{"ha":747,"x_min":-10,"x_max":715,"o":"m 236 -303 q 108 -278 171 -303 q -10 -208 44 -253 l 57 -108 q 142 -162 96 -140 q 240 -183 188 -183 q 366 -138 318 -183 q 435 -11 414 -93 l 469 121 q 365 42 421 71 q 247 14 308 14 q 105 74 161 14 q 49 254 49 135 q 78 428 49 347 q 158 569 108 508 q 273 664 208 629 q 407 699 338 699 q 498 673 457 699 q 561 603 539 647 l 565 603 l 594 682 l 715 682 l 576 -10 q 460 -228 547 -154 q 236 -303 372 -303 m 301 138 q 390 162 342 138 q 478 240 438 186 l 529 493 q 476 557 506 538 q 415 576 447 576 q 335 552 374 576 q 267 486 297 528 q 220 390 238 444 q 203 274 203 335 q 230 171 203 204 q 301 138 257 138 m 357 801 l 235 990 l 304 1047 l 444 901 l 450 901 l 650 1047 l 706 986 l 518 801 l 357 801 z "},"ḡ":{"ha":747,"x_min":-10,"x_max":715,"o":"m 236 -303 q 108 -278 171 -303 q -10 -208 44 -253 l 57 -108 q 142 -162 96 -140 q 240 -183 188 -183 q 366 -138 318 -183 q 435 -11 414 -93 l 469 121 q 365 42 421 71 q 247 14 308 14 q 105 74 161 14 q 49 254 49 135 q 78 428 49 347 q 158 569 108 508 q 273 664 208 629 q 407 699 338 699 q 498 673 457 699 q 561 603 539 647 l 565 603 l 594 682 l 715 682 l 576 -10 q 460 -228 547 -154 q 236 -303 372 -303 m 301 138 q 390 162 342 138 q 478 240 438 186 l 529 493 q 476 557 506 538 q 415 576 447 576 q 335 552 374 576 q 267 486 297 528 q 220 390 238 444 q 203 274 203 335 q 230 171 203 204 q 301 138 257 138 m 265 829 l 285 928 l 658 928 l 640 829 l 265 829 z "},"ĥ":{"ha":740,"x_min":31,"x_max":682,"o":"m 31 0 l 228 981 l 376 981 l 317 692 l 290 593 l 296 593 q 403 668 349 638 q 521 699 458 699 q 644 654 607 699 q 682 526 682 610 q 680 481 682 503 q 671 431 678 458 l 585 0 l 436 0 l 519 411 q 527 451 524 435 q 531 483 531 468 q 444 571 531 571 q 367 546 408 571 q 272 465 326 521 l 181 0 l 31 0 m 160 1031 l 97 1081 l 260 1231 l 432 1231 l 539 1076 l 464 1032 l 342 1154 l 336 1154 l 160 1031 z "},"ḥ":{"ha":740,"x_min":31,"x_max":682,"o":"m 31 0 l 228 981 l 376 981 l 317 692 l 290 593 l 296 593 q 403 668 349 638 q 521 699 458 699 q 644 654 607 699 q 682 526 682 610 q 680 481 682 503 q 671 431 678 458 l 585 0 l 436 0 l 519 411 q 527 451 524 435 q 531 483 531 468 q 444 571 531 571 q 367 546 408 571 q 272 465 326 521 l 181 0 l 31 0 m 272 -296 q 213 -276 239 -296 q 186 -218 186 -256 q 216 -149 186 -178 q 286 -121 246 -121 q 346 -141 319 -121 q 372 -199 372 -161 q 343 -268 372 -240 q 272 -296 314 -296 z "},"ḫ":{"ha":740,"x_min":31,"x_max":682,"o":"m 31 0 l 228 981 l 376 981 l 317 692 l 290 593 l 296 593 q 403 668 349 638 q 521 699 458 699 q 644 654 607 699 q 682 526 682 610 q 680 481 682 503 q 671 431 678 458 l 585 0 l 436 0 l 519 411 q 527 451 524 435 q 531 483 531 468 q 444 571 531 571 q 367 546 408 571 q 272 465 326 521 l 181 0 l 31 0 m 267 -292 q 172 -274 210 -292 q 111 -227 133 -257 q 82 -158 89 -197 q 79 -76 75 -119 l 178 -61 q 182 -109 176 -86 q 201 -149 188 -132 q 235 -178 214 -167 q 286 -189 256 -189 q 342 -178 317 -189 q 385 -149 367 -167 q 418 -109 404 -132 q 440 -61 432 -86 l 532 -76 q 501 -158 522 -119 q 448 -227 481 -197 q 370 -274 415 -257 q 267 -292 325 -292 z "},"ħ":{"ha":740,"x_min":31,"x_max":676,"o":"m 31 0 l 189 785 l 92 785 l 106 856 l 204 863 l 228 981 l 376 981 l 351 863 l 586 863 l 569 785 l 336 785 l 311 664 l 285 565 l 290 565 q 398 640 343 610 q 515 671 453 671 q 639 626 601 671 q 676 499 676 582 q 674 453 676 475 q 665 403 672 431 l 585 0 l 436 0 l 514 383 q 522 424 518 407 q 525 456 525 440 q 439 543 525 543 q 362 518 403 543 q 267 438 321 493 l 181 0 l 31 0 z "},"ì":{"ha":349,"x_min":31,"x_max":401,"o":"m 31 0 l 168 682 l 317 682 l 181 0 l 31 0 m 310 790 l 111 1024 l 239 1119 l 401 863 l 310 790 z "},"í":{"ha":349,"x_min":31,"x_max":500,"o":"m 31 0 l 168 682 l 317 682 l 181 0 l 31 0 m 231 804 l 164 889 l 410 1111 l 500 996 l 231 804 z "},"î":{"ha":349,"x_min":31,"x_max":507,"o":"m 31 0 l 168 682 l 317 682 l 181 0 l 31 0 m 92 783 l 38 846 l 224 1031 l 386 1031 l 507 842 l 438 783 l 299 931 l 293 931 l 92 783 z "},"ĩ":{"ha":349,"x_min":21,"x_max":553,"o":"m 31 0 l 168 682 l 317 682 l 181 0 l 31 0 m 371 799 q 313 815 336 799 q 272 851 290 831 q 235 887 253 871 q 194 903 218 903 q 122 808 142 903 l 21 814 q 85 962 39 910 q 203 1014 131 1014 q 261 998 238 1014 q 303 963 285 982 q 338 927 321 943 q 379 911 356 911 q 451 1004 435 911 l 553 999 q 489 851 535 904 q 371 799 443 799 z "},"ï":{"ha":349,"x_min":31,"x_max":494,"o":"m 31 0 l 168 682 l 317 682 l 181 0 l 31 0 m 132 806 q 82 824 101 806 q 63 875 63 842 q 88 938 63 911 q 150 965 114 965 q 199 947 179 965 q 219 894 219 928 q 194 831 219 857 q 132 806 168 806 m 407 806 q 357 824 376 806 q 338 875 338 842 q 363 938 338 911 q 425 965 389 965 q 475 947 456 965 q 494 894 494 928 q 469 831 494 857 q 407 806 443 806 z "},"ī":{"ha":349,"x_min":31,"x_max":472,"o":"m 31 0 l 168 682 l 317 682 l 181 0 l 31 0 m 79 829 l 99 928 l 472 928 l 454 829 l 79 829 z "},"ǐ":{"ha":349,"x_min":31,"x_max":519,"o":"m 31 0 l 168 682 l 317 682 l 181 0 l 31 0 m 171 801 l 49 990 l 118 1047 l 258 901 l 264 901 l 464 1047 l 519 986 l 332 801 l 171 801 z "},"ỉ":{"ha":349,"x_min":31,"x_max":428,"o":"m 31 0 l 168 682 l 317 682 l 181 0 l 31 0 m 214 792 l 213 860 q 265 879 243 867 q 292 917 288 892 q 192 978 304 972 l 219 1079 q 382 1037 336 1076 q 415 929 428 997 q 390 872 408 896 q 344 832 371 849 q 283 806 317 815 q 214 792 249 796 z "},"ị":{"ha":349,"x_min":-19,"x_max":378,"o":"m 31 0 l 168 682 l 317 682 l 181 0 l 31 0 m 278 803 q 219 823 246 803 q 193 881 193 843 q 222 949 193 921 q 293 978 251 978 q 351 958 325 978 q 378 900 378 938 q 349 831 378 858 q 278 803 319 803 m 67 -296 q 7 -276 33 -296 q -19 -218 -19 -256 q 10 -149 -19 -178 q 81 -121 40 -121 q 140 -141 114 -121 q 167 -199 167 -161 q 138 -268 167 -240 q 67 -296 108 -296 z "},"į":{"ha":349,"x_min":-56,"x_max":378,"o":"m 56 -289 q -24 -265 7 -289 q -56 -192 -56 -240 q -42 -131 -56 -160 q -10 -76 -29 -101 q 31 -32 10 -51 q 71 0 53 -12 l 31 0 l 168 682 l 317 682 l 181 0 q 86 -71 117 -32 q 56 -150 56 -110 q 70 -184 56 -172 q 106 -196 85 -196 q 153 -181 129 -196 l 181 -247 q 119 -277 154 -265 q 56 -289 85 -289 m 278 803 q 219 823 246 803 q 193 881 193 843 q 222 949 193 921 q 293 978 251 978 q 351 958 325 978 q 378 900 378 938 q 349 831 378 858 q 278 803 319 803 z "},"ı":{"ha":349,"x_min":31,"x_max":317,"o":"m 31 0 l 168 682 l 317 682 l 181 0 l 31 0 z "},"ĵ":{"ha":350,"x_min":-178,"x_max":504,"o":"m -58 -286 q -121 -280 -93 -286 q -178 -258 -149 -274 l -131 -150 q -69 -167 -104 -167 q -12 -137 -32 -167 q 22 -50 8 -108 l 169 682 l 318 682 l 171 -53 q 142 -146 160 -103 q 97 -220 124 -189 q 31 -269 69 -251 q -58 -286 -7 -286 m 89 783 l 35 846 l 221 1031 l 383 1031 l 504 842 l 435 783 l 296 931 l 290 931 l 89 783 z "},"ķ":{"ha":696,"x_min":31,"x_max":726,"o":"m 31 0 l 228 981 l 376 981 l 253 364 l 258 364 l 560 682 l 726 682 l 451 390 l 614 0 l 464 0 l 347 303 l 214 168 l 181 0 l 31 0 m 133 -312 l 135 -244 q 254 -223 218 -240 q 290 -178 290 -206 q 272 -144 290 -157 q 208 -128 253 -131 l 250 -65 q 331 -76 300 -68 q 380 -97 363 -85 q 404 -126 397 -110 q 411 -161 411 -142 q 390 -226 411 -199 q 332 -273 369 -254 q 244 -301 294 -292 q 133 -312 193 -311 z "},"ĸ":{"ha":696,"x_min":31,"x_max":726,"o":"m 31 0 l 167 682 l 315 682 l 253 364 l 258 364 l 560 682 l 726 682 l 451 390 l 614 0 l 464 0 l 347 303 l 214 168 l 181 0 l 31 0 z "},"ĺ":{"ha":364,"x_min":56,"x_max":549,"o":"m 171 -17 q 83 13 111 -17 q 56 94 56 42 q 65 167 56 126 l 228 981 l 376 981 l 213 160 q 210 143 210 149 q 210 133 210 138 q 233 104 210 104 q 244 105 240 104 q 258 108 249 106 l 256 -3 q 219 -13 240 -10 q 171 -17 199 -17 m 288 1039 l 229 1125 l 479 1292 l 549 1181 l 288 1039 z "},"ľ":{"ha":364,"x_min":56,"x_max":547,"o":"m 171 -17 q 83 13 111 -17 q 56 94 56 42 q 65 167 56 126 l 228 981 l 376 981 l 213 160 q 210 143 210 149 q 210 133 210 138 q 233 104 210 104 q 244 105 240 104 q 258 108 249 106 l 256 -3 q 219 -13 240 -10 q 171 -17 199 -17 m 393 761 l 449 1063 l 547 1063 l 529 975 l 461 761 l 393 761 z "},"ŀ":{"ha":524,"x_min":56,"x_max":557,"o":"m 171 -17 q 83 13 111 -17 q 56 94 56 42 q 65 167 56 126 l 228 981 l 376 981 l 213 160 q 210 143 210 149 q 210 133 210 138 q 233 104 210 104 q 244 105 240 104 q 258 108 249 106 l 256 -3 q 219 -13 240 -10 q 171 -17 199 -17 m 443 360 q 383 384 406 360 q 361 446 361 408 q 369 490 361 468 q 394 528 378 511 q 431 555 410 544 q 476 565 451 565 q 535 540 514 565 q 557 478 557 515 q 549 434 557 456 q 526 396 540 413 q 490 369 511 379 q 443 360 468 360 z "},"ļ":{"ha":364,"x_min":-76,"x_max":376,"o":"m 171 -17 q 83 13 111 -17 q 56 94 56 42 q 65 167 56 126 l 228 981 l 376 981 l 213 160 q 210 143 210 149 q 210 133 210 138 q 233 104 210 104 q 244 105 240 104 q 258 108 249 106 l 256 -3 q 219 -13 240 -10 q 171 -17 199 -17 m -76 -312 l -75 -244 q 44 -223 8 -240 q 81 -178 81 -206 q 62 -144 81 -157 q -1 -128 43 -131 l 40 -65 q 122 -76 90 -68 q 170 -97 153 -85 q 194 -126 188 -110 q 201 -161 201 -142 q 181 -226 201 -199 q 122 -273 160 -254 q 34 -301 85 -292 q -76 -312 -17 -311 z "},"ḷ":{"ha":364,"x_min":-24,"x_max":376,"o":"m 171 -17 q 83 13 111 -17 q 56 94 56 42 q 65 167 56 126 l 228 981 l 376 981 l 213 160 q 210 143 210 149 q 210 133 210 138 q 233 104 210 104 q 244 105 240 104 q 258 108 249 106 l 256 -3 q 219 -13 240 -10 q 171 -17 199 -17 m 63 -296 q 3 -276 29 -296 q -24 -218 -24 -256 q 6 -149 -24 -178 q 76 -121 36 -121 q 136 -141 110 -121 q 163 -199 163 -161 q 133 -268 163 -240 q 63 -296 104 -296 z "},"ḹ":{"ha":364,"x_min":-24,"x_max":529,"o":"m 171 -17 q 83 13 111 -17 q 56 94 56 42 q 65 167 56 126 l 228 981 l 376 981 l 213 160 q 210 143 210 149 q 210 133 210 138 q 233 104 210 104 q 244 105 240 104 q 258 108 249 106 l 256 -3 q 219 -13 240 -10 q 171 -17 199 -17 m 136 1129 l 156 1228 l 529 1228 l 511 1129 l 136 1129 m 63 -296 q 3 -276 29 -296 q -24 -218 -24 -256 q 6 -149 -24 -178 q 76 -121 36 -121 q 136 -141 110 -121 q 163 -199 163 -161 q 133 -268 163 -240 q 63 -296 104 -296 z "},"ḻ":{"ha":364,"x_min":-124,"x_max":376,"o":"m 171 -17 q 83 13 111 -17 q 56 94 56 42 q 65 167 56 126 l 228 981 l 376 981 l 213 160 q 210 143 210 149 q 210 133 210 138 q 233 104 210 104 q 244 105 240 104 q 258 108 249 106 l 256 -3 q 219 -13 240 -10 q 171 -17 199 -17 m -124 -236 l -104 -137 l 269 -137 l 251 -236 l -124 -236 z "},"ł":{"ha":374,"x_min":18,"x_max":436,"o":"m 181 -17 q 93 13 121 -17 q 65 94 65 42 q 75 167 65 126 l 128 433 l 53 392 l 18 482 l 153 554 l 238 981 l 386 981 l 315 629 l 399 678 l 436 588 l 292 507 l 222 160 q 219 143 219 149 q 219 133 219 138 q 243 104 219 104 q 254 105 250 104 q 268 108 258 106 l 265 -3 q 229 -13 250 -10 q 181 -17 208 -17 z "},"ṃ":{"ha":1129,"x_min":31,"x_max":1064,"o":"m 31 0 l 167 682 l 288 682 l 281 586 l 286 586 q 396 665 339 632 q 508 699 453 699 q 575 689 547 699 q 622 663 603 679 q 651 623 640 646 q 667 572 661 600 q 788 665 728 631 q 903 699 847 699 q 1026 654 988 699 q 1064 526 1064 610 q 1061 481 1064 503 q 1053 431 1058 458 l 967 0 l 817 0 l 900 411 q 908 451 906 435 q 911 483 911 468 q 828 571 911 571 q 760 546 801 571 q 665 465 718 521 l 572 0 l 424 0 l 506 411 q 514 451 511 435 q 517 483 517 468 q 435 571 517 571 q 365 546 407 571 q 272 465 324 521 l 181 0 l 31 0 m 463 -296 q 403 -276 429 -296 q 376 -218 376 -256 q 406 -149 376 -178 q 476 -121 436 -121 q 536 -141 510 -121 q 563 -199 563 -161 q 533 -268 563 -240 q 463 -296 504 -296 z "},"ń":{"ha":749,"x_min":31,"x_max":725,"o":"m 31 0 l 167 682 l 288 682 l 281 586 l 286 586 q 398 665 340 632 q 521 699 456 699 q 644 654 607 699 q 682 526 682 610 q 680 481 682 503 q 671 431 678 458 l 585 0 l 436 0 l 519 411 q 527 451 524 435 q 531 483 531 468 q 444 571 531 571 q 367 546 408 571 q 272 465 326 521 l 181 0 l 31 0 m 456 804 l 389 889 l 635 1111 l 725 996 l 456 804 z "},"ň":{"ha":749,"x_min":31,"x_max":744,"o":"m 31 0 l 167 682 l 288 682 l 281 586 l 286 586 q 398 665 340 632 q 521 699 456 699 q 644 654 607 699 q 682 526 682 610 q 680 481 682 503 q 671 431 678 458 l 585 0 l 436 0 l 519 411 q 527 451 524 435 q 531 483 531 468 q 444 571 531 571 q 367 546 408 571 q 272 465 326 521 l 181 0 l 31 0 m 396 801 l 274 990 l 343 1047 l 483 901 l 489 901 l 689 1047 l 744 986 l 557 801 l 396 801 z "},"ñ":{"ha":749,"x_min":31,"x_max":778,"o":"m 31 0 l 167 682 l 288 682 l 281 586 l 286 586 q 398 665 340 632 q 521 699 456 699 q 644 654 607 699 q 682 526 682 610 q 680 481 682 503 q 671 431 678 458 l 585 0 l 436 0 l 519 411 q 527 451 524 435 q 531 483 531 468 q 444 571 531 571 q 367 546 408 571 q 272 465 326 521 l 181 0 l 31 0 m 596 799 q 538 815 561 799 q 497 851 515 831 q 460 887 478 871 q 419 903 443 903 q 347 808 367 903 l 246 814 q 310 962 264 910 q 428 1014 356 1014 q 486 998 463 1014 q 528 963 510 982 q 563 927 546 943 q 604 911 581 911 q 676 1004 660 911 l 778 999 q 714 851 760 904 q 596 799 668 799 z "},"ņ":{"ha":749,"x_min":31,"x_max":682,"o":"m 31 0 l 167 682 l 288 682 l 281 586 l 286 586 q 398 665 340 632 q 521 699 456 699 q 644 654 607 699 q 682 526 682 610 q 680 481 682 503 q 671 431 678 458 l 585 0 l 436 0 l 519 411 q 527 451 524 435 q 531 483 531 468 q 444 571 531 571 q 367 546 408 571 q 272 465 326 521 l 181 0 l 31 0 m 138 -312 l 139 -244 q 258 -223 222 -240 q 294 -178 294 -206 q 276 -144 294 -157 q 213 -128 257 -131 l 254 -65 q 335 -76 304 -68 q 384 -97 367 -85 q 408 -126 401 -110 q 415 -161 415 -142 q 394 -226 415 -199 q 336 -273 374 -254 q 248 -301 299 -292 q 138 -312 197 -311 z "},"ṅ":{"ha":749,"x_min":31,"x_max":682,"o":"m 31 0 l 167 682 l 288 682 l 281 586 l 286 586 q 398 665 340 632 q 521 699 456 699 q 644 654 607 699 q 682 526 682 610 q 680 481 682 503 q 671 431 678 458 l 585 0 l 436 0 l 519 411 q 527 451 524 435 q 531 483 531 468 q 444 571 531 571 q 367 546 408 571 q 272 465 326 521 l 181 0 l 31 0 m 496 803 q 436 823 463 803 q 410 881 410 843 q 440 949 410 921 q 510 978 469 978 q 569 958 543 978 q 596 900 596 938 q 567 831 596 858 q 496 803 538 803 z "},"ṇ":{"ha":749,"x_min":31,"x_max":682,"o":"m 31 0 l 167 682 l 288 682 l 281 586 l 286 586 q 398 665 340 632 q 521 699 456 699 q 644 654 607 699 q 682 526 682 610 q 680 481 682 503 q 671 431 678 458 l 585 0 l 436 0 l 519 411 q 527 451 524 435 q 531 483 531 468 q 444 571 531 571 q 367 546 408 571 q 272 465 326 521 l 181 0 l 31 0 m 275 -296 q 215 -276 242 -296 q 189 -218 189 -256 q 219 -149 189 -178 q 289 -121 249 -121 q 349 -141 322 -121 q 375 -199 375 -161 q 346 -268 375 -240 q 275 -296 317 -296 z "},"ṉ":{"ha":749,"x_min":31,"x_max":682,"o":"m 31 0 l 167 682 l 288 682 l 281 586 l 286 586 q 398 665 340 632 q 521 699 456 699 q 644 654 607 699 q 682 526 682 610 q 680 481 682 503 q 671 431 678 458 l 585 0 l 436 0 l 519 411 q 527 451 524 435 q 531 483 531 468 q 444 571 531 571 q 367 546 408 571 q 272 465 326 521 l 181 0 l 31 0 m 89 -236 l 108 -137 l 482 -137 l 464 -236 l 89 -236 z "},"ŉ":{"ha":1085,"x_min":151,"x_max":1024,"o":"m 178 567 l 151 635 q 214 671 186 650 q 260 714 242 692 q 288 758 278 736 q 297 799 297 781 l 290 799 q 230 818 254 799 q 206 874 206 838 q 232 941 206 913 q 303 969 258 969 q 367 940 343 969 q 390 856 390 910 q 374 754 390 800 q 328 672 357 708 q 260 608 299 635 q 178 567 221 582 m 372 0 l 508 682 l 629 682 l 622 586 l 628 586 q 740 665 682 632 q 863 699 797 699 q 986 654 949 699 q 1024 526 1024 610 q 1022 481 1024 503 q 1013 431 1019 458 l 926 0 l 778 0 l 861 411 q 869 451 865 435 q 872 483 872 468 q 786 571 872 571 q 709 546 750 571 q 614 465 668 521 l 522 0 l 372 0 z "},"ò":{"ha":728,"x_min":47,"x_max":678,"o":"m 301 -17 q 197 3 244 -17 q 117 58 150 22 q 65 146 83 94 q 47 261 47 197 q 80 440 47 358 q 165 578 113 521 q 285 667 218 635 q 422 699 353 699 q 608 624 539 699 q 678 421 678 550 q 645 243 678 324 q 560 105 613 163 q 440 15 507 47 q 301 -17 372 -17 m 318 104 q 396 128 358 104 q 463 195 433 153 q 509 294 492 238 q 526 417 526 351 q 496 536 526 494 q 407 578 465 578 q 328 553 367 578 q 261 488 290 529 q 215 389 232 446 q 197 267 197 332 q 228 147 197 189 q 318 104 258 104 m 508 790 l 310 1024 l 438 1119 l 600 863 l 508 790 z "},"ó":{"ha":728,"x_min":47,"x_max":699,"o":"m 301 -17 q 197 3 244 -17 q 117 58 150 22 q 65 146 83 94 q 47 261 47 197 q 80 440 47 358 q 165 578 113 521 q 285 667 218 635 q 422 699 353 699 q 608 624 539 699 q 678 421 678 550 q 645 243 678 324 q 560 105 613 163 q 440 15 507 47 q 301 -17 372 -17 m 318 104 q 396 128 358 104 q 463 195 433 153 q 509 294 492 238 q 526 417 526 351 q 496 536 526 494 q 407 578 465 578 q 328 553 367 578 q 261 488 290 529 q 215 389 232 446 q 197 267 197 332 q 228 147 197 189 q 318 104 258 104 m 429 804 l 363 889 l 608 1111 l 699 996 l 429 804 z "},"ô":{"ha":728,"x_min":47,"x_max":706,"o":"m 301 -17 q 197 3 244 -17 q 117 58 150 22 q 65 146 83 94 q 47 261 47 197 q 80 440 47 358 q 165 578 113 521 q 285 667 218 635 q 422 699 353 699 q 608 624 539 699 q 678 421 678 550 q 645 243 678 324 q 560 105 613 163 q 440 15 507 47 q 301 -17 372 -17 m 318 104 q 396 128 358 104 q 463 195 433 153 q 509 294 492 238 q 526 417 526 351 q 496 536 526 494 q 407 578 465 578 q 328 553 367 578 q 261 488 290 529 q 215 389 232 446 q 197 267 197 332 q 228 147 197 189 q 318 104 258 104 m 290 783 l 236 846 l 422 1031 l 585 1031 l 706 842 l 636 783 l 497 931 l 492 931 l 290 783 z "},"õ":{"ha":728,"x_min":47,"x_max":751,"o":"m 301 -17 q 197 3 244 -17 q 117 58 150 22 q 65 146 83 94 q 47 261 47 197 q 80 440 47 358 q 165 578 113 521 q 285 667 218 635 q 422 699 353 699 q 608 624 539 699 q 678 421 678 550 q 645 243 678 324 q 560 105 613 163 q 440 15 507 47 q 301 -17 372 -17 m 318 104 q 396 128 358 104 q 463 195 433 153 q 509 294 492 238 q 526 417 526 351 q 496 536 526 494 q 407 578 465 578 q 328 553 367 578 q 261 488 290 529 q 215 389 232 446 q 197 267 197 332 q 228 147 197 189 q 318 104 258 104 m 569 799 q 512 815 535 799 q 470 851 489 831 q 434 887 451 871 q 393 903 417 903 q 321 808 340 903 l 219 814 q 283 962 238 910 q 401 1014 329 1014 q 460 998 436 1014 q 501 963 483 982 q 537 927 519 943 q 578 911 554 911 q 650 1004 633 911 l 751 999 q 688 851 733 904 q 569 799 642 799 z "},"ö":{"ha":728,"x_min":47,"x_max":693,"o":"m 301 -17 q 197 3 244 -17 q 117 58 150 22 q 65 146 83 94 q 47 261 47 197 q 80 440 47 358 q 165 578 113 521 q 285 667 218 635 q 422 699 353 699 q 608 624 539 699 q 678 421 678 550 q 645 243 678 324 q 560 105 613 163 q 440 15 507 47 q 301 -17 372 -17 m 318 104 q 396 128 358 104 q 463 195 433 153 q 509 294 492 238 q 526 417 526 351 q 496 536 526 494 q 407 578 465 578 q 328 553 367 578 q 261 488 290 529 q 215 389 232 446 q 197 267 197 332 q 228 147 197 189 q 318 104 258 104 m 331 806 q 281 824 300 806 q 261 875 261 842 q 287 938 261 911 q 349 965 313 965 q 398 947 378 965 q 418 894 418 928 q 392 831 418 857 q 331 806 367 806 m 606 806 q 556 824 575 806 q 536 875 536 842 q 562 938 536 911 q 624 965 588 965 q 674 947 654 965 q 693 894 693 928 q 667 831 693 857 q 606 806 642 806 z "},"ō":{"ha":728,"x_min":47,"x_max":678,"o":"m 301 -17 q 197 3 244 -17 q 117 58 150 22 q 65 146 83 94 q 47 261 47 197 q 80 440 47 358 q 165 578 113 521 q 285 667 218 635 q 422 699 353 699 q 608 624 539 699 q 678 421 678 550 q 645 243 678 324 q 560 105 613 163 q 440 15 507 47 q 301 -17 372 -17 m 318 104 q 396 128 358 104 q 463 195 433 153 q 509 294 492 238 q 526 417 526 351 q 496 536 526 494 q 407 578 465 578 q 328 553 367 578 q 261 488 290 529 q 215 389 232 446 q 197 267 197 332 q 228 147 197 189 q 318 104 258 104 m 278 829 l 297 928 l 671 928 l 653 829 l 278 829 z "},"ő":{"ha":728,"x_min":47,"x_max":808,"o":"m 301 -17 q 197 3 244 -17 q 117 58 150 22 q 65 146 83 94 q 47 261 47 197 q 80 440 47 358 q 165 578 113 521 q 285 667 218 635 q 422 699 353 699 q 608 624 539 699 q 678 421 678 550 q 645 243 678 324 q 560 105 613 163 q 440 15 507 47 q 301 -17 372 -17 m 318 104 q 396 128 358 104 q 463 195 433 153 q 509 294 492 238 q 526 417 526 351 q 496 536 526 494 q 407 578 465 578 q 328 553 367 578 q 261 488 290 529 q 215 389 232 446 q 197 267 197 332 q 228 147 197 189 q 318 104 258 104 m 394 790 l 315 838 l 481 1069 l 579 1008 l 394 790 m 624 790 l 544 838 l 710 1069 l 808 1008 l 624 790 z "},"ǒ":{"ha":728,"x_min":47,"x_max":718,"o":"m 301 -17 q 197 3 244 -17 q 117 58 150 22 q 65 146 83 94 q 47 261 47 197 q 80 440 47 358 q 165 578 113 521 q 285 667 218 635 q 422 699 353 699 q 608 624 539 699 q 678 421 678 550 q 645 243 678 324 q 560 105 613 163 q 440 15 507 47 q 301 -17 372 -17 m 318 104 q 396 128 358 104 q 463 195 433 153 q 509 294 492 238 q 526 417 526 351 q 496 536 526 494 q 407 578 465 578 q 328 553 367 578 q 261 488 290 529 q 215 389 232 446 q 197 267 197 332 q 228 147 197 189 q 318 104 258 104 m 369 801 l 247 990 l 317 1047 l 457 901 l 463 901 l 663 1047 l 718 986 l 531 801 l 369 801 z "},"ọ":{"ha":728,"x_min":47,"x_max":678,"o":"m 301 -17 q 197 3 244 -17 q 117 58 150 22 q 65 146 83 94 q 47 261 47 197 q 80 440 47 358 q 165 578 113 521 q 285 667 218 635 q 422 699 353 699 q 608 624 539 699 q 678 421 678 550 q 645 243 678 324 q 560 105 613 163 q 440 15 507 47 q 301 -17 372 -17 m 318 104 q 396 128 358 104 q 463 195 433 153 q 509 294 492 238 q 526 417 526 351 q 496 536 526 494 q 407 578 465 578 q 328 553 367 578 q 261 488 290 529 q 215 389 232 446 q 197 267 197 332 q 228 147 197 189 q 318 104 258 104 m 225 -296 q 165 -276 192 -296 q 139 -218 139 -256 q 169 -149 139 -178 q 239 -121 199 -121 q 299 -141 272 -121 q 325 -199 325 -161 q 296 -268 325 -240 q 225 -296 267 -296 z "},"ỏ":{"ha":728,"x_min":47,"x_max":678,"o":"m 301 -17 q 197 3 244 -17 q 117 58 150 22 q 65 146 83 94 q 47 261 47 197 q 80 440 47 358 q 165 578 113 521 q 285 667 218 635 q 422 699 353 699 q 608 624 539 699 q 678 421 678 550 q 645 243 678 324 q 560 105 613 163 q 440 15 507 47 q 301 -17 372 -17 m 318 104 q 396 128 358 104 q 463 195 433 153 q 509 294 492 238 q 526 417 526 351 q 496 536 526 494 q 407 578 465 578 q 328 553 367 578 q 261 488 290 529 q 215 389 232 446 q 197 267 197 332 q 228 147 197 189 q 318 104 258 104 m 404 792 l 403 860 q 456 879 433 867 q 482 917 478 892 q 382 978 494 972 l 410 1079 q 572 1037 526 1076 q 606 929 618 997 q 580 872 599 896 q 534 832 561 849 q 473 806 507 815 q 404 792 439 796 z "},"ố":{"ha":728,"x_min":47,"x_max":853,"o":"m 301 -17 q 197 3 244 -17 q 117 58 150 22 q 65 146 83 94 q 47 261 47 197 q 80 440 47 358 q 165 578 113 521 q 285 667 218 635 q 422 699 353 699 q 608 624 539 699 q 678 421 678 550 q 645 243 678 324 q 560 105 613 163 q 440 15 507 47 q 301 -17 372 -17 m 318 104 q 396 128 358 104 q 463 195 433 153 q 509 294 492 238 q 526 417 526 351 q 496 536 526 494 q 407 578 465 578 q 328 553 367 578 q 261 488 290 529 q 215 389 232 446 q 197 267 197 332 q 228 147 197 189 q 318 104 258 104 m 322 789 l 276 853 l 433 976 l 561 976 l 674 844 l 613 789 l 492 889 l 486 889 l 322 789 m 683 890 l 629 946 l 775 1106 l 853 1038 l 683 890 z "},"ồ":{"ha":728,"x_min":47,"x_max":678,"o":"m 301 -17 q 197 3 244 -17 q 117 58 150 22 q 65 146 83 94 q 47 261 47 197 q 80 440 47 358 q 165 578 113 521 q 285 667 218 635 q 422 699 353 699 q 608 624 539 699 q 678 421 678 550 q 645 243 678 324 q 560 105 613 163 q 440 15 507 47 q 301 -17 372 -17 m 318 104 q 396 128 358 104 q 463 195 433 153 q 509 294 492 238 q 526 417 526 351 q 496 536 526 494 q 407 578 465 578 q 328 553 367 578 q 261 488 290 529 q 215 389 232 446 q 197 267 197 332 q 228 147 197 189 q 318 104 258 104 m 322 789 l 276 853 l 433 976 l 561 976 l 674 844 l 613 789 l 492 889 l 486 889 l 322 789 m 253 886 l 131 1054 l 229 1107 l 324 932 l 253 886 z "},"ổ":{"ha":728,"x_min":47,"x_max":835,"o":"m 301 -17 q 197 3 244 -17 q 117 58 150 22 q 65 146 83 94 q 47 261 47 197 q 80 440 47 358 q 165 578 113 521 q 285 667 218 635 q 422 699 353 699 q 608 624 539 699 q 678 421 678 550 q 645 243 678 324 q 560 105 613 163 q 440 15 507 47 q 301 -17 372 -17 m 318 104 q 396 128 358 104 q 463 195 433 153 q 509 294 492 238 q 526 417 526 351 q 496 536 526 494 q 407 578 465 578 q 328 553 367 578 q 261 488 290 529 q 215 389 232 446 q 197 267 197 332 q 228 147 197 189 q 318 104 258 104 m 322 789 l 276 853 l 433 976 l 561 976 l 674 844 l 613 789 l 492 889 l 486 889 l 322 789 m 660 889 l 656 947 q 695 965 679 954 q 714 994 711 975 q 700 1031 718 1018 q 631 1046 682 1043 l 657 1118 q 794 1088 754 1115 q 825 1011 835 1060 q 803 959 819 981 q 765 924 788 938 q 716 901 743 910 q 660 889 689 893 z "},"ỗ":{"ha":728,"x_min":47,"x_max":721,"o":"m 301 -17 q 197 3 244 -17 q 117 58 150 22 q 65 146 83 94 q 47 261 47 197 q 80 440 47 358 q 165 578 113 521 q 285 667 218 635 q 422 699 353 699 q 608 624 539 699 q 678 421 678 550 q 645 243 678 324 q 560 105 613 163 q 440 15 507 47 q 301 -17 372 -17 m 318 104 q 396 128 358 104 q 463 195 433 153 q 509 294 492 238 q 526 417 526 351 q 496 536 526 494 q 407 578 465 578 q 328 553 367 578 q 261 488 290 529 q 215 389 232 446 q 197 267 197 332 q 228 147 197 189 q 318 104 258 104 m 322 789 l 276 853 l 429 968 l 558 968 l 674 844 l 613 789 l 489 881 l 483 881 l 322 789 m 585 990 q 535 999 556 990 q 497 1019 514 1008 q 465 1040 481 1031 q 432 1049 450 1049 q 378 993 400 1049 l 303 1001 q 356 1104 322 1068 q 440 1140 389 1140 q 490 1131 469 1140 q 528 1111 511 1122 q 559 1091 544 1100 q 592 1082 574 1082 q 646 1138 626 1082 l 721 1129 q 669 1026 703 1063 q 585 990 636 990 z "},"ộ":{"ha":728,"x_min":47,"x_max":706,"o":"m 301 -17 q 197 3 244 -17 q 117 58 150 22 q 65 146 83 94 q 47 261 47 197 q 80 440 47 358 q 165 578 113 521 q 285 667 218 635 q 422 699 353 699 q 608 624 539 699 q 678 421 678 550 q 645 243 678 324 q 560 105 613 163 q 440 15 507 47 q 301 -17 372 -17 m 318 104 q 396 128 358 104 q 463 195 433 153 q 509 294 492 238 q 526 417 526 351 q 496 536 526 494 q 407 578 465 578 q 328 553 367 578 q 261 488 290 529 q 215 389 232 446 q 197 267 197 332 q 228 147 197 189 q 318 104 258 104 m 290 783 l 236 846 l 422 1031 l 585 1031 l 706 842 l 636 783 l 497 931 l 492 931 l 290 783 m 225 -296 q 165 -276 192 -296 q 139 -218 139 -256 q 169 -149 139 -178 q 239 -121 199 -121 q 299 -141 272 -121 q 325 -199 325 -161 q 296 -268 325 -240 q 225 -296 267 -296 z "},"ø":{"ha":728,"x_min":0,"x_max":731,"o":"m 301 -17 q 128 47 199 -17 l 50 -33 l 0 14 l 86 101 q 47 261 47 168 q 80 440 47 358 q 165 578 113 521 q 285 667 218 635 q 422 699 353 699 q 600 632 529 699 l 679 714 l 731 667 l 642 575 q 678 421 678 511 q 645 242 678 322 q 560 103 613 161 q 440 15 507 46 q 301 -17 372 -17 m 188 267 q 192 213 188 238 l 506 535 q 411 581 471 581 q 322 553 363 581 q 251 481 281 525 q 204 380 221 436 q 188 267 188 324 m 313 101 q 403 128 363 101 q 474 200 444 156 q 520 301 504 244 q 536 414 536 357 q 532 463 536 439 l 221 143 q 313 101 254 101 z "},"œ":{"ha":1118,"x_min":47,"x_max":1075,"o":"m 293 -17 q 114 58 181 -17 q 47 261 47 133 q 79 440 47 358 q 163 578 111 521 q 281 667 215 635 q 414 699 346 699 q 544 660 494 699 q 617 546 593 621 q 727 659 663 619 q 857 699 792 699 q 958 679 917 699 q 1025 626 999 660 q 1063 546 1051 592 q 1075 447 1075 500 q 1063 361 1075 403 q 1044 303 1051 319 l 647 303 q 653 210 643 249 q 685 146 664 171 q 735 109 706 121 q 799 97 764 97 q 872 114 835 97 q 938 151 908 131 l 992 56 q 892 5 951 26 q 758 -17 832 -17 q 632 24 685 -17 q 556 144 579 65 q 438 26 507 68 q 293 -17 368 -17 m 318 104 q 393 128 357 104 q 457 195 429 153 q 501 294 485 238 q 518 417 518 351 q 488 536 518 494 q 399 578 457 578 q 325 553 361 578 q 260 488 289 529 q 215 389 232 446 q 197 267 197 332 q 228 147 197 189 q 318 104 258 104 m 661 397 l 944 397 q 949 426 947 411 q 950 457 950 440 q 926 545 950 507 q 839 583 901 583 q 734 534 783 583 q 661 397 685 485 z "},"ơ":{"ha":733,"x_min":47,"x_max":792,"o":"m 301 -17 q 197 3 244 -17 q 117 58 150 22 q 65 146 83 94 q 47 261 47 197 q 80 440 47 358 q 165 578 113 521 q 285 667 218 635 q 422 699 353 699 q 551 668 493 699 q 638 716 606 676 q 672 814 669 756 q 669 844 672 826 q 661 876 667 863 l 775 914 q 788 868 783 893 q 792 822 792 843 q 744 685 792 740 q 619 611 696 631 q 678 421 678 538 q 645 243 678 324 q 560 105 613 163 q 440 15 507 47 q 301 -17 372 -17 m 318 104 q 396 128 358 104 q 463 195 433 153 q 509 294 492 238 q 526 417 526 351 q 496 536 526 494 q 407 578 465 578 q 328 553 367 578 q 261 488 290 529 q 215 389 232 446 q 197 267 197 332 q 228 147 197 189 q 318 104 258 104 z "},"ớ":{"ha":733,"x_min":47,"x_max":792,"o":"m 301 -17 q 197 3 244 -17 q 117 58 150 22 q 65 146 83 94 q 47 261 47 197 q 80 440 47 358 q 165 578 113 521 q 285 667 218 635 q 422 699 353 699 q 551 668 493 699 q 638 716 606 676 q 672 814 669 756 q 669 844 672 826 q 661 876 667 863 l 775 914 q 788 868 783 893 q 792 822 792 843 q 744 685 792 740 q 619 611 696 631 q 678 421 678 538 q 645 243 678 324 q 560 105 613 163 q 440 15 507 47 q 301 -17 372 -17 m 318 104 q 396 128 358 104 q 463 195 433 153 q 509 294 492 238 q 526 417 526 351 q 496 536 526 494 q 407 578 465 578 q 328 553 367 578 q 261 488 290 529 q 215 389 232 446 q 197 267 197 332 q 228 147 197 189 q 318 104 258 104 m 410 804 l 343 889 l 589 1111 l 679 996 l 410 804 z "},"ờ":{"ha":733,"x_min":47,"x_max":792,"o":"m 301 -17 q 197 3 244 -17 q 117 58 150 22 q 65 146 83 94 q 47 261 47 197 q 80 440 47 358 q 165 578 113 521 q 285 667 218 635 q 422 699 353 699 q 551 668 493 699 q 638 716 606 676 q 672 814 669 756 q 669 844 672 826 q 661 876 667 863 l 775 914 q 788 868 783 893 q 792 822 792 843 q 744 685 792 740 q 619 611 696 631 q 678 421 678 538 q 645 243 678 324 q 560 105 613 163 q 440 15 507 47 q 301 -17 372 -17 m 318 104 q 396 128 358 104 q 463 195 433 153 q 509 294 492 238 q 526 417 526 351 q 496 536 526 494 q 407 578 465 578 q 328 553 367 578 q 261 488 290 529 q 215 389 232 446 q 197 267 197 332 q 228 147 197 189 q 318 104 258 104 m 489 790 l 290 1024 l 418 1119 l 581 863 l 489 790 z "},"ở":{"ha":733,"x_min":47,"x_max":792,"o":"m 301 -17 q 197 3 244 -17 q 117 58 150 22 q 65 146 83 94 q 47 261 47 197 q 80 440 47 358 q 165 578 113 521 q 285 667 218 635 q 422 699 353 699 q 551 668 493 699 q 638 716 606 676 q 672 814 669 756 q 669 844 672 826 q 661 876 667 863 l 775 914 q 788 868 783 893 q 792 822 792 843 q 744 685 792 740 q 619 611 696 631 q 678 421 678 538 q 645 243 678 324 q 560 105 613 163 q 440 15 507 47 q 301 -17 372 -17 m 318 104 q 396 128 358 104 q 463 195 433 153 q 509 294 492 238 q 526 417 526 351 q 496 536 526 494 q 407 578 465 578 q 328 553 367 578 q 261 488 290 529 q 215 389 232 446 q 197 267 197 332 q 228 147 197 189 q 318 104 258 104 m 385 792 l 383 860 q 436 879 414 867 q 463 917 458 892 q 363 978 475 972 l 390 1079 q 553 1037 507 1076 q 586 929 599 997 q 560 872 579 896 q 515 832 542 849 q 453 806 488 815 q 385 792 419 796 z "},"ỡ":{"ha":733,"x_min":47,"x_max":792,"o":"m 507 799 q 452 815 474 799 q 413 851 431 831 q 377 887 394 871 q 336 903 360 903 q 267 808 286 903 l 171 814 q 231 962 189 910 q 342 1014 272 1014 q 397 998 375 1014 q 436 963 418 982 q 472 927 454 943 q 513 911 489 911 q 581 1004 564 911 l 678 999 q 617 851 660 904 q 507 799 575 799 m 301 -17 q 197 3 244 -17 q 117 58 150 22 q 65 146 83 94 q 47 261 47 197 q 80 440 47 358 q 165 578 113 521 q 285 667 218 635 q 422 699 353 699 q 551 668 493 699 q 638 716 606 676 q 672 814 669 756 q 669 844 672 826 q 661 876 667 863 l 775 914 q 788 868 783 893 q 792 822 792 843 q 744 685 792 740 q 619 611 696 631 q 678 421 678 538 q 645 243 678 324 q 560 105 613 163 q 440 15 507 47 q 301 -17 372 -17 m 318 104 q 396 128 358 104 q 463 195 433 153 q 509 294 492 238 q 526 417 526 351 q 496 536 526 494 q 407 578 465 578 q 328 553 367 578 q 261 488 290 529 q 215 389 232 446 q 197 267 197 332 q 228 147 197 189 q 318 104 258 104 z "},"ợ":{"ha":733,"x_min":47,"x_max":792,"o":"m 301 -17 q 197 3 244 -17 q 117 58 150 22 q 65 146 83 94 q 47 261 47 197 q 80 440 47 358 q 165 578 113 521 q 285 667 218 635 q 422 699 353 699 q 551 668 493 699 q 638 716 606 676 q 672 814 669 756 q 669 844 672 826 q 661 876 667 863 l 775 914 q 788 868 783 893 q 792 822 792 843 q 744 685 792 740 q 619 611 696 631 q 678 421 678 538 q 645 243 678 324 q 560 105 613 163 q 440 15 507 47 q 301 -17 372 -17 m 318 104 q 396 128 358 104 q 463 195 433 153 q 509 294 492 238 q 526 417 526 351 q 496 536 526 494 q 407 578 465 578 q 328 553 367 578 q 261 488 290 529 q 215 389 232 446 q 197 267 197 332 q 228 147 197 189 q 318 104 258 104 m 224 -296 q 164 -276 190 -296 q 138 -218 138 -256 q 167 -149 138 -178 q 238 -121 197 -121 q 297 -141 271 -121 q 324 -199 324 -161 q 294 -268 324 -240 q 224 -296 265 -296 z "},"ǫ":{"ha":728,"x_min":47,"x_max":678,"o":"m 257 -289 q 177 -265 208 -289 q 146 -192 146 -240 q 159 -131 146 -160 q 190 -78 172 -101 q 228 -37 208 -54 q 261 -11 247 -19 q 105 72 163 3 q 47 261 47 140 q 80 440 47 358 q 165 578 113 521 q 285 667 218 635 q 422 699 353 699 q 524 680 478 699 q 605 626 571 661 q 658 539 639 590 q 678 421 678 488 q 656 268 678 336 q 595 148 633 200 q 505 58 557 96 q 393 -6 453 19 q 290 -76 322 -35 q 257 -150 257 -118 q 272 -184 257 -172 q 307 -196 286 -196 q 356 -181 329 -196 l 382 -247 q 321 -277 356 -265 q 257 -289 286 -289 m 318 104 q 396 128 358 104 q 463 195 433 153 q 509 294 492 238 q 526 417 526 351 q 496 536 526 494 q 407 578 465 578 q 328 553 367 578 q 261 488 290 529 q 215 389 232 446 q 197 267 197 332 q 228 147 197 189 q 318 104 258 104 z "},"ŕ":{"ha":504,"x_min":31,"x_max":615,"o":"m 31 0 l 167 682 l 288 682 l 275 550 l 281 550 q 375 656 321 614 q 492 699 429 699 q 560 686 532 699 l 510 556 q 481 565 497 563 q 446 567 464 567 q 350 529 397 567 q 261 413 303 492 l 181 0 l 31 0 m 346 804 l 279 889 l 525 1111 l 615 996 l 346 804 z "},"ŗ":{"ha":504,"x_min":-74,"x_max":560,"o":"m 31 0 l 167 682 l 288 682 l 275 550 l 281 550 q 375 656 321 614 q 492 699 429 699 q 560 686 532 699 l 510 556 q 481 565 497 563 q 446 567 464 567 q 350 529 397 567 q 261 413 303 492 l 181 0 l 31 0 m -74 -312 l -72 -244 q 47 -223 11 -240 q 83 -178 83 -206 q 65 -144 83 -157 q 1 -128 46 -131 l 43 -65 q 124 -76 93 -68 q 173 -97 156 -85 q 197 -126 190 -110 q 204 -161 204 -142 q 183 -226 204 -199 q 125 -273 163 -254 q 37 -301 88 -292 q -74 -312 -14 -311 z "},"ř":{"ha":504,"x_min":31,"x_max":635,"o":"m 31 0 l 167 682 l 288 682 l 275 550 l 281 550 q 375 656 321 614 q 492 699 429 699 q 560 686 532 699 l 510 556 q 481 565 497 563 q 446 567 464 567 q 350 529 397 567 q 261 413 303 492 l 181 0 l 31 0 m 286 801 l 164 990 l 233 1047 l 374 901 l 379 901 l 579 1047 l 635 986 l 447 801 l 286 801 z "},"ṛ":{"ha":504,"x_min":-21,"x_max":560,"o":"m 31 0 l 167 682 l 288 682 l 275 550 l 281 550 q 375 656 321 614 q 492 699 429 699 q 560 686 532 699 l 510 556 q 481 565 497 563 q 446 567 464 567 q 350 529 397 567 q 261 413 303 492 l 181 0 l 31 0 m 65 -296 q 6 -276 32 -296 q -21 -218 -21 -256 q 9 -149 -21 -178 q 79 -121 39 -121 q 139 -141 113 -121 q 165 -199 165 -161 q 136 -268 165 -240 q 65 -296 107 -296 z "},"ṝ":{"ha":504,"x_min":-21,"x_max":588,"o":"m 31 0 l 167 682 l 288 682 l 275 550 l 281 550 q 375 656 321 614 q 492 699 429 699 q 560 686 532 699 l 510 556 q 481 565 497 563 q 446 567 464 567 q 350 529 397 567 q 261 413 303 492 l 181 0 l 31 0 m 194 829 l 214 928 l 588 928 l 569 829 l 194 829 m 65 -296 q 6 -276 32 -296 q -21 -218 -21 -256 q 9 -149 -21 -178 q 79 -121 39 -121 q 139 -141 113 -121 q 165 -199 165 -161 q 136 -268 165 -240 q 65 -296 107 -296 z "},"ṟ":{"ha":504,"x_min":-121,"x_max":560,"o":"m 31 0 l 167 682 l 288 682 l 275 550 l 281 550 q 375 656 321 614 q 492 699 429 699 q 560 686 532 699 l 510 556 q 481 565 497 563 q 446 567 464 567 q 350 529 397 567 q 261 413 303 492 l 181 0 l 31 0 m -121 -236 l -101 -137 l 272 -137 l 254 -236 l -121 -236 z "},"ś":{"ha":574,"x_min":-8,"x_max":617,"o":"m 231 -17 q 165 -7 199 -17 q 99 19 131 3 q 39 60 67 36 q -8 114 11 85 l 81 186 q 155 118 114 142 q 242 94 196 94 q 326 120 290 94 q 361 183 361 146 q 332 238 361 215 q 239 297 303 261 q 132 379 171 335 q 93 486 93 424 q 113 572 93 532 q 166 639 132 611 q 245 683 200 667 q 342 699 290 699 q 462 671 408 699 q 556 601 515 643 l 472 522 q 414 567 446 549 q 342 586 382 586 q 264 561 294 586 q 233 500 233 536 q 243 467 233 481 q 269 440 253 453 q 307 417 286 428 q 350 393 328 406 q 464 308 426 353 q 501 201 501 264 q 481 111 501 151 q 425 42 461 71 q 339 -1 389 14 q 231 -17 289 -17 m 347 804 l 281 889 l 526 1111 l 617 996 l 347 804 z "},"ŝ":{"ha":574,"x_min":-8,"x_max":624,"o":"m 231 -17 q 165 -7 199 -17 q 99 19 131 3 q 39 60 67 36 q -8 114 11 85 l 81 186 q 155 118 114 142 q 242 94 196 94 q 326 120 290 94 q 361 183 361 146 q 332 238 361 215 q 239 297 303 261 q 132 379 171 335 q 93 486 93 424 q 113 572 93 532 q 166 639 132 611 q 245 683 200 667 q 342 699 290 699 q 462 671 408 699 q 556 601 515 643 l 472 522 q 414 567 446 549 q 342 586 382 586 q 264 561 294 586 q 233 500 233 536 q 243 467 233 481 q 269 440 253 453 q 307 417 286 428 q 350 393 328 406 q 464 308 426 353 q 501 201 501 264 q 481 111 501 151 q 425 42 461 71 q 339 -1 389 14 q 231 -17 289 -17 m 208 783 l 154 846 l 340 1031 l 503 1031 l 624 842 l 554 783 l 415 931 l 410 931 l 208 783 z "},"š":{"ha":574,"x_min":-8,"x_max":636,"o":"m 231 -17 q 165 -7 199 -17 q 99 19 131 3 q 39 60 67 36 q -8 114 11 85 l 81 186 q 155 118 114 142 q 242 94 196 94 q 326 120 290 94 q 361 183 361 146 q 332 238 361 215 q 239 297 303 261 q 132 379 171 335 q 93 486 93 424 q 113 572 93 532 q 166 639 132 611 q 245 683 200 667 q 342 699 290 699 q 462 671 408 699 q 556 601 515 643 l 472 522 q 414 567 446 549 q 342 586 382 586 q 264 561 294 586 q 233 500 233 536 q 243 467 233 481 q 269 440 253 453 q 307 417 286 428 q 350 393 328 406 q 464 308 426 353 q 501 201 501 264 q 481 111 501 151 q 425 42 461 71 q 339 -1 389 14 q 231 -17 289 -17 m 288 801 l 165 990 l 235 1047 l 375 901 l 381 901 l 581 1047 l 636 986 l 449 801 l 288 801 z "},"ş":{"ha":574,"x_min":-8,"x_max":556,"o":"m 231 -17 q 165 -7 199 -17 q 99 19 131 3 q 39 60 67 36 q -8 114 11 85 l 81 186 q 155 118 114 142 q 242 94 196 94 q 326 120 290 94 q 361 183 361 146 q 332 238 361 215 q 239 297 303 261 q 132 379 171 335 q 93 486 93 424 q 113 572 93 532 q 166 639 132 611 q 245 683 200 667 q 342 699 290 699 q 462 671 408 699 q 556 601 515 643 l 472 522 q 414 567 446 549 q 342 586 382 586 q 264 561 294 586 q 233 500 233 536 q 243 467 233 481 q 269 440 253 453 q 307 417 286 428 q 350 393 328 406 q 464 308 426 353 q 501 201 501 264 q 481 111 501 151 q 425 42 461 71 q 339 -1 389 14 q 231 -17 289 -17 m 46 -324 l 44 -256 q 164 -235 128 -251 q 204 -186 200 -218 q 185 -149 206 -162 q 108 -128 165 -135 l 196 4 l 293 4 l 236 -87 q 306 -122 286 -100 q 322 -182 326 -144 q 241 -286 314 -251 q 46 -324 168 -321 z "},"ș":{"ha":574,"x_min":-8,"x_max":556,"o":"m 231 -17 q 165 -7 199 -17 q 99 19 131 3 q 39 60 67 36 q -8 114 11 85 l 81 186 q 155 118 114 142 q 242 94 196 94 q 326 120 290 94 q 361 183 361 146 q 332 238 361 215 q 239 297 303 261 q 132 379 171 335 q 93 486 93 424 q 113 572 93 532 q 166 639 132 611 q 245 683 200 667 q 342 699 290 699 q 462 671 408 699 q 556 601 515 643 l 472 522 q 414 567 446 549 q 342 586 382 586 q 264 561 294 586 q 233 500 233 536 q 243 467 233 481 q 269 440 253 453 q 307 417 286 428 q 350 393 328 406 q 464 308 426 353 q 501 201 501 264 q 481 111 501 151 q 425 42 461 71 q 339 -1 389 14 q 231 -17 289 -17 m 60 -312 l 61 -244 q 181 -223 144 -240 q 217 -178 217 -206 q 198 -144 217 -157 q 135 -128 179 -131 l 176 -65 q 258 -76 226 -68 q 306 -97 289 -85 q 331 -126 324 -110 q 338 -161 338 -142 q 317 -226 338 -199 q 258 -273 296 -254 q 170 -301 221 -292 q 60 -312 119 -311 z "},"ṡ":{"ha":574,"x_min":-8,"x_max":556,"o":"m 231 -17 q 165 -7 199 -17 q 99 19 131 3 q 39 60 67 36 q -8 114 11 85 l 81 186 q 155 118 114 142 q 242 94 196 94 q 326 120 290 94 q 361 183 361 146 q 332 238 361 215 q 239 297 303 261 q 132 379 171 335 q 93 486 93 424 q 113 572 93 532 q 166 639 132 611 q 245 683 200 667 q 342 699 290 699 q 462 671 408 699 q 556 601 515 643 l 472 522 q 414 567 446 549 q 342 586 382 586 q 264 561 294 586 q 233 500 233 536 q 243 467 233 481 q 269 440 253 453 q 307 417 286 428 q 350 393 328 406 q 464 308 426 353 q 501 201 501 264 q 481 111 501 151 q 425 42 461 71 q 339 -1 389 14 q 231 -17 289 -17 m 388 803 q 328 823 354 803 q 301 881 301 843 q 331 949 301 921 q 401 978 361 978 q 461 958 435 978 q 488 900 488 938 q 458 831 488 858 q 388 803 429 803 z "},"ṣ":{"ha":574,"x_min":-8,"x_max":556,"o":"m 231 -17 q 165 -7 199 -17 q 99 19 131 3 q 39 60 67 36 q -8 114 11 85 l 81 186 q 155 118 114 142 q 242 94 196 94 q 326 120 290 94 q 361 183 361 146 q 332 238 361 215 q 239 297 303 261 q 132 379 171 335 q 93 486 93 424 q 113 572 93 532 q 166 639 132 611 q 245 683 200 667 q 342 699 290 699 q 462 671 408 699 q 556 601 515 643 l 472 522 q 414 567 446 549 q 342 586 382 586 q 264 561 294 586 q 233 500 233 536 q 243 467 233 481 q 269 440 253 453 q 307 417 286 428 q 350 393 328 406 q 464 308 426 353 q 501 201 501 264 q 481 111 501 151 q 425 42 461 71 q 339 -1 389 14 q 231 -17 289 -17 m 197 -296 q 138 -276 164 -296 q 111 -218 111 -256 q 141 -149 111 -178 q 211 -121 171 -121 q 271 -141 244 -121 q 297 -199 297 -161 q 268 -268 297 -240 q 197 -296 239 -296 z "},"ß":{"ha":810,"x_min":31,"x_max":740,"o":"m 496 -17 q 392 -1 443 -17 q 296 49 340 15 l 360 147 q 423 110 390 125 q 494 96 456 96 q 571 124 540 96 q 601 197 601 153 q 587 247 601 225 q 550 289 572 269 q 502 327 528 308 q 454 368 476 346 q 417 417 432 390 q 403 479 403 443 q 430 565 403 531 q 489 631 457 600 q 548 697 521 663 q 575 782 575 732 q 553 851 575 825 q 483 878 532 878 q 425 863 451 878 q 377 822 399 847 q 340 760 356 796 q 317 685 325 725 l 181 0 l 31 0 l 175 715 q 214 825 188 774 q 280 915 240 876 q 372 975 319 953 q 490 997 425 997 q 577 985 536 997 q 650 950 618 974 q 701 890 682 926 q 719 803 719 853 q 693 700 719 740 q 634 628 667 660 q 575 569 601 597 q 549 506 549 542 q 563 463 549 482 q 598 425 576 443 q 644 387 619 407 q 691 342 669 367 q 726 287 713 318 q 740 214 740 256 q 722 124 740 165 q 670 51 703 82 q 592 1 638 19 q 496 -17 547 -17 z "},"ť":{"ha":481,"x_min":74,"x_max":601,"o":"m 269 -17 q 133 31 174 -17 q 92 150 92 79 q 94 190 92 171 q 100 231 97 210 l 169 564 l 74 564 l 96 675 l 200 682 l 254 865 l 379 865 l 343 682 l 507 682 l 483 564 l 317 564 l 247 225 q 243 176 243 200 q 261 120 243 139 q 322 101 279 101 q 356 107 340 101 q 386 119 371 113 l 414 14 q 353 -7 389 3 q 269 -17 317 -17 m 447 761 l 503 1063 l 601 1063 l 583 975 l 515 761 l 447 761 z "},"ţ":{"ha":481,"x_min":54,"x_max":507,"o":"m 269 -17 q 133 31 174 -17 q 92 150 92 79 q 94 190 92 171 q 100 231 97 210 l 169 564 l 74 564 l 96 675 l 200 682 l 254 865 l 379 865 l 343 682 l 507 682 l 483 564 l 317 564 l 247 225 q 243 176 243 200 q 261 120 243 139 q 322 101 279 101 q 356 107 340 101 q 386 119 371 113 l 414 14 q 353 -7 389 3 q 269 -17 317 -17 m 56 -324 l 54 -256 q 174 -235 138 -251 q 214 -186 210 -218 q 195 -149 215 -162 q 118 -128 175 -135 l 206 4 l 303 4 l 246 -87 q 316 -122 296 -100 q 332 -182 336 -144 q 251 -286 324 -251 q 56 -324 178 -321 z "},"ț":{"ha":481,"x_min":50,"x_max":507,"o":"m 269 -17 q 133 31 174 -17 q 92 150 92 79 q 94 190 92 171 q 100 231 97 210 l 169 564 l 74 564 l 96 675 l 200 682 l 254 865 l 379 865 l 343 682 l 507 682 l 483 564 l 317 564 l 247 225 q 243 176 243 200 q 261 120 243 139 q 322 101 279 101 q 356 107 340 101 q 386 119 371 113 l 414 14 q 353 -7 389 3 q 269 -17 317 -17 m 50 -312 l 51 -244 q 171 -223 135 -240 q 207 -178 207 -206 q 188 -144 207 -157 q 125 -128 169 -131 l 167 -65 q 248 -76 217 -68 q 297 -97 279 -85 q 321 -126 314 -110 q 328 -161 328 -142 q 307 -226 328 -199 q 249 -273 286 -254 q 160 -301 211 -292 q 50 -312 110 -311 z "},"ṭ":{"ha":481,"x_min":74,"x_max":507,"o":"m 269 -17 q 133 31 174 -17 q 92 150 92 79 q 94 190 92 171 q 100 231 97 210 l 169 564 l 74 564 l 96 675 l 200 682 l 254 865 l 379 865 l 343 682 l 507 682 l 483 564 l 317 564 l 247 225 q 243 176 243 200 q 261 120 243 139 q 322 101 279 101 q 356 107 340 101 q 386 119 371 113 l 414 14 q 353 -7 389 3 q 269 -17 317 -17 m 188 -296 q 128 -276 154 -296 q 101 -218 101 -256 q 131 -149 101 -178 q 201 -121 161 -121 q 261 -141 235 -121 q 288 -199 288 -161 q 258 -268 288 -240 q 188 -296 229 -296 z "},"ṯ":{"ha":481,"x_min":1,"x_max":507,"o":"m 269 -17 q 133 31 174 -17 q 92 150 92 79 q 94 190 92 171 q 100 231 97 210 l 169 564 l 74 564 l 96 675 l 200 682 l 254 865 l 379 865 l 343 682 l 507 682 l 483 564 l 317 564 l 247 225 q 243 176 243 200 q 261 120 243 139 q 322 101 279 101 q 356 107 340 101 q 386 119 371 113 l 414 14 q 353 -7 389 3 q 269 -17 317 -17 m 1 -236 l 21 -137 l 394 -137 l 376 -236 l 1 -236 z "},"ẗ":{"ha":481,"x_min":74,"x_max":560,"o":"m 269 -17 q 133 31 174 -17 q 92 150 92 79 q 94 190 92 171 q 100 231 97 210 l 169 564 l 74 564 l 96 675 l 200 682 l 254 865 l 379 865 l 343 682 l 507 682 l 483 564 l 317 564 l 247 225 q 243 176 243 200 q 261 120 243 139 q 322 101 279 101 q 356 107 340 101 q 386 119 371 113 l 414 14 q 353 -7 389 3 q 269 -17 317 -17 m 197 997 q 147 1015 167 997 q 128 1067 128 1033 q 153 1130 128 1103 q 215 1157 179 1157 q 265 1138 244 1157 q 285 1086 285 1119 q 259 1023 285 1049 q 197 997 233 997 m 472 997 q 422 1015 442 997 q 403 1067 403 1033 q 428 1130 403 1103 q 490 1157 454 1157 q 540 1138 521 1157 q 560 1086 560 1119 q 534 1023 560 1049 q 472 997 508 997 z "},"ù":{"ha":746,"x_min":65,"x_max":711,"o":"m 711 682 l 576 0 l 456 0 l 461 97 l 456 97 q 347 17 404 51 q 228 -17 290 -17 q 103 28 142 -17 q 65 156 65 74 q 68 202 65 179 q 76 251 71 225 l 163 682 l 311 682 l 229 271 q 221 231 224 247 q 218 199 218 214 q 303 111 218 111 q 471 217 371 111 l 563 682 l 711 682 m 500 790 l 301 1024 l 429 1119 l 592 863 l 500 790 z "},"ú":{"ha":746,"x_min":65,"x_max":711,"o":"m 711 682 l 576 0 l 456 0 l 461 97 l 456 97 q 347 17 404 51 q 228 -17 290 -17 q 103 28 142 -17 q 65 156 65 74 q 68 202 65 179 q 76 251 71 225 l 163 682 l 311 682 l 229 271 q 221 231 224 247 q 218 199 218 214 q 303 111 218 111 q 471 217 371 111 l 563 682 l 711 682 m 421 804 l 354 889 l 600 1111 l 690 996 l 421 804 z "},"û":{"ha":746,"x_min":65,"x_max":711,"o":"m 711 682 l 576 0 l 456 0 l 461 97 l 456 97 q 347 17 404 51 q 228 -17 290 -17 q 103 28 142 -17 q 65 156 65 74 q 68 202 65 179 q 76 251 71 225 l 163 682 l 311 682 l 229 271 q 221 231 224 247 q 218 199 218 214 q 303 111 218 111 q 471 217 371 111 l 563 682 l 711 682 m 282 783 l 228 846 l 414 1031 l 576 1031 l 697 842 l 628 783 l 489 931 l 483 931 l 282 783 z "},"ũ":{"ha":746,"x_min":65,"x_max":743,"o":"m 711 682 l 576 0 l 456 0 l 461 97 l 456 97 q 347 17 404 51 q 228 -17 290 -17 q 103 28 142 -17 q 65 156 65 74 q 68 202 65 179 q 76 251 71 225 l 163 682 l 311 682 l 229 271 q 221 231 224 247 q 218 199 218 214 q 303 111 218 111 q 471 217 371 111 l 563 682 l 711 682 m 561 799 q 503 815 526 799 q 462 851 481 831 q 426 887 443 871 q 385 903 408 903 q 313 808 332 903 l 211 814 q 275 962 229 910 q 393 1014 321 1014 q 451 998 428 1014 q 493 963 475 982 q 528 927 511 943 q 569 911 546 911 q 642 1004 625 911 l 743 999 q 679 851 725 904 q 561 799 633 799 z "},"ü":{"ha":746,"x_min":65,"x_max":711,"o":"m 711 682 l 576 0 l 456 0 l 461 97 l 456 97 q 347 17 404 51 q 228 -17 290 -17 q 103 28 142 -17 q 65 156 65 74 q 68 202 65 179 q 76 251 71 225 l 163 682 l 311 682 l 229 271 q 221 231 224 247 q 218 199 218 214 q 303 111 218 111 q 471 217 371 111 l 563 682 l 711 682 m 322 806 q 272 824 292 806 q 253 875 253 842 q 278 938 253 911 q 340 965 304 965 q 390 947 369 965 q 410 894 410 928 q 384 831 410 857 q 322 806 358 806 m 597 806 q 547 824 567 806 q 528 875 528 842 q 553 938 528 911 q 615 965 579 965 q 665 947 646 965 q 685 894 685 928 q 659 831 685 857 q 597 806 633 806 z "},"ū":{"ha":746,"x_min":65,"x_max":711,"o":"m 711 682 l 576 0 l 456 0 l 461 97 l 456 97 q 347 17 404 51 q 228 -17 290 -17 q 103 28 142 -17 q 65 156 65 74 q 68 202 65 179 q 76 251 71 225 l 163 682 l 311 682 l 229 271 q 221 231 224 247 q 218 199 218 214 q 303 111 218 111 q 471 217 371 111 l 563 682 l 711 682 m 269 829 l 289 928 l 663 928 l 644 829 l 269 829 z "},"ŭ":{"ha":746,"x_min":65,"x_max":718,"o":"m 711 682 l 576 0 l 456 0 l 461 97 l 456 97 q 347 17 404 51 q 228 -17 290 -17 q 103 28 142 -17 q 65 156 65 74 q 68 202 65 179 q 76 251 71 225 l 163 682 l 311 682 l 229 271 q 221 231 224 247 q 218 199 218 214 q 303 111 218 111 q 471 217 371 111 l 563 682 l 711 682 m 453 793 q 358 810 396 793 q 297 858 319 828 q 268 926 275 888 q 265 1008 261 965 l 364 1024 q 368 976 363 999 q 387 935 374 953 q 421 907 400 918 q 472 896 442 896 q 528 907 503 896 q 572 935 553 918 q 604 976 590 953 q 626 1024 618 999 l 718 1008 q 688 926 708 965 q 634 858 667 888 q 556 810 601 828 q 453 793 511 793 z "},"ů":{"ha":746,"x_min":65,"x_max":711,"o":"m 711 682 l 576 0 l 456 0 l 461 97 l 456 97 q 347 17 404 51 q 228 -17 290 -17 q 103 28 142 -17 q 65 156 65 74 q 68 202 65 179 q 76 251 71 225 l 163 682 l 311 682 l 229 271 q 221 231 224 247 q 218 199 218 214 q 303 111 218 111 q 471 217 371 111 l 563 682 l 711 682 m 458 781 q 354 811 396 781 q 313 900 313 842 q 326 960 313 932 q 364 1010 340 989 q 421 1044 388 1032 q 494 1057 454 1057 q 600 1026 558 1057 q 642 938 642 996 q 628 877 642 906 q 590 827 614 849 q 532 793 565 806 q 458 781 499 781 m 468 843 q 522 870 500 843 q 544 933 544 897 q 529 976 544 958 q 486 994 514 994 q 431 967 454 994 q 408 904 408 940 q 424 860 408 876 q 468 843 439 843 z "},"ű":{"ha":746,"x_min":65,"x_max":800,"o":"m 711 682 l 576 0 l 456 0 l 461 97 l 456 97 q 347 17 404 51 q 228 -17 290 -17 q 103 28 142 -17 q 65 156 65 74 q 68 202 65 179 q 76 251 71 225 l 163 682 l 311 682 l 229 271 q 221 231 224 247 q 218 199 218 214 q 303 111 218 111 q 471 217 371 111 l 563 682 l 711 682 m 386 790 l 307 838 l 472 1069 l 571 1008 l 386 790 m 615 790 l 536 838 l 701 1069 l 800 1008 l 615 790 z "},"ǔ":{"ha":746,"x_min":65,"x_max":711,"o":"m 711 682 l 576 0 l 456 0 l 461 97 l 456 97 q 347 17 404 51 q 228 -17 290 -17 q 103 28 142 -17 q 65 156 65 74 q 68 202 65 179 q 76 251 71 225 l 163 682 l 311 682 l 229 271 q 221 231 224 247 q 218 199 218 214 q 303 111 218 111 q 471 217 371 111 l 563 682 l 711 682 m 361 801 l 239 990 l 308 1047 l 449 901 l 454 901 l 654 1047 l 710 986 l 522 801 l 361 801 z "},"ǖ":{"ha":746,"x_min":65,"x_max":711,"o":"m 711 682 l 576 0 l 456 0 l 461 97 l 456 97 q 347 17 404 51 q 228 -17 290 -17 q 103 28 142 -17 q 65 156 65 74 q 68 202 65 179 q 76 251 71 225 l 163 682 l 311 682 l 229 271 q 221 231 224 247 q 218 199 218 214 q 303 111 218 111 q 471 217 371 111 l 563 682 l 711 682 m 322 806 q 278 823 294 806 q 263 865 263 840 q 285 926 263 901 q 342 950 308 950 q 386 934 369 950 q 403 892 403 918 q 379 831 403 856 q 322 806 356 806 m 596 806 q 552 823 568 806 q 536 865 536 840 q 560 926 536 901 q 615 950 583 950 q 659 934 643 950 q 675 892 675 918 q 651 831 675 856 q 596 806 628 806 m 317 1043 l 333 1119 l 706 1119 l 689 1043 l 317 1043 z "},"ǘ":{"ha":746,"x_min":65,"x_max":711,"o":"m 711 682 l 576 0 l 456 0 l 461 97 l 456 97 q 347 17 404 51 q 228 -17 290 -17 q 103 28 142 -17 q 65 156 65 74 q 68 202 65 179 q 76 251 71 225 l 163 682 l 311 682 l 229 271 q 221 231 224 247 q 218 199 218 214 q 303 111 218 111 q 471 217 371 111 l 563 682 l 711 682 m 503 989 l 447 1036 l 589 1197 l 665 1131 l 503 989 m 322 806 q 278 823 294 806 q 263 865 263 840 q 285 926 263 901 q 342 950 308 950 q 386 934 369 950 q 403 892 403 918 q 379 831 403 856 q 322 806 356 806 m 596 806 q 552 823 568 806 q 536 865 536 840 q 560 926 536 901 q 615 950 583 950 q 659 934 643 950 q 675 892 675 918 q 651 831 675 856 q 596 806 628 806 z "}}}
